# Blender v2.80 (sub 75) OBJ File: ''
# www.blender.org
mtllib SpeakeasyWoodFloor.mtl
o Plane.001_Plane.000
v 62.140190 -0.008590 50.246826
v 62.140190 -0.008588 39.116726
v 35.826115 -0.008579 39.116726
v 35.826115 -0.008581 50.246826
v 60.207653 -0.008590 50.246826
v 60.207653 -0.008588 39.116726
v 59.072159 -0.008589 50.246826
v 59.072159 -0.008587 39.116726
v 60.201992 -0.000006 39.000000
v 59.066498 -0.000006 39.000000
v 39.857040 -0.008583 50.246826
v 39.857040 -0.008581 39.116726
v 40.916180 -0.008583 50.246826
v 40.916180 -0.008581 39.116726
v 39.859306 -0.000006 39.000000
v 40.918446 -0.000006 39.000000
v 62.140190 -0.008590 44.902996
v 62.140190 -0.008589 43.870838
v 35.826115 -0.008580 43.870838
v 35.826115 -0.008581 44.902996
v 60.207653 -0.008588 43.870838
v 60.207653 -0.008589 44.902996
v 59.072159 -0.008588 43.870838
v 59.072159 -0.008589 44.902996
v 39.857040 -0.008582 43.870838
v 39.857040 -0.008582 44.902996
v 40.916180 -0.008582 43.870838
v 40.916180 -0.008582 44.902996
v 35.682640 -0.000007 43.876801
v 35.682640 -0.000007 44.908958
vt 0.181252 0.520673
vt 0.181252 0.683531
vt 0.043168 0.683531
vt 0.043168 0.520673
vt 0.944588 0.520673
vt 0.944588 0.683531
vt 0.878386 0.683531
vt 0.878386 0.520673
vt 0.839489 0.683531
vt 0.839489 0.520673
vt 0.878193 0.687530
vt 0.839295 0.687530
vt 0.217534 0.520673
vt 0.217534 0.683531
vt 0.217612 0.687530
vt 0.181330 0.687530
vt 0.839489 0.302256
vt 0.839489 0.485316
vt 0.217534 0.485316
vt 0.217534 0.302256
vt 0.181252 0.485316
vt 0.181252 0.302256
vt 0.878386 0.302256
vt 0.878386 0.485316
vt 0.944588 0.302256
vt 0.944588 0.485316
vt 0.043168 0.485316
vt 0.043168 0.302256
vt 0.038253 0.520469
vt 0.038253 0.485111
vn 0.0000 1.0000 0.0000
vn 0.0000 0.9997 0.0242
vn 0.0195 0.9998 0.0000
vn 0.0000 0.9997 0.0239
vn 0.0000 0.9997 0.0250
vn 0.0000 0.9973 0.0733
vn 0.0000 0.9997 0.0246
vn 0.0202 0.9998 0.0000
vn 0.0597 0.9982 0.0000
usemtl None
s 1
f 25/1/1 12/2/2 3/3/1 19/4/3
f 18/5/1 2/6/1 6/7/4 21/8/1
f 21/8/1 6/7/4 8/9/5 23/10/1
f 8/9/5 6/7/4 9/11/6 10/12/6
f 27/13/1 14/14/7 12/2/2 25/1/1
f 23/10/1 8/9/5 14/14/7 27/13/1
f 12/2/2 14/14/7 16/15/6 15/16/6
f 7/17/1 24/18/1 28/19/1 13/20/1
f 24/18/1 23/10/1 27/13/1 28/19/1
f 13/20/1 28/19/1 26/21/1 11/22/1
f 28/19/1 27/13/1 25/1/1 26/21/1
f 5/23/1 22/24/1 24/18/1 7/17/1
f 22/24/1 21/8/1 23/10/1 24/18/1
f 1/25/1 17/26/1 22/24/1 5/23/1
f 17/26/1 18/5/1 21/8/1 22/24/1
f 11/22/1 26/21/1 20/27/8 4/28/1
f 26/21/1 25/1/1 19/4/3 20/27/8
f 20/27/8 19/4/3 29/29/9 30/30/9
