# Blender v2.80 (sub 75) OBJ File: 'Map.blend'
# www.blender.org
mtllib Frame.mtl
o Cube.002
v -3.652513 -0.591915 -0.199330
v -3.652513 1.652846 -0.199330
v -3.652513 -0.591915 0.199330
v -3.652513 1.652846 0.199330
v 3.652513 -0.591915 -0.199330
v 3.652513 1.652846 -0.199330
v 3.652513 -0.591915 0.199330
v 3.652513 1.652846 0.199330
v -3.849799 -0.704742 -0.199330
v -3.849799 1.765673 -0.199330
v -3.849799 1.765673 0.199330
v -3.849799 -0.704742 0.199330
v 3.849799 -0.704742 0.199330
v 3.849799 1.765673 0.199330
v 3.849799 1.765673 -0.199330
v 3.849799 -0.704742 -0.199330
vt 0.375000 0.000000
vt 0.375000 0.250000
vt 0.625000 0.250000
vt 0.625000 0.000000
vt 0.604988 0.479988
vt 0.604988 0.770012
vt 0.395012 0.770012
vt 0.395012 0.479988
vt 0.375000 0.500000
vt 0.375000 0.750000
vt 0.625000 0.750000
vt 0.625000 0.500000
vt 0.604988 0.270012
vt 0.604988 0.979988
vt 0.604988 0.770012
vt 0.604988 0.479988
vt 0.125000 0.500000
vt 0.125000 0.750000
vt 0.875000 0.750000
vt 0.875000 0.500000
vt 0.395012 0.979988
vt 0.375000 1.000000
vt 0.625000 1.000000
vt 0.604988 0.979988
vt 0.604988 0.270012
vt 0.395012 0.270012
vt 0.395012 0.479988
vt 0.604988 0.479988
vt 0.604988 0.770012
vt 0.395012 0.770012
vt 0.395012 0.479988
vt 0.395012 0.770012
vt 0.395012 0.979988
vt 0.395012 0.270012
vt 0.395012 0.270012
vt 0.395012 0.979988
vt 0.604988 0.979988
vt 0.604988 0.270012
vn -1.0000 0.0000 0.0000
vn 1.0000 0.0000 0.0000
vn 0.0000 -1.0000 0.0000
vn 0.0000 1.0000 0.0000
vn -0.0000 0.0000 -1.0000
vn -0.0000 0.0000 1.0000
usemtl None
s off
f 9/1/1 12/2/1 11/3/1 10/4/1
f 6/5/1 5/6/1 7/7/1 8/8/1
f 13/9/2 16/10/2 15/11/2 14/12/2
f 2/13/3 6/14/3 8/15/3 4/16/3
f 12/17/3 9/18/3 16/10/3 13/9/3
f 14/12/4 15/11/4 10/19/4 11/20/4
f 1/21/5 9/22/5 10/23/5 2/24/5
f 4/25/6 11/3/6 12/2/6 3/26/6
f 3/26/6 12/2/6 13/9/6 7/27/6
f 8/28/6 14/12/6 11/3/6 4/25/6
f 7/27/6 13/9/6 14/12/6 8/28/6
f 6/29/5 15/11/5 16/10/5 5/30/5
f 5/30/5 16/10/5 9/22/5 1/21/5
f 2/24/5 10/23/5 15/11/5 6/29/5
f 5/31/4 1/32/4 3/33/4 7/34/4
f 1/35/2 2/36/2 4/37/2 3/38/2
