# Blender v2.80 (sub 75) OBJ File: ''
# www.blender.org
mtllib PictureFrame.mtl
o Cube_Cube.001
v -0.885108 -1.565260 0.087942
v -0.885108 1.565260 0.087942
v -1.000000 -1.705176 -0.028713
v -1.000000 1.705176 -0.028713
v 0.885108 -1.565260 0.087942
v 0.885108 1.565260 0.087942
v 1.000000 -1.705176 -0.028713
v 1.000000 1.705176 -0.028713
v -1.000000 -1.705176 0.028713
v -1.000000 1.705176 0.028713
v 1.000000 1.705176 0.028713
v 1.000000 -1.705176 0.028713
v -0.966716 -1.669936 0.064759
v -0.966716 1.669936 0.064759
v 0.966716 1.669936 0.064759
v 0.966716 -1.669936 0.064759
v -0.948988 -1.650083 0.081598
v -0.948988 1.650083 0.081598
v 0.948988 1.650083 0.081598
v 0.948988 -1.650083 0.081598
v -0.928931 -1.622553 0.086553
v -0.928931 1.622553 0.086553
v 0.928931 1.622553 0.086553
v 0.928931 -1.622553 0.086553
v -0.847761 -1.499215 0.008639
v -0.847761 1.499215 0.008639
v 0.847761 1.499215 0.008639
v 0.847761 -1.499215 0.008639
vt 0.375000 0.000000
vt 0.625000 0.000000
vt 0.625000 0.250000
vt 0.375000 0.250000
vt 0.625000 0.500000
vt 0.375000 0.500000
vt 0.625000 0.750000
vt 0.375000 0.750000
vt 0.614844 0.760277
vt 0.614844 0.989723
vt 0.614844 0.989723
vt 0.614844 0.760277
vt 0.125000 0.500000
vt 0.125000 0.750000
vt 0.875000 0.500000
vt 0.875000 0.750000
vt 0.379161 0.995839
vt 0.620839 0.995839
vt 0.625000 1.000000
vt 0.375000 1.000000
vt 0.620839 0.754161
vt 0.379161 0.754161
vt 0.380839 0.994139
vt 0.619161 0.994139
vt 0.619161 0.755861
vt 0.380839 0.755861
vt 0.381803 0.993156
vt 0.618197 0.993156
vt 0.618197 0.756844
vt 0.381803 0.756844
vt 0.385156 0.989723
vt 0.385156 0.760277
vt 0.385156 0.760277
vt 0.385156 0.989723
vn -1.0000 0.0000 0.0000
vn 0.0000 0.0000 -1.0000
vn 1.0000 0.0000 0.0000
vn 0.0000 -0.7684 0.6400
vn 0.0000 -1.0000 0.0000
vn 0.0000 1.0000 0.0000
vn -0.7217 0.0000 0.6922
vn -0.7347 0.0000 0.6784
vn 0.7217 0.0000 0.6922
vn 0.7347 0.0000 0.6784
vn 0.0000 -0.6945 0.7195
vn 0.0000 -0.7151 0.6991
vn 0.0000 0.6945 0.7195
vn 0.0000 0.7151 0.6991
vn -0.4708 -0.0464 0.8810
vn -0.4708 0.0464 0.8810
vn 0.4708 0.0464 0.8810
vn 0.4708 -0.0464 0.8810
vn 0.0000 -0.6469 0.7626
vn 0.0000 0.6469 0.7626
vn -0.1000 -0.0663 0.9928
vn -0.1000 0.0663 0.9928
vn 0.1000 0.0663 0.9928
vn 0.1000 -0.0663 0.9928
vn -0.0167 -0.0114 0.9998
vn -0.0167 0.0114 0.9998
vn 0.0167 0.0114 0.9998
vn 0.0167 -0.0114 0.9998
vn 0.0000 0.0000 1.0000
vn -0.9047 0.0000 0.4261
vn 0.0000 0.7684 0.6400
vn 0.9047 0.0000 0.4261
usemtl None
s 1
f 9/1/1 10/2/1 4/3/1 3/4/1
f 3/4/2 4/3/2 8/5/2 7/6/2
f 7/6/3 8/5/3 11/7/3 12/8/3
f 6/9/4 2/10/4 26/11/4 27/12/4
f 3/13/5 7/6/5 12/8/5 9/14/5
f 8/5/6 4/15/6 10/16/6 11/7/6
f 13/17/7 14/18/7 10/19/8 9/20/8
f 15/21/9 16/22/9 12/8/10 11/7/10
f 16/22/11 13/17/11 9/20/12 12/8/12
f 14/18/13 15/21/13 11/7/14 10/19/14
f 17/23/15 18/24/16 14/18/7 13/17/7
f 19/25/17 20/26/18 16/22/9 15/21/9
f 20/26/19 17/23/19 13/17/11 16/22/11
f 18/24/20 19/25/20 15/21/13 14/18/13
f 21/27/21 22/28/22 18/24/16 17/23/15
f 23/29/23 24/30/24 20/26/18 19/25/17
f 24/30/24 21/27/21 17/23/15 20/26/18
f 22/28/22 23/29/23 19/25/17 18/24/16
f 1/31/25 2/10/26 22/28/22 21/27/21
f 6/9/27 5/32/28 24/30/24 23/29/23
f 5/32/28 1/31/25 21/27/21 24/30/24
f 2/10/26 6/9/27 23/29/23 22/28/22
f 28/33/29 27/12/29 26/11/29 25/34/29
f 5/32/30 6/9/30 27/12/30 28/33/30
f 1/31/31 5/32/31 28/33/31 25/34/31
f 2/10/32 1/31/32 25/34/32 26/11/32
