# Blender v2.80 (sub 75) OBJ File: ''
# www.blender.org
mtllib Map3MainWalls.mtl
o Plane.000_Plane.000_Plane.000_Plane.003
v 35.000000 0.000000 -3.909104
v 56.869392 0.602331 10.000003
v 42.000000 0.602331 -5.999996
v 34.999996 0.000009 -5.999996
v 35.000000 5.000009 -5.999996
v 42.000000 0.602331 -3.909104
v 34.999996 5.000000 -3.909104
v 42.000000 5.993752 -3.909104
v 24.333332 0.000027 -20.000000
v 34.666664 0.000027 -20.000000
v 34.666664 5.000030 -20.000000
v 24.333332 5.000030 -20.000000
v 14.999996 0.000027 -20.000000
v 14.999996 5.000030 -20.000000
v 41.800774 0.000018 -12.000000
v 34.999996 0.000018 -12.000000
v 34.999996 5.000018 -11.999991
v 41.800774 5.000018 -11.999991
v 41.800781 0.000027 -20.000000
v 41.800781 5.000030 -20.000000
v 24.999996 0.000018 -12.000000
v 14.999996 0.000018 -12.000000
v 14.999996 5.000018 -11.999991
v 24.999996 5.000018 -11.999991
v 41.800774 0.000018 -14.000000
v 41.800774 5.000020 -13.999991
v 41.999992 5.000020 -13.999991
v 41.999992 0.000018 -14.000000
v 42.000000 0.000027 -20.000000
v 42.000000 0.000027 -18.000000
v 41.800781 0.000027 -18.000000
v 41.800781 5.000027 -18.000000
v 42.000000 5.000027 -18.000000
v 42.000000 5.000030 -20.000000
v 24.999996 0.000000 -3.000000
v 24.999996 5.000000 -2.999991
v 24.999996 -0.000018 10.017346
v 24.999996 -0.000009 4.000001
v 25.000000 5.000000 4.000010
v 24.999996 4.999989 10.017355
v 34.999996 -0.000018 10.000001
v 34.999996 4.999989 10.000010
v 24.999996 -0.000027 17.000000
v 24.999996 4.999973 17.000000
v 65.000000 2.292492 17.558365
v 65.000000 2.292491 18.938604
v 65.000000 5.010184 18.938604
v 65.000000 4.999973 17.558365
v 65.000000 2.292492 21.000004
v 65.000000 4.999970 21.000004
v 59.000000 -0.000027 17.000000
v 65.000000 -0.000027 17.000000
v 65.000000 2.318187 17.000000
v 59.000000 2.409080 17.000000
v 65.000000 0.999955 30.000000
v 65.000000 -0.000045 30.000000
v 65.000000 -0.000045 32.116180
v 65.000000 0.999955 32.116180
v 65.000000 -0.000027 17.558365
v 65.000000 4.999973 17.000000
v 65.000000 4.999955 30.000000
v 65.000000 2.292481 30.000000
v 65.000000 2.292481 32.116180
v 65.000000 4.999955 31.865837
v 65.164139 4.999955 31.865837
v 65.164139 4.999955 30.000000
v 65.164139 4.999970 21.000004
v 65.000000 0.999973 18.938604
v 65.000000 0.999973 21.000004
v 65.000000 -0.000027 18.938604
v 65.000000 -0.000027 21.000004
v 65.164139 5.010184 18.938604
v 9.000000 0.000000 -3.000000
v 9.000000 5.000000 -2.999991
v 9.000000 -0.000009 4.000001
v 9.000000 5.000000 4.000010
v 50.336208 -0.000054 36.000000
v 50.336212 -0.000054 34.000000
v 50.336208 2.243659 34.000004
v 50.336208 2.243655 36.000000
v 9.000000 0.000027 -17.000000
v 9.000000 9.000026 -16.999983
v 5.999996 2.242858 17.000002
v -3.192828 2.242864 11.637520
v -3.192829 8.999983 11.637537
v 5.999996 8.999974 17.000017
v -3.055023 0.000018 -10.581120
v -3.055023 9.000017 -10.581102
v -5.999999 2.242871 6.000002
v -5.999999 2.242877 2.000002
v -6.000000 9.000000 2.000011
v -6.000000 8.999991 6.000011
v -6.000000 0.000000 -1.000000
v -6.000000 0.000009 -5.206796
v -6.000000 9.000009 -5.206785
v -6.000000 9.000000 -0.999988
v -6.000000 0.000009 -5.956922
v -6.000000 9.000009 -5.956911
v 9.000000 0.000009 -9.000000
v 9.000000 5.000011 -8.999991
v 9.129444 -0.000018 13.000001
v 9.129444 4.999982 13.000010
v 17.249996 2.242846 34.000004
v 16.378708 2.242846 34.000004
v 16.378708 4.999947 34.000004
v 17.249996 4.999947 34.000004
v 15.999996 -0.000027 17.000000
v 15.999996 4.999973 17.000000
v 27.738310 2.242846 34.000004
v 21.500000 2.242846 34.000004
v 21.500000 4.999947 34.000004
v 27.738310 4.999947 34.000004
v 12.695137 2.242859 20.825794
v 12.695137 5.174178 20.825794
v 29.836967 2.242847 28.000000
v 29.836967 2.242846 34.000004
v 29.836967 4.999947 34.000004
v 29.836967 4.999955 28.000000
v 29.836967 2.243655 36.000000
v 27.738310 2.242840 36.000000
v 13.000000 2.242846 30.621288
v 13.000000 4.999955 30.621288
v 13.115120 4.999955 31.495766
v 13.115120 2.242846 31.495766
v 13.452660 4.999955 32.310646
v 13.452660 2.242847 32.310646
v 13.989601 4.999955 33.010399
v 13.989601 2.242846 33.010399
v 14.689354 4.999955 33.547337
v 14.689354 2.242846 33.547337
v 15.504238 4.999947 33.884876
v 15.504238 2.242846 33.884876
v 13.000000 2.242859 21.000004
v 13.000000 4.999970 21.000004
v -3.817238 9.000017 -10.114665
v -3.817238 0.000018 -10.114682
v -4.527515 9.000017 -9.458539
v -4.527515 0.000018 -9.458557
v -5.137436 9.000009 -8.657442
v -5.137436 0.000009 -8.657460
v -5.605453 9.000009 -7.765973
v -5.605453 0.000009 -7.765984
v -5.899658 9.000009 -6.844869
v -5.899658 0.000009 -6.844880
v -3.192829 -0.000018 11.637517
v -3.919380 -0.000018 11.102958
v -3.919379 2.242864 11.102960
v -4.596416 -0.000018 10.383359
v -4.596416 2.242865 10.383360
v -5.177795 -0.000018 9.527753
v -5.177794 2.242864 9.527754
v -5.623909 -0.000009 8.594449
v -5.623908 2.242869 8.594450
v -5.904350 -0.000009 7.647052
v -5.904349 2.242871 7.647053
v -6.000000 -0.000009 6.750127
v -5.999999 2.242870 6.750128
v -6.000000 8.999991 6.750138
v 15.700771 -0.000027 16.825794
v 15.700771 4.999973 16.825794
v 13.000000 -0.000027 21.000004
v 12.695137 -0.000027 20.825794
v 56.884075 -0.000027 17.000000
v 56.884075 4.999973 17.000000
v 49.582603 2.269550 34.000000
v 49.582603 4.999947 34.000000
v 50.000000 4.999947 34.000000
v 48.000000 -0.000027 17.000000
v 48.000000 4.999973 17.000000
v 65.000000 2.292480 34.000000
v 52.421593 2.243659 34.000004
v 53.000000 4.999947 34.000004
v 65.000000 4.999947 34.000000
v 48.000000 2.269553 32.417400
v 48.000000 4.999955 32.417400
v 48.053925 4.999955 32.827007
v 48.053925 2.269553 32.827007
v 48.212029 4.999955 33.208694
v 48.212029 2.269552 33.208694
v 48.463531 4.999955 33.536465
v 48.463531 2.269552 33.536465
v 48.791302 4.999947 33.787971
v 48.791302 2.269550 33.787971
v 49.172993 4.999947 33.946075
v 49.172993 2.269550 33.946075
v 48.000000 2.269554 28.000000
v 48.000000 4.999955 28.000000
v -6.000000 -0.000009 6.000000
v -5.904350 8.999991 7.647063
v -5.623909 8.999991 8.594463
v -5.177795 8.999983 9.527769
v -4.596416 8.999983 10.383373
v -3.919380 8.999983 11.102975
v 13.000000 -0.000045 30.621288
v 15.504238 -0.000054 33.884876
v 16.378708 -0.000054 34.000004
v 14.689354 -0.000045 33.547337
v 13.989601 -0.000045 33.010399
v 13.452660 -0.000045 32.310646
v 13.115120 -0.000045 31.495766
v 27.738310 -0.000054 36.000000
v 27.738310 -0.000054 34.000004
v 21.500000 -0.000054 34.000004
v 17.249996 -0.000054 34.000004
v 5.999996 -0.000027 17.000000
v -6.000000 -0.000000 2.000000
v 29.836967 -0.000054 34.000004
v 29.836967 -0.000054 36.000000
v 29.836967 -0.000045 28.000000
v 52.421593 -0.000054 34.000004
v 52.421593 -0.000054 36.000000
v 52.421593 2.249023 36.000000
v 68.437866 -0.000054 36.000000
v 68.437866 -0.000054 34.000004
v 68.437866 2.249027 34.000004
v 68.437866 2.249023 36.000000
v 48.000000 -0.000045 32.417400
v 48.000000 -0.000045 28.000000
v 49.172993 -0.000054 33.946075
v 49.582603 -0.000054 34.000000
v 48.791302 -0.000054 33.787971
v 48.463531 -0.000045 33.536465
v 48.212029 -0.000045 33.208694
v 48.053925 -0.000045 32.827007
v 65.000000 -0.000054 34.000000
v 70.534828 -0.000054 34.000004
v 70.534828 -0.000054 36.000000
v 70.534828 2.249023 36.000000
v 70.534828 2.249027 34.000004
v 65.164139 4.999973 17.558365
v 65.000000 4.999953 33.274384
v 65.000000 2.292480 33.282974
v 65.164139 4.999947 34.000004
v 65.164139 4.999953 33.274387
v 65.000000 -0.000049 33.282974
v 56.869392 3.186494 10.000006
v 42.000000 3.298041 -3.909104
v 34.999996 2.499985 10.000005
v 56.884075 2.409080 17.000000
v 48.000000 2.499973 17.000000
v 35.000000 2.500000 -3.909104
v 42.000000 3.298041 -5.999996
v 35.000000 2.500009 -5.999996
v 41.800774 2.500018 -11.999996
v 34.999996 2.500018 -11.999996
v 41.800774 2.500019 -13.999996
v 41.999992 2.500019 -13.999996
v 41.905472 5.980332 -3.909104
v 41.905472 5.980332 -5.999996
v 41.905472 0.594197 -5.999996
v 41.905472 0.594197 -3.909104
v 41.905472 3.287265 -3.909104
v 41.905472 3.287265 -5.999996
v 35.089481 5.012712 -5.999996
v 35.089481 2.510210 -5.999996
v 35.089478 5.012703 -3.909104
v 35.089478 0.007709 -5.999996
v 35.089481 0.007700 -3.909104
v 35.089481 2.510202 -3.909104
v 59.000000 4.999973 17.000000
v 58.991325 0.602331 10.000003
v 58.991325 3.190986 10.000006
vt 0.329275 0.295710
vt 0.734400 0.127809
vt 0.987023 0.127809
vt 0.008233 0.295710
vt 0.333490 0.295710
vt 0.333490 0.336642
vt 0.329275 0.336642
vt 0.329275 0.254778
vt 0.333490 0.254778
vt 0.987023 0.088705
vt 0.990527 0.088705
vt 0.990527 0.127809
vt 0.734399 0.088705
vt 0.003781 0.254778
vt 0.008233 0.254778
vt 0.003781 0.295710
vt 0.008233 0.336642
vt 0.003781 0.336642
vt 0.987023 0.166913
vt 0.734399 0.166913
vt 0.000000 0.000000
vt 0.000000 0.000000
vt 0.731083 0.127809
vt 0.731083 0.166913
vt 0.731083 0.088705
vt 0.000000 0.000000
vt 0.000000 0.000000
vt 0.000000 0.000000
vt 0.000000 0.000000
vt 0.935816 0.546748
vt 0.114916 0.803677
vt 0.175929 0.803677
vt 0.935816 0.546748
vt 0.321578 0.845311
vt 0.149321 0.846072
vt 0.149689 0.929422
vt 0.321946 0.928661
vt 0.477164 0.844624
vt 0.477533 0.927974
vt 0.180824 0.127809
vt 0.473165 0.127809
vt 0.473165 0.166913
vt 0.180824 0.166913
vt 0.030395 0.846598
vt 0.030764 0.929948
vt -0.004375 0.172266
vt 0.205219 0.172266
vt 0.205219 0.246743
vt -0.004375 0.246743
vt 0.094851 0.127809
vt 0.094851 0.166913
vt 0.086288 0.166913
vt 0.086288 0.127809
vt 0.028379 0.842337
vt -0.004368 0.858450
vt -0.001623 0.860374
vt 0.004024 0.917243
vt 0.001101 0.919293
vt 0.029421 0.932768
vt 0.806926 0.172266
vt 0.995560 0.172266
vt 0.995560 0.246743
vt 0.806926 0.246743
vt 0.122686 0.005840
vt 0.232183 0.005840
vt 0.232183 0.084718
vt 0.122686 0.084718
vt 0.987962 0.295710
vt 0.987962 0.336642
vt -0.004377 0.005840
vt -0.004377 0.084718
vt 0.710415 0.493372
vt 0.650414 0.493372
vt 0.650414 0.429576
vt 0.710415 0.429815
vt 0.560800 0.493372
vt 0.560800 0.429815
vt 0.896948 0.546748
vt 0.896948 0.446150
vt 0.935816 0.446150
vt 0.169553 0.523713
vt 0.169553 0.547187
vt 0.077559 0.547187
vt 0.077559 0.523713
vt 0.734689 0.492768
vt 0.734688 0.547187
vt 0.710415 0.547187
vt 0.734689 0.429815
vt 0.169554 0.429815
vt 0.169553 0.493372
vt 0.077559 0.493372
vt 0.088442 0.429815
vt 0.407122 0.779845
vt 0.407122 0.779845
vt 0.394818 0.832403
vt 0.394818 0.832403
vt 0.407122 0.779845
vt 0.394818 0.832403
vt 0.650413 0.523713
vt 0.560800 0.523713
vt 0.650413 0.547187
vt 0.560800 0.547187
vt 0.394818 0.832403
vt 0.407122 0.779845
vt 0.471575 0.172266
vt 0.471575 0.246743
vt 0.523333 0.005840
vt 0.523333 0.084718
vt 0.855072 0.403971
vt 0.855049 0.430096
vt 0.825741 0.430069
vt 0.825765 0.403944
vt 0.588990 0.844130
vt 0.589653 0.994160
vt 0.627287 0.715125
vt 0.811797 0.715125
vt 0.811797 0.832273
vt 0.627287 0.832273
vt 0.816659 0.843124
vt 0.817322 0.993154
vt 0.926205 0.715125
vt 0.995553 0.715125
vt 0.995553 0.832273
vt 0.926205 0.832273
vt 0.994891 0.842337
vt 0.924764 0.842647
vt 0.925427 0.992677
vt 0.995554 0.992367
vt 0.912259 0.842702
vt 0.912922 0.992732
vt 0.345819 0.172266
vt 0.345819 0.246743
vt 0.687123 0.005840
vt 0.687123 0.084718
vt 0.213852 0.715126
vt 0.228958 0.715126
vt 0.228958 0.762926
vt 0.213852 0.762926
vt 0.831790 0.005840
vt 0.995563 0.005840
vt 0.995563 0.084718
vt 0.831790 0.084718
vt 0.032017 0.715126
vt 0.140170 0.715126
vt 0.140170 0.762926
vt 0.032017 0.762926
vt 0.493599 0.715126
vt 0.493599 0.765946
vt 0.160643 0.616582
vt 0.036879 0.616582
vt 0.036879 0.559711
vt 0.160643 0.559711
vt 0.825772 0.456252
vt 0.798359 0.456249
vt 0.798362 0.430124
vt 0.825775 0.430128
vt 0.320707 0.715126
vt 0.320707 0.762926
vt 0.305416 0.762926
vt 0.305416 0.715126
vt 0.290124 0.762926
vt 0.290124 0.715126
vt 0.274833 0.762926
vt 0.274833 0.715126
vt 0.259541 0.762926
vt 0.259541 0.715126
vt 0.244249 0.762926
vt 0.244249 0.715126
vt 0.487512 0.715126
vt 0.487512 0.762926
vt 0.832219 0.993088
vt 0.831556 0.843058
vt 0.848338 0.993017
vt 0.847675 0.842987
vt 0.865122 0.992943
vt 0.864459 0.842913
vt 0.881906 0.992869
vt 0.881244 0.842839
vt 0.898026 0.992798
vt 0.897363 0.842768
vt 0.811797 0.676240
vt 0.827435 0.676240
vt 0.827435 0.715125
vt 0.844565 0.676240
vt 0.844565 0.715125
vt 0.862499 0.676240
vt 0.862499 0.715125
vt 0.880433 0.676241
vt 0.880433 0.715125
vt 0.897562 0.676241
vt 0.897562 0.715125
vt 0.913200 0.676241
vt 0.913200 0.715125
vt 0.913200 0.832273
vt 0.825490 0.005840
vt 0.825490 0.084718
vt 0.487511 0.676241
vt 0.493599 0.676241
vt 0.693088 0.616566
vt 0.677543 0.616032
vt 0.677544 0.559711
vt 0.686153 0.559711
vt 0.043662 0.803677
vt 0.114916 0.829125
vt 0.043662 0.829125
vt 0.995560 0.615559
vt 0.736104 0.616566
vt 0.748034 0.559711
vt 0.995561 0.559711
vt 0.980780 0.446150
vt 0.980780 0.546748
vt 0.626412 0.616031
vt 0.626412 0.559711
vt 0.634934 0.559711
vt 0.634934 0.616031
vt 0.643456 0.559711
vt 0.643456 0.616032
vt 0.651978 0.559711
vt 0.651978 0.616032
vt 0.660500 0.559711
vt 0.660500 0.616032
vt 0.669022 0.559711
vt 0.669022 0.616032
vt 0.535294 0.616031
vt 0.535294 0.559711
vt 0.926205 0.676240
vt 0.897562 0.832273
vt 0.880433 0.832273
vt 0.862499 0.832273
vt 0.844565 0.832273
vt 0.827435 0.832273
vt 0.320707 0.676241
vt 0.244249 0.676241
vt 0.228958 0.676241
vt 0.259541 0.676241
vt 0.274832 0.676241
vt 0.290124 0.676241
vt 0.305416 0.676241
vt 0.855072 0.430132
vt 0.855069 0.456256
vt 0.140170 0.676241
vt 0.213852 0.676241
vt 0.627287 0.676241
vt 0.032017 0.676241
vt 0.995553 0.676241
vt 0.769061 0.456256
vt 0.769054 0.430132
vt 0.160643 0.662847
vt 0.036879 0.662847
vt -0.004368 0.762926
vt -0.004368 0.715126
vt 0.769193 0.430096
vt 0.769147 0.403971
vt 0.798525 0.403919
vt 0.798501 0.430044
vt 0.855072 0.377766
vt 0.855072 0.403891
vt 0.825695 0.403891
vt 0.825695 0.377767
vt 0.626412 0.662847
vt 0.535294 0.662847
vt 0.669021 0.662847
vt 0.677543 0.662847
vt 0.660500 0.662847
vt 0.651978 0.662847
vt 0.643456 0.662847
vt 0.634934 0.662847
vt 0.693088 0.662847
vt 0.995560 0.662847
vt 0.736104 0.662847
vt 0.768925 0.403891
vt 0.768926 0.377766
vt 0.798303 0.377767
vt 0.798303 0.403891
vt 0.141240 0.373525
vt 0.641240 0.373525
vt 0.141240 0.373525
vt 0.141240 0.373525
vt 0.027209 0.429815
vt 0.026836 0.493372
vt -0.004334 0.493372
vt -0.004334 0.429815
vt 0.227264 0.377776
vt 0.208810 0.377777
vt 0.208809 0.373602
vt 0.227264 0.373602
vt -0.004335 0.547187
vt 0.026836 0.547187
vt 0.329625 0.798291
vt 0.394818 0.832403
vt 0.043662 0.778229
vt 0.114916 0.778229
vt 0.987962 0.254778
vt 0.473165 0.088705
vt 0.094851 0.088705
vt 0.086288 0.088705
vt 0.180824 0.088705
vt 0.176631 0.778229
vt 0.896948 0.546748
vn 0.1133 -0.9936 -0.0000
vn -0.0000 -0.0000 -1.0000
vn 0.0000 0.0000 1.0000
vn -1.0000 0.0000 0.0000
vn 1.0000 0.0000 0.0000
vn 0.0011 -0.9939 -0.1107
vn 0.2298 -0.0000 0.9732
vn 0.2632 -0.0000 0.9647
vn -0.2298 0.0000 -0.9732
vn 0.0000 -1.0000 -0.0000
vn 0.0000 0.7071 0.7071
vn 0.0000 1.0000 0.0000
vn 0.0000 1.0000 0.0025
vn 0.0000 1.0000 -0.0012
vn -0.7122 0.0000 -0.7020
vn 0.4586 -0.0000 0.8886
vn 0.4610 -0.0000 0.8874
vn 0.5000 0.0000 -0.8660
vn 0.5490 0.0000 -0.8358
vn 0.5007 0.0000 -0.8656
vn 0.4962 -0.0000 0.8682
vn 0.9984 -0.0000 0.0562
vn -0.9999 0.0000 0.0144
vn 0.0654 0.0000 -0.9979
vn 0.4961 0.0000 -0.8682
vn 0.0002 -1.0000 0.0002
vn 0.9979 0.0000 -0.0654
vn 0.9659 0.0000 -0.2588
vn 0.8660 0.0000 -0.5000
vn 0.7071 0.0000 -0.7071
vn 0.2588 0.0000 -0.9659
vn 0.6032 -0.0000 0.7976
vn 0.7399 -0.0000 0.6727
vn 0.8435 -0.0000 0.5372
vn 0.9225 -0.0000 0.3860
vn 0.9779 -0.0000 0.2093
vn 0.6632 0.0000 -0.7484
vn 0.7802 0.0000 -0.6256
vn 0.8671 -0.0000 -0.4981
vn 0.9335 -0.0000 -0.3587
vn 0.9807 -0.0000 -0.1957
vn 0.9986 -0.0000 -0.0531
vn -0.4472 0.0000 -0.8944
vn -0.5031 -0.0000 0.8642
vn 0.0013 -1.0000 0.0013
vn 0.0000 1.0000 -0.0074
vn 1.0000 0.0000 -0.0021
vn -1.0000 -0.0000 0.0012
usemtl None.007
s off
f 259/1/1 255/2/1 253/3/1 252/4/1
usemtl None.001
f 259/1/2 241/5/2 7/6/2 256/7/2
f 258/8/2 1/9/2 241/5/2 259/1/2
f 250/10/3 3/11/3 242/12/3 253/3/3
f 257/13/3 250/10/3 253/3/3 255/2/3
f 6/14/2 251/15/2 252/4/2 237/16/2
f 237/16/2 252/4/2 248/17/2 8/18/2
f 255/2/3 253/3/3 249/19/3 254/20/3
f 253/3/4 252/4/4 248/17/4 249/19/4
f 237/21/1 252/4/1 253/3/1 242/22/1
f 243/23/3 255/2/3 254/20/3 5/24/3
f 4/25/3 257/13/3 255/2/3 243/23/3
f 251/15/2 258/8/2 259/1/2 252/4/2
f 252/4/2 259/1/2 256/7/2 248/17/2
f 256/7/5 259/1/5 255/2/5 254/20/5
f 7/6/4 5/24/4 243/23/4 241/5/4
f 255/2/1 259/1/1 241/5/1 243/23/1
f 54/26/3 260/27/3 164/28/3 239/29/3
f 54/30/6 239/31/6 236/32/6 262/33/6
s 1
f 9/34/3 10/35/3 11/36/3 12/37/3
f 13/38/7 9/34/3 12/37/3 14/39/8
f 244/40/2 245/41/2 17/42/2 18/43/2
f 10/35/3 19/44/3 20/45/3 11/36/3
f 21/46/2 22/47/9 23/48/9 24/49/2
f 246/50/4 244/40/4 18/43/4 26/51/4
f 246/50/2 26/51/2 27/52/2 247/53/2
f 19/44/10 29/54/10 30/55/10 31/56/10
f 32/57/11 31/56/3 30/55/3 33/58/11
f 20/45/4 19/44/4 31/56/4 32/57/4
f 34/59/12 20/45/12 32/57/11 33/58/11
f 35/60/5 21/61/5 24/62/5 36/63/5
f 245/41/4 243/23/4 5/24/4 17/42/4
f 37/64/5 38/65/5 39/66/5 40/67/5
f 241/5/4 238/68/4 42/69/4 7/6/4
f 43/70/5 37/64/5 40/67/5 44/71/5
f 45/72/4 46/73/4 47/74/4 48/75/4
f 47/74/4 46/73/4 49/76/4 50/77/4
f 51/78/3 52/79/3 53/80/3 54/30/3
f 55/81/4 56/82/4 57/83/4 58/84/4
f 45/72/4 53/85/4 52/86/4 59/87/4
f 45/72/4 48/75/4 60/88/4 53/85/4
f 61/89/4 62/90/4 63/91/4 64/92/4
f 62/90/4 55/81/4 58/84/4 63/91/4
f 61/93/12 64/94/12 65/95/12 66/96/12
f 50/97/13 61/93/12 66/96/12 67/98/13
f 50/77/4 49/76/4 62/90/4 61/89/4
f 46/73/4 68/99/4 69/100/4 49/76/4
f 68/99/4 70/101/4 71/102/4 69/100/4
f 69/100/4 71/102/4 56/82/4 55/81/4
f 72/103/14 47/104/14 50/97/13 67/98/13
f 73/105/3 35/60/3 36/63/3 74/106/3
f 38/65/2 75/107/15 76/108/15 39/66/2
f 77/109/5 78/110/5 79/111/5 80/112/5
f 81/113/16 13/38/7 14/39/8 82/114/17
f 83/115/18 84/116/19 85/117/19 86/118/20
f 87/119/21 81/113/16 82/114/17 88/120/21
f 89/121/5 90/122/5 91/123/5 92/124/5
f 93/125/5 94/126/5 95/127/5 96/128/5
f 94/126/5 97/129/22 98/130/22 95/127/5
f 99/131/4 73/105/4 74/106/4 100/132/4
f 75/107/15 101/133/23 102/134/23 76/108/15
f 103/135/2 104/136/24 105/137/24 106/138/2
f 107/139/3 43/140/3 44/141/3 108/142/3
f 109/143/2 110/144/2 111/145/2 112/146/2
f 113/147/25 83/115/18 86/118/20 114/148/25
f 110/144/2 103/135/2 106/138/2 111/145/2
f 115/149/4 116/150/4 117/151/4 118/152/4
f 109/153/26 116/154/26 119/155/26 120/156/26
f 121/157/27 122/158/27 123/159/28 124/160/28
f 124/160/28 123/159/28 125/161/29 126/162/29
f 126/162/29 125/161/29 127/163/30 128/164/30
f 128/164/30 127/163/30 129/165/18 130/166/18
f 130/166/18 129/165/18 131/167/31 132/168/31
f 132/168/31 131/167/31 105/137/24 104/136/24
f 121/157/27 133/169/5 134/170/5 122/158/27
f 87/119/21 88/120/21 135/171/32 136/172/32
f 136/172/32 135/171/32 137/173/33 138/174/33
f 138/174/33 137/173/33 139/175/34 140/176/34
f 140/176/34 139/175/34 141/177/35 142/178/35
f 142/178/35 141/177/35 143/179/36 144/180/36
f 144/180/36 143/179/36 98/130/22 97/129/22
f 84/116/19 145/181/19 146/182/37 147/183/37
f 147/183/37 146/182/37 148/184/38 149/185/38
f 149/185/38 148/184/38 150/186/39 151/187/39
f 151/187/39 150/186/39 152/188/40 153/189/40
f 153/189/40 152/188/40 154/190/41 155/191/41
f 155/191/41 154/190/41 156/192/42 157/193/42
f 157/193/42 89/121/5 92/124/5 158/194/42
f 22/47/9 99/131/43 100/132/43 23/48/9
f 101/133/44 159/195/44 160/196/44 102/134/44
f 108/142/44 160/196/44 159/195/44 107/139/44
f 113/147/25 133/169/25 161/197/25 162/198/25
f 79/199/2 165/200/24 166/201/24 167/202/2
f 240/203/3 239/31/3 164/204/3 169/205/3
f 170/206/2 171/207/2 172/208/2 173/209/2
f 54/30/3 53/80/3 60/210/3 260/211/3
f 174/212/27 175/213/27 176/214/28 177/215/28
f 177/215/28 176/214/28 178/216/29 179/217/29
f 179/217/29 178/216/29 180/218/30 181/219/30
f 181/219/30 180/218/30 182/220/18 183/221/18
f 183/221/18 182/220/18 184/222/31 185/223/31
f 185/223/31 184/222/31 166/201/24 165/200/24
f 174/212/27 186/224/5 187/225/5 175/213/27
f 114/148/25 134/170/25 133/169/25 113/147/25
f 156/192/42 188/226/5 89/121/5 157/193/42
f 189/227/41 155/191/41 157/193/42 158/194/42
f 190/228/40 153/189/40 155/191/41 189/227/41
f 191/229/39 151/187/39 153/189/40 190/228/40
f 192/230/38 149/185/38 151/187/39 191/229/39
f 193/231/37 147/183/37 149/185/38 192/230/38
f 85/117/19 84/116/19 147/183/37 193/231/37
f 194/232/27 161/197/5 133/169/5 121/157/27
f 195/233/31 132/168/31 104/136/24 196/234/24
f 197/235/18 130/166/18 132/168/31 195/233/31
f 198/236/30 128/164/30 130/166/18 197/235/18
f 199/237/29 126/162/29 128/164/30 198/236/30
f 200/238/28 124/160/28 126/162/29 199/237/29
f 194/232/27 121/157/27 124/160/28 200/238/28
f 201/239/5 202/240/5 109/153/5 120/156/5
f 203/241/2 204/242/2 103/135/2 110/144/2
f 162/198/25 205/243/18 83/115/18 113/147/25
f 202/244/2 203/241/2 110/144/2 109/143/2
f 204/242/2 196/234/24 104/136/24 103/135/2
f 188/226/5 206/245/5 90/122/5 89/121/5
f 205/243/18 145/181/19 84/116/19 83/115/18
f 207/246/4 208/247/4 119/155/4 116/154/4
f 209/248/4 207/249/4 116/150/4 115/149/4
f 112/146/2 117/250/2 116/251/2 109/143/2
f 210/252/4 211/253/4 212/254/4 171/255/4
f 213/256/5 214/257/5 215/258/5 216/259/5
f 212/254/45 80/112/45 79/111/45 171/255/45
f 171/207/2 79/199/2 167/202/2 172/208/2
f 217/260/27 218/261/5 186/224/5 174/212/27
f 219/262/31 185/223/31 165/200/24 220/263/24
f 221/264/18 183/221/18 185/223/31 219/262/31
f 222/265/30 181/219/30 183/221/18 221/264/18
f 223/266/29 179/217/29 181/219/30 222/265/30
f 224/267/28 177/215/28 179/217/29 223/266/29
f 217/260/27 174/212/27 177/215/28 224/267/28
f 78/268/2 220/263/24 165/200/24 79/199/2
f 225/269/2 210/270/2 171/207/2 170/206/2
f 226/271/4 227/272/4 228/273/4 229/274/4
f 228/273/10 216/259/10 215/258/10 229/274/10
f 48/275/46 47/276/14 72/277/14 230/278/46
f 231/279/4 232/280/4 170/281/4 173/282/4
f 231/283/12 173/284/12 233/285/12 234/286/12
f 225/287/4 170/281/4 232/280/4 235/288/4
f 64/94/12 231/289/12 234/290/12 65/95/12
f 64/92/4 63/91/4 232/280/4 231/279/4
f 115/149/2 118/152/2 187/225/2 186/224/2
f 115/149/2 186/224/2 218/261/2 209/248/2
f 168/291/3 163/292/3 239/31/3 240/203/3
f 1/9/4 41/293/4 238/68/4 241/5/4
f 16/294/4 4/25/4 243/23/4 245/41/4
f 25/295/2 246/50/2 247/53/2 28/296/2
f 25/295/4 15/297/4 244/40/4 246/50/4
f 15/297/2 16/294/2 245/41/2 244/40/2
f 163/292/47 2/298/47 236/32/47 239/31/47
f 51/78/48 54/30/48 262/33/48 261/299/48
