# Blender v2.80 (sub 75) OBJ File: ''
# www.blender.org
mtllib Map3VipWalls.mtl
o Plane.000_Plane.000
v 72.000000 2.246457 22.000000
v 72.000000 2.246448 33.240788
v 72.000000 4.999960 33.240788
v 72.000000 4.999968 22.000000
v 66.529747 2.299662 10.279375
v 67.000000 2.299662 10.279375
v 67.000000 4.999984 10.279382
v 66.529747 4.999984 10.279382
v 65.164139 2.292495 17.558365
v 65.164139 2.299662 10.279375
v 65.164139 4.999984 10.279382
v 65.164139 4.999976 17.558365
v 68.437866 2.249032 34.000004
v 65.164139 2.292485 34.000004
v 65.164139 4.999953 34.000004
v 68.000000 4.999953 34.000004
v 72.000000 2.246473 10.279375
v 72.000000 4.999984 10.279382
v 72.000000 2.246474 10.000004
v 67.000000 -0.000016 10.279374
v 67.000000 -0.000016 10.000003
v 67.000000 2.299662 10.000004
v 72.000000 -0.000040 33.240788
v 71.974129 -0.000040 33.437286
v 71.974129 2.246448 33.437286
v 71.898285 -0.000040 33.620392
v 71.898285 2.246448 33.620392
v 71.777634 -0.000048 33.777630
v 71.777634 2.246444 33.777630
v 71.620392 -0.000048 33.898285
v 71.620392 2.246444 33.898285
v 71.437286 -0.000048 33.974136
v 71.437286 2.246444 33.974136
v 71.240784 -0.000048 34.000004
v 71.240784 2.246444 34.000004
v 70.534828 2.249032 34.000004
v 71.000000 4.999953 34.000004
v 71.240784 4.999953 34.000004
v 65.164139 0.999976 21.000004
v 65.164139 -0.000024 21.000004
v 65.164139 -0.000024 18.938604
v 65.164139 0.999976 18.938604
v 65.000000 2.292495 17.558365
v 65.000000 2.292494 18.938604
v 65.164139 2.292494 18.938604
v 65.164139 -0.000048 34.000004
v 65.164139 -0.000044 33.282978
v 65.164139 2.292485 33.282978
v 65.000000 2.292495 21.000004
v 65.164139 4.999960 31.865837
v 65.164139 2.292486 32.116180
v 65.164139 2.292486 30.000000
v 65.164139 4.999960 30.000000
v 65.000000 0.999960 30.000000
v 65.000000 -0.000040 32.116180
v 65.000000 0.999960 32.116180
v 65.000000 -0.000024 17.558365
v 65.000000 2.292486 30.000000
v 65.000000 2.292486 32.116180
v 65.164139 -0.000040 32.116180
v 65.164139 0.999960 32.116180
v 65.000000 -0.000024 18.938604
v 65.000000 0.999976 18.938604
v 65.164139 2.292495 21.000004
v 65.164139 4.999974 21.000004
v 65.164139 5.010187 18.938604
v 65.164139 0.999960 30.000000
v 65.000000 0.999976 21.000004
v 65.164139 -0.000040 30.000000
v 68.437866 -0.000048 34.000004
v 70.534828 -0.000048 34.000004
v 65.164139 -0.000024 17.558365
v 67.000000 4.999990 10.000010
v 65.164139 -0.000016 10.279374
v 66.529747 -0.000016 10.279374
v 71.437286 4.999953 33.974136
v 71.620392 4.999953 33.898285
v 71.777634 4.999953 33.777630
v 71.898285 4.999960 33.620392
v 71.974129 4.999960 33.437286
v 72.000000 -0.000016 10.279374
v 72.000000 -0.000016 10.000003
v 72.000000 -0.000032 22.000000
v 65.164139 4.999958 33.274387
v 65.000000 2.292485 33.282974
v 65.000000 -0.000044 33.282974
vt 0.232080 0.790633
vt 0.135088 0.612728
vt 0.178668 0.588969
vt 0.275660 0.766874
vt 0.341149 0.048782
vt 0.350080 0.045213
vt 0.371464 0.096787
vt 0.362498 0.100532
vt 0.145027 0.124109
vt 0.314838 0.058757
vt 0.336424 0.111654
vt 0.190815 0.176687
vt 0.100684 0.549523
vt 0.064702 0.491701
vt 0.118255 0.472125
vt 0.140443 0.518857
vt 0.333213 0.976133
vt 0.376792 0.952374
vt 0.333019 0.002141
vt 0.338244 0.000061
vt 0.355363 0.043077
vt 0.099534 0.632112
vt 0.097824 0.628975
vt 0.133378 0.609591
vt 0.096114 0.625838
vt 0.131668 0.606454
vt 0.094403 0.622701
vt 0.129958 0.603317
vt 0.092693 0.619565
vt 0.128248 0.600180
vt 0.090983 0.616428
vt 0.126538 0.597044
vt 0.089273 0.613291
vt 0.124827 0.593907
vt 0.118777 0.582712
vt 0.166329 0.566337
vt 0.168407 0.570148
vt 0.064362 0.207407
vt 0.042682 0.203465
vt 0.049553 0.154227
vt 0.074279 0.156206
vt 0.114052 0.153587
vt 0.111938 0.148729
vt 0.140939 0.122251
vt 0.030042 0.524041
vt 0.020444 0.513998
vt 0.055260 0.477268
vt 0.111771 0.437903
vt 0.047913 0.447021
vt 0.061500 0.394223
vt 0.115736 0.404025
vt 0.000061 0.431524
vt 0.000990 0.428441
vt 0.020079 0.433966
vt 0.018840 0.437180
vt 0.049880 0.150218
vt 0.074287 0.152161
vt 0.101963 0.215188
vt 0.044491 0.449726
vt 0.152111 0.232680
vt 0.172529 0.197509
vt 0.029885 0.388890
vt 0.033707 0.385041
vt 0.059531 0.390987
vt 0.067715 0.213541
vt 0.010996 0.385774
vt 0.097053 0.218038
vt 0.146959 0.063937
vt 0.143578 0.063811
vt 0.376792 0.094570
vt 0.298849 0.015804
vt 0.324229 0.005649
vt 0.083181 0.602118
vt 0.170117 0.573285
vt 0.171827 0.576422
vt 0.173537 0.579559
vt 0.175247 0.582695
vt 0.176958 0.585832
vt 0.297658 0.995517
vt 0.335623 0.980554
vt 0.300068 0.999939
vt 0.196526 0.810017
vt 0.066140 0.574323
vt 0.114706 0.460737
vt 0.051416 0.476250
vt 0.018387 0.512069
vn -1.0000 0.0000 0.0000
vn -0.9979 0.0000 -0.0654
vn 0.0000 -0.0000 1.0000
vn 1.0000 0.0000 0.0000
vn -0.0000 0.0000 -1.0000
vn -0.9659 0.0000 -0.2588
vn -0.8660 0.0000 -0.5000
vn -0.7071 0.0000 -0.7071
vn -0.5000 0.0000 -0.8660
vn -0.2588 0.0000 -0.9659
vn -0.0654 0.0000 -0.9979
vn 0.0000 -0.7071 0.7071
vn 0.0000 -0.7071 -0.7071
vn 0.0000 1.0000 0.0000
vn 0.0000 -1.0000 -0.0000
usemtl None.001
s 1
f 1/1/1 2/2/2 3/3/2 4/4/1
f 5/5/3 6/6/3 7/7/3 8/8/3
f 9/9/4 10/10/4 11/11/4 12/12/4
f 13/13/5 14/14/5 15/15/5 16/16/5
f 17/17/1 1/1/1 4/4/1 18/18/1
f 10/10/3 5/5/3 8/8/3 11/11/3
f 6/6/4 20/19/4 21/20/4 22/21/4
f 2/2/2 23/22/2 24/23/6 25/24/6
f 25/24/6 24/23/6 26/25/7 27/26/7
f 27/26/7 26/25/7 28/27/8 29/28/8
f 29/28/8 28/27/8 30/29/9 31/30/9
f 31/30/9 30/29/9 32/31/10 33/32/10
f 33/32/10 32/31/10 34/33/11 35/34/11
f 35/34/11 36/35/5 37/36/5 38/37/11
f 39/38/4 40/39/4 41/40/4 42/41/4
f 9/9/12 45/42/13 44/43/13 43/44/12
f 14/14/4 46/45/4 47/46/4 48/47/4
f 50/48/4 51/49/4 52/50/4 53/51/4
f 55/52/3 60/53/3 61/54/3 56/55/3
f 41/40/5 62/56/5 63/57/5 42/41/5
f 64/58/4 39/38/4 42/41/4 45/42/4
f 56/55/3 61/54/3 51/49/12 59/59/12
f 42/41/5 63/57/5 44/43/13 45/42/13
f 65/60/4 64/58/4 45/42/4 66/61/4
f 53/51/4 52/50/4 64/58/4 65/60/4
f 51/49/4 61/54/4 67/62/4 52/50/4
f 52/50/5 67/62/5 54/63/5 58/64/5
f 68/65/14 54/63/14 67/62/14 39/38/14
f 61/54/4 60/53/4 69/66/4 67/62/4
f 67/62/4 69/66/4 40/39/4 39/38/4
f 52/50/15 58/64/15 49/67/15 64/58/15
f 64/58/3 49/67/3 68/65/3 39/38/3
f 36/35/5 13/13/5 16/16/5 37/36/5
f 72/68/3 9/9/12 43/44/12 57/69/3
f 7/7/4 6/6/4 22/21/4 73/70/4
f 74/71/3 75/72/3 5/5/3 10/10/3
f 72/68/4 74/71/4 10/10/4 9/9/4
f 75/72/3 20/19/3 6/6/3 5/5/3
f 12/12/4 66/61/4 45/42/4 9/9/4
f 34/33/11 71/73/5 36/35/5 35/34/11
f 76/74/10 33/32/10 35/34/11 38/37/11
f 77/75/9 31/30/9 33/32/10 76/74/10
f 78/76/8 29/28/8 31/30/9 77/75/9
f 79/77/7 27/26/7 29/28/8 78/76/8
f 80/78/6 25/24/6 27/26/7 79/77/7
f 3/3/2 2/2/2 25/24/6 80/78/6
f 81/79/1 17/17/1 19/80/1 82/81/1
f 81/79/1 83/82/1 1/1/1 17/17/1
f 83/82/1 23/22/2 2/2/2 1/1/1
f 70/83/5 46/45/5 14/14/5 13/13/5
f 84/84/4 48/47/4 51/49/4 50/48/4
f 85/85/13 48/47/13 47/46/5 86/86/5
f 59/59/12 51/49/12 48/47/13 85/85/13
f 15/15/4 14/14/4 48/47/4 84/84/4
