# Blender v2.80 (sub 75) OBJ File: ''
# www.blender.org
mtllib Map3MainWalls.mtl
o Plane.000
v 45.939278 -0.000015 17.000000
v 48.000000 2.499970 17.000000
v 45.939278 1.222816 17.000000
v 45.939278 2.878545 17.000000
v 45.939278 4.999985 17.000000
v 35.000000 2.878545 17.000000
v 37.060726 2.878545 17.000000
v 37.060726 4.999985 17.000000
v 35.000000 4.999985 17.000000
v 35.000000 1.073000 17.000000
v 37.060726 1.222816 17.000000
v 35.000000 -0.000015 17.000000
v 37.060726 -0.000015 17.000000
v 34.999996 2.499983 10.000005
v 35.089481 2.510203 -3.909104
v 35.089481 2.510211 -5.999996
v 41.905472 3.287266 -5.999996
v 41.905472 3.287266 -3.909104
v 35.000000 2.500001 -3.909104
v 34.999996 5.000000 -3.909103
v 35.089478 5.012703 -3.909103
v 35.089481 0.007701 -3.909104
v 35.000000 0.000001 -3.909104
v 41.905472 0.594198 -5.999996
v 42.000000 0.602332 -5.999996
v 42.000000 3.298042 -5.999996
v 35.089478 0.007710 -5.999996
v 42.000000 0.602332 -3.909104
v 41.905472 0.594198 -3.909104
v 42.000000 3.298042 -3.909104
v 35.089481 5.012713 -5.999995
v 35.000000 2.500010 -5.999996
v 35.000000 5.000010 -5.999995
v 34.999996 0.000010 -5.999996
v 59.000000 2.409077 17.000000
v 59.000000 4.999970 17.000000
v 56.884075 4.999970 17.000000
v 56.884075 2.409077 17.000000
v 56.869392 3.186492 10.000007
v 58.991325 3.190984 10.000007
v 24.333332 0.000030 -20.000000
v 34.666664 0.000030 -20.000000
v 34.666664 5.000033 -20.000000
v 24.333332 5.000033 -20.000000
v 14.999996 0.000030 -20.000000
v 14.999996 5.000033 -20.000000
v 41.800774 2.500020 -11.999996
v 34.999996 2.500020 -11.999996
v 34.999996 5.000020 -11.999990
v 41.800774 5.000020 -11.999990
v 41.800781 0.000030 -20.000000
v 41.800781 5.000033 -20.000000
v 24.999996 0.000020 -12.000000
v 14.999996 0.000020 -12.000000
v 14.999996 5.000020 -11.999990
v 24.999996 5.000020 -11.999990
v 41.800774 2.500021 -13.999996
v 41.800774 5.000022 -13.999990
v 41.999992 5.000022 -13.999990
v 41.999992 2.500021 -13.999996
v 42.000000 0.000030 -20.000000
v 42.000000 0.000030 -18.000000
v 41.800781 0.000030 -18.000000
v 41.800781 5.000030 -18.000000
v 42.000000 5.000030 -18.000000
v 42.000000 5.000033 -20.000000
v 24.999996 0.000000 -3.000000
v 24.999996 5.000000 -2.999990
v 24.999996 -0.000020 10.017346
v 24.999996 -0.000010 4.000001
v 25.000000 5.000000 4.000011
v 24.999996 4.999988 10.017356
v 34.999996 4.999988 10.000010
v 24.999996 -0.000030 17.000000
v 24.999996 4.999970 17.000000
v 65.000000 2.292489 17.558365
v 65.000000 2.292488 18.938604
v 65.000000 5.010181 18.938604
v 65.000000 4.999970 17.558365
v 65.000000 2.292489 21.000004
v 65.000000 4.999967 21.000004
v 59.000000 -0.000030 17.000000
v 65.000000 -0.000030 17.000000
v 65.000000 2.318184 17.000000
v 65.000000 0.999950 30.000000
v 65.000000 -0.000050 30.000000
v 65.000000 -0.000050 32.116180
v 65.000000 0.999950 32.116180
v 65.000000 -0.000030 17.558365
v 65.000000 4.999970 17.000000
v 65.000000 4.999950 30.000000
v 65.000000 2.292476 30.000000
v 65.000000 2.292476 32.116180
v 65.000000 4.999950 31.865837
v 65.164139 4.999950 31.865837
v 65.164139 4.999950 30.000000
v 65.164139 4.999967 21.000004
v 65.000000 0.999970 18.938604
v 65.000000 0.999970 21.000004
v 65.000000 -0.000030 18.938604
v 65.000000 -0.000030 21.000004
v 65.164139 5.010181 18.938604
v 9.000000 0.000000 -3.000000
v 9.000000 5.000000 -2.999990
v 9.000000 -0.000010 4.000001
v 9.000000 5.000000 4.000011
v 50.336208 -0.000060 36.000000
v 50.336212 -0.000060 34.000000
v 50.336208 2.243654 34.000004
v 50.336208 2.243649 36.000000
v 9.000000 0.000030 -17.000000
v 9.000000 9.000029 -16.999981
v 5.999996 2.242855 17.000002
v -3.192828 2.242862 11.637520
v -3.192829 8.999981 11.637539
v 5.999996 8.999971 17.000019
v -3.055023 0.000020 -10.581120
v -3.055023 9.000019 -10.581100
v -5.999999 2.242870 6.000002
v -5.999999 2.242877 2.000002
v -6.000000 9.000000 2.000012
v -6.000000 8.999990 6.000012
v -6.000000 0.000000 -1.000000
v -6.000000 0.000010 -5.206796
v -6.000000 9.000010 -5.206784
v -6.000000 9.000000 -0.999987
v -6.000000 0.000010 -5.956922
v -6.000000 9.000010 -5.956910
v 9.000000 0.000010 -9.000000
v 9.000000 5.000012 -8.999990
v 9.129444 -0.000020 13.000001
v 9.129444 4.999980 13.000010
v 17.249996 2.242841 34.000004
v 16.378708 2.242841 34.000004
v 16.378708 4.999941 34.000004
v 17.249996 4.999941 34.000004
v 15.999996 -0.000030 17.000000
v 15.999996 4.999970 17.000000
v 27.738310 2.242841 34.000004
v 21.500000 2.242841 34.000004
v 21.500000 4.999941 34.000004
v 27.738310 4.999941 34.000004
v 12.695137 2.242856 20.825794
v 12.695137 5.174175 20.825794
v 29.836967 2.242842 28.000000
v 29.836967 2.242841 34.000004
v 29.836967 4.999941 34.000004
v 29.836967 4.999950 28.000000
v 29.836967 2.243649 36.000000
v 27.738310 2.242834 36.000000
v 13.000000 2.242841 30.621288
v 13.000000 4.999950 30.621288
v 13.115120 4.999950 31.495766
v 13.115120 2.242841 31.495766
v 13.452660 4.999950 32.310646
v 13.452660 2.242842 32.310646
v 13.989601 4.999950 33.010399
v 13.989601 2.242841 33.010399
v 14.689354 4.999950 33.547337
v 14.689354 2.242841 33.547337
v 15.504238 4.999941 33.884876
v 15.504238 2.242841 33.884876
v 13.000000 2.242856 21.000004
v 13.000000 4.999967 21.000004
v -3.817238 9.000019 -10.114663
v -3.817238 0.000020 -10.114682
v -4.527515 9.000019 -9.458537
v -4.527515 0.000020 -9.458557
v -5.137436 9.000010 -8.657440
v -5.137436 0.000010 -8.657460
v -5.605453 9.000010 -7.765972
v -5.605453 0.000010 -7.765984
v -5.899658 9.000010 -6.844868
v -5.899658 0.000010 -6.844880
v -3.192829 -0.000020 11.637517
v -3.919380 -0.000020 11.102958
v -3.919379 2.242862 11.102960
v -4.596416 -0.000020 10.383359
v -4.596416 2.242863 10.383360
v -5.177795 -0.000020 9.527753
v -5.177794 2.242862 9.527754
v -5.623909 -0.000010 8.594449
v -5.623908 2.242867 8.594450
v -5.904350 -0.000010 7.647052
v -5.904349 2.242870 7.647053
v -6.000000 -0.000010 6.750127
v -5.999999 2.242869 6.750128
v -6.000000 8.999990 6.750139
v 15.700771 -0.000030 16.825794
v 15.700771 4.999970 16.825794
v 13.000000 -0.000030 21.000004
v 12.695137 -0.000030 20.825794
v 49.582603 2.269545 34.000000
v 49.582603 4.999941 34.000000
v 50.000000 4.999941 34.000000
v 48.000000 4.999970 17.000000
v 65.000000 2.292475 34.000000
v 52.421593 2.243654 34.000004
v 53.000000 4.999941 34.000004
v 65.000000 4.999941 34.000000
v 48.000000 2.269548 32.417400
v 48.000000 4.999950 32.417400
v 48.053925 4.999950 32.827007
v 48.053925 2.269548 32.827007
v 48.212029 4.999950 33.208694
v 48.212029 2.269547 33.208694
v 48.463531 4.999950 33.536465
v 48.463531 2.269547 33.536465
v 48.791302 4.999941 33.787971
v 48.791302 2.269545 33.787971
v 49.172993 4.999941 33.946075
v 49.172993 2.269545 33.946075
v 48.000000 2.269549 28.000000
v 48.000000 4.999950 28.000000
v -6.000000 -0.000010 6.000000
v -5.904350 8.999990 7.647064
v -5.623909 8.999990 8.594465
v -5.177795 8.999981 9.527771
v -4.596416 8.999981 10.383375
v -3.919380 8.999981 11.102977
v 13.000000 -0.000050 30.621288
v 15.504238 -0.000060 33.884876
v 16.378708 -0.000060 34.000004
v 14.689354 -0.000050 33.547337
v 13.989601 -0.000050 33.010399
v 13.452660 -0.000050 32.310646
v 13.115120 -0.000050 31.495766
v 27.738310 -0.000060 36.000000
v 27.738310 -0.000060 34.000004
v 21.500000 -0.000060 34.000004
v 17.249996 -0.000060 34.000004
v 5.999996 -0.000030 17.000000
v -6.000000 -0.000000 2.000000
v 29.836967 -0.000060 34.000004
v 29.836967 -0.000060 36.000000
v 29.836967 -0.000050 28.000000
v 52.421593 -0.000060 34.000004
v 52.421593 -0.000060 36.000000
v 52.421593 2.249017 36.000000
v 68.437866 -0.000060 36.000000
v 68.437866 -0.000060 34.000004
v 68.437866 2.249022 34.000004
v 68.437866 2.249017 36.000000
v 48.000000 -0.000050 32.417400
v 48.000000 -0.000050 28.000000
v 49.172993 -0.000060 33.946075
v 49.582603 -0.000060 34.000000
v 48.791302 -0.000060 33.787971
v 48.463531 -0.000050 33.536465
v 48.212029 -0.000050 33.208694
v 48.053925 -0.000050 32.827007
v 65.000000 -0.000060 34.000000
v 70.534828 -0.000060 34.000004
v 70.534828 -0.000060 36.000000
v 70.534828 2.249017 36.000000
v 70.534828 2.249022 34.000004
v 65.164139 4.999970 17.558365
v 65.000000 4.999948 33.274384
v 65.000000 2.292475 33.282974
v 65.164139 4.999941 34.000004
v 65.164139 4.999948 33.274387
v 65.000000 -0.000054 33.282974
v 48.000000 -0.000030 17.000000
v 56.884075 -0.000030 17.000000
v 34.999996 -0.000020 10.000001
v 34.999996 0.000020 -12.000000
v 41.800774 0.000020 -14.000000
v 41.999992 0.000020 -14.000000
v 41.800774 0.000020 -12.000000
v 56.869392 0.602329 10.000003
v 58.991325 0.602329 10.000003
vt 0.329275 0.295710
vt 0.734400 0.127809
vt 0.987023 0.127809
vt 0.008233 0.295710
vt 0.333490 0.295710
vt 0.333490 0.336642
vt 0.329275 0.336642
vt 0.329275 0.254778
vt 0.333490 0.254778
vt 0.987023 0.088705
vt 0.990527 0.088705
vt 0.990527 0.127809
vt 0.734399 0.088705
vt 0.003781 0.254778
vt 0.008233 0.254778
vt 0.003781 0.295710
vt 0.000000 0.000000
vt 0.000000 0.000000
vt 0.731083 0.127809
vt 0.734399 0.166913
vt 0.731083 0.166913
vt 0.731083 0.088705
vt 0.073769 0.750850
vt 0.073769 0.781687
vt 0.036898 0.781687
vt 0.036898 0.750850
vt 0.035557 0.088517
vt 0.073769 0.088517
vt 0.073769 0.119723
vt 0.035558 0.119723
vt 0.935816 0.546748
vt 0.114916 0.803677
vt 0.175929 0.803677
vt 0.935816 0.546748
vt 0.000028 0.281140
vt 0.000027 0.250748
vt 0.036898 0.250748
vt 0.018062 0.281140
vt 0.042481 0.281140
vt 0.073769 0.250748
vt 0.073769 0.281140
vt 0.042481 0.442476
vt 0.042481 0.412084
vt 0.073769 0.412084
vt 0.073769 0.442476
vt 0.015852 0.442476
vt 0.018062 0.412084
vt 0.000027 0.442476
vt 0.000027 0.412084
vt 0.073769 0.545714
vt 0.036898 0.545714
vt 0.000027 0.545714
vt 0.321578 0.845311
vt 0.149321 0.846072
vt 0.149689 0.929422
vt 0.321946 0.928661
vt 0.477164 0.844624
vt 0.477533 0.927974
vt 0.036898 0.970476
vt 0.036898 0.870176
vt 0.073769 0.870176
vt 0.073769 0.970476
vt 0.030395 0.846598
vt 0.030764 0.929948
vt -0.004375 0.172266
vt 0.205219 0.172266
vt 0.205219 0.246743
vt -0.004375 0.246743
vt 0.036898 0.999973
vt 0.073769 0.999973
vt 0.080731 0.006527
vt 0.000102 0.006527
vt 0.000102 0.000102
vt 0.080731 0.000102
vt 0.028379 0.842337
vt -0.004368 0.858450
vt -0.001623 0.860374
vt 0.004024 0.917243
vt 0.001101 0.919293
vt 0.029421 0.932768
vt 0.806926 0.172266
vt 0.995560 0.172266
vt 0.995560 0.246743
vt 0.806926 0.246743
vt 0.122686 0.005840
vt 0.232183 0.005840
vt 0.232183 0.084718
vt 0.122686 0.084718
vt -0.004377 0.005840
vt -0.004377 0.084718
vt 0.710415 0.493372
vt 0.650414 0.493372
vt 0.650414 0.429576
vt 0.710415 0.429815
vt 0.560800 0.493372
vt 0.560800 0.429815
vt 0.000027 0.088517
vt 0.000027 0.000027
vt 0.034217 0.000027
vt 0.169553 0.523713
vt 0.169553 0.547187
vt 0.077559 0.547187
vt 0.077559 0.523713
vt 0.734689 0.492768
vt 0.734688 0.547187
vt 0.710415 0.547187
vt 0.734689 0.429815
vt 0.169554 0.429815
vt 0.169553 0.493372
vt 0.077559 0.493372
vt 0.088442 0.429815
vt 0.407122 0.779845
vt 0.407122 0.779845
vt 0.394818 0.832403
vt 0.394818 0.832403
vt 0.407122 0.779845
vt 0.394818 0.832403
vt 0.650413 0.523713
vt 0.560800 0.523713
vt 0.650413 0.547187
vt 0.560800 0.547187
vt 0.394818 0.832403
vt 0.407122 0.779845
vt 0.471575 0.172266
vt 0.471575 0.246743
vt 0.523333 0.005840
vt 0.523333 0.084718
vt 0.855072 0.403971
vt 0.855049 0.430096
vt 0.825741 0.430069
vt 0.825765 0.403944
vt 0.588990 0.844130
vt 0.589653 0.994160
vt 0.627287 0.715125
vt 0.811797 0.715125
vt 0.811797 0.832273
vt 0.627287 0.832273
vt 0.816659 0.843124
vt 0.817322 0.993154
vt 0.926205 0.715125
vt 0.995553 0.715125
vt 0.995553 0.832273
vt 0.926205 0.832273
vt 0.994891 0.842337
vt 0.924764 0.842647
vt 0.925427 0.992677
vt 0.995554 0.992367
vt 0.912259 0.842702
vt 0.912922 0.992732
vt 0.345819 0.172266
vt 0.345819 0.246743
vt 0.687123 0.005840
vt 0.687123 0.084718
vt 0.213852 0.715126
vt 0.228958 0.715126
vt 0.228958 0.762926
vt 0.213852 0.762926
vt 0.831790 0.005840
vt 0.995563 0.005840
vt 0.995563 0.084718
vt 0.831790 0.084718
vt 0.032017 0.715126
vt 0.140170 0.715126
vt 0.140170 0.762926
vt 0.032017 0.762926
vt 0.493599 0.715126
vt 0.493599 0.765946
vt 0.160643 0.616582
vt 0.036879 0.616582
vt 0.036879 0.559711
vt 0.160643 0.559711
vt 0.825772 0.456252
vt 0.798359 0.456249
vt 0.798362 0.430124
vt 0.825775 0.430128
vt 0.320707 0.715126
vt 0.320707 0.762926
vt 0.305416 0.762926
vt 0.305416 0.715126
vt 0.290124 0.762926
vt 0.290124 0.715126
vt 0.274833 0.762926
vt 0.274833 0.715126
vt 0.259541 0.762926
vt 0.259541 0.715126
vt 0.244249 0.762926
vt 0.244249 0.715126
vt 0.487512 0.715126
vt 0.487512 0.762926
vt 0.832219 0.993088
vt 0.831556 0.843058
vt 0.848338 0.993017
vt 0.847675 0.842987
vt 0.865122 0.992943
vt 0.864459 0.842913
vt 0.881906 0.992869
vt 0.881244 0.842839
vt 0.898026 0.992798
vt 0.897363 0.842768
vt 0.811797 0.676240
vt 0.827435 0.676240
vt 0.827435 0.715125
vt 0.844565 0.676240
vt 0.844565 0.715125
vt 0.862499 0.676240
vt 0.862499 0.715125
vt 0.880433 0.676241
vt 0.880433 0.715125
vt 0.897562 0.676241
vt 0.897562 0.715125
vt 0.913200 0.676241
vt 0.913200 0.715125
vt 0.913200 0.832273
vt 0.825490 0.005840
vt 0.825490 0.084718
vt 0.487511 0.676241
vt 0.493599 0.676241
vt 0.693088 0.616566
vt 0.677543 0.616032
vt 0.677544 0.559711
vt 0.686153 0.559711
vt 0.995560 0.615559
vt 0.736104 0.616566
vt 0.748034 0.559711
vt 0.995561 0.559711
vt 0.073769 0.000027
vt 0.626412 0.616031
vt 0.626412 0.559711
vt 0.634934 0.559711
vt 0.634934 0.616031
vt 0.643456 0.559711
vt 0.643456 0.616032
vt 0.651978 0.559711
vt 0.651978 0.616032
vt 0.660500 0.559711
vt 0.660500 0.616032
vt 0.669022 0.559711
vt 0.669022 0.616032
vt 0.535294 0.616031
vt 0.535294 0.559711
vt 0.926205 0.676240
vt 0.897562 0.832273
vt 0.880433 0.832273
vt 0.862499 0.832273
vt 0.844565 0.832273
vt 0.827435 0.832273
vt 0.320707 0.676241
vt 0.244249 0.676241
vt 0.228958 0.676241
vt 0.259541 0.676241
vt 0.274832 0.676241
vt 0.290124 0.676241
vt 0.305416 0.676241
vt 0.855072 0.430132
vt 0.855069 0.456256
vt 0.140170 0.676241
vt 0.213852 0.676241
vt 0.627287 0.676241
vt 0.032017 0.676241
vt 0.995553 0.676241
vt 0.769061 0.456256
vt 0.769054 0.430132
vt 0.160643 0.662847
vt 0.036879 0.662847
vt -0.004368 0.762926
vt -0.004368 0.715126
vt 0.769193 0.430096
vt 0.769147 0.403971
vt 0.798525 0.403919
vt 0.798501 0.430044
vt 0.855072 0.377766
vt 0.855072 0.403891
vt 0.825695 0.403891
vt 0.825695 0.377767
vt 0.626412 0.662847
vt 0.535294 0.662847
vt 0.669021 0.662847
vt 0.677543 0.662847
vt 0.660500 0.662847
vt 0.651978 0.662847
vt 0.643456 0.662847
vt 0.634934 0.662847
vt 0.693088 0.662847
vt 0.995560 0.662847
vt 0.736104 0.662847
vt 0.768925 0.403891
vt 0.768926 0.377766
vt 0.798303 0.377767
vt 0.798303 0.403891
vt 0.141240 0.373525
vt 0.641240 0.373525
vt 0.141240 0.373525
vt 0.141240 0.373525
vt 0.027209 0.429815
vt 0.026836 0.493372
vt -0.004334 0.493372
vt -0.004334 0.429815
vt 0.227264 0.377776
vt 0.208810 0.377777
vt 0.208809 0.373602
vt 0.227264 0.373602
vt -0.004335 0.547187
vt 0.026836 0.547187
vt 0.329625 0.798291
vt 0.394818 0.832403
vt 0.000027 0.119723
vt 0.000027 0.750850
vt 0.000027 0.870176
vt 0.000027 0.781687
vt 0.161360 0.006527
vt 0.161360 0.000102
vt 0.000027 0.999973
vt 0.000027 0.970476
vt 0.114916 0.778229
vt 0.176631 0.778229
vt 0.896948 0.546748
vt 0.896948 0.546748
vn 0.1133 -0.9936 -0.0000
vn -0.0000 0.0000 -1.0000
vn 0.0000 -0.0000 1.0000
vn 1.0000 0.0000 0.0000
vn -1.0000 0.0000 -0.0000
vn 0.0011 -0.9939 -0.1107
vn 0.2298 -0.0000 0.9732
vn 0.2632 -0.0000 0.9647
vn -0.2298 0.0000 -0.9732
vn 0.0000 -1.0000 -0.0000
vn 0.0000 0.7071 0.7071
vn 0.0000 1.0000 0.0000
vn 0.0000 1.0000 0.0025
vn 0.0000 1.0000 -0.0012
vn -0.7122 0.0000 -0.7020
vn 0.4586 -0.0000 0.8886
vn 0.4610 -0.0000 0.8874
vn 0.5000 0.0000 -0.8660
vn 0.5490 0.0000 -0.8358
vn 0.5007 0.0000 -0.8656
vn 0.4962 -0.0000 0.8682
vn 0.9984 -0.0000 0.0562
vn -0.9999 0.0000 0.0144
vn 0.0654 0.0000 -0.9979
vn 0.4961 0.0000 -0.8682
vn 0.0002 -1.0000 0.0002
vn 0.9979 0.0000 -0.0654
vn 0.9659 0.0000 -0.2588
vn 0.8660 0.0000 -0.5000
vn 0.7071 0.0000 -0.7071
vn 0.2588 0.0000 -0.9659
vn 0.6032 -0.0000 0.7976
vn 0.7399 -0.0000 0.6727
vn 0.8435 -0.0000 0.5372
vn 0.9225 -0.0000 0.3860
vn 0.9779 -0.0000 0.2093
vn 0.6632 0.0000 -0.7484
vn 0.7802 0.0000 -0.6256
vn 0.8671 -0.0000 -0.4981
vn 0.9335 -0.0000 -0.3587
vn 0.9807 -0.0000 -0.1957
vn 0.9986 -0.0000 -0.0531
vn -0.4472 0.0000 -0.8944
vn -0.5031 -0.0000 0.8642
vn 0.0013 -1.0000 0.0013
vn 0.0000 1.0000 -0.0074
vn 1.0000 0.0000 -0.0021
vn -1.0000 -0.0000 0.0012
usemtl None
s off
f 15/1/1 16/2/1 17/3/1 18/4/1
f 15/1/2 19/5/2 20/6/2 21/7/2
f 22/8/2 23/9/2 19/5/2 15/1/2
f 24/10/3 25/11/3 26/12/3 17/3/3
f 27/13/3 24/10/3 17/3/3 16/2/3
f 28/14/2 29/15/2 18/4/2 30/16/2
f 30/17/1 18/4/1 17/3/1 26/18/1
f 32/19/3 16/2/3 31/20/3 33/21/3
f 34/22/3 27/13/3 16/2/3 32/19/3
f 29/15/2 22/8/2 15/1/2 18/4/2
f 21/7/4 15/1/4 16/2/4 31/20/4
f 20/23/5 33/24/5 32/25/5 19/26/5
f 16/2/1 15/1/1 19/5/1 32/19/1
f 35/27/3 36/28/3 37/29/3 38/30/3
f 35/31/6 38/32/6 39/33/6 40/34/6
s 1
f 1/35/3 263/36/3 2/37/3 3/38/3
f 3/38/3 2/37/3 4/39/3
f 4/39/3 2/37/3 196/40/3 5/41/3
f 6/42/3 7/43/3 8/44/3 9/45/3
f 7/43/3 4/39/3 5/41/3 8/44/3
f 10/46/3 11/47/3 7/43/3 6/42/3
f 12/48/3 13/49/3 11/47/3 10/46/3
f 13/49/3 1/35/3 3/38/3 11/47/3
f 6/42/5 9/45/5 73/50/5 14/51/5
f 12/48/5 10/46/5 14/51/5 265/52/5
f 10/46/5 6/42/5 14/51/5
f 41/53/3 42/54/3 43/55/3 44/56/3
f 45/57/7 41/53/3 44/56/3 46/58/8
f 47/59/2 48/60/2 49/61/2 50/62/2
f 42/54/3 51/63/3 52/64/3 43/55/3
f 53/65/2 54/66/9 55/67/9 56/68/2
f 57/69/5 47/59/5 50/62/5 58/70/5
f 57/71/2 58/72/2 59/73/2 60/74/2
f 51/63/10 61/75/10 62/76/10 63/77/10
f 64/78/11 63/77/3 62/76/3 65/79/11
f 52/64/5 51/63/5 63/77/5 64/78/5
f 66/80/12 52/64/12 64/78/11 65/79/11
f 67/81/4 53/82/4 56/83/4 68/84/4
f 48/60/5 32/25/5 33/24/5 49/61/5
f 69/85/4 70/86/4 71/87/4 72/88/4
f 19/26/5 14/51/5 73/50/5 20/23/5
f 74/89/4 69/85/4 72/88/4 75/90/4
f 76/91/5 77/92/5 78/93/5 79/94/5
f 78/93/5 77/92/5 80/95/5 81/96/5
f 82/97/3 83/98/3 84/99/3 35/27/3
f 85/100/5 86/101/5 87/102/5 88/103/5
f 76/91/5 84/104/5 83/105/5 89/106/5
f 76/91/5 79/94/5 90/107/5 84/104/5
f 91/108/5 92/109/5 93/110/5 94/111/5
f 92/109/5 85/100/5 88/103/5 93/110/5
f 91/112/12 94/113/12 95/114/12 96/115/12
f 81/116/13 91/112/12 96/115/12 97/117/13
f 81/96/5 80/95/5 92/109/5 91/108/5
f 77/92/5 98/118/5 99/119/5 80/95/5
f 98/118/5 100/120/5 101/121/5 99/119/5
f 99/119/5 101/121/5 86/101/5 85/100/5
f 102/122/14 78/123/14 81/116/13 97/117/13
f 103/124/3 67/81/3 68/84/3 104/125/3
f 70/86/2 105/126/15 106/127/15 71/87/2
f 107/128/4 108/129/4 109/130/4 110/131/4
f 111/132/16 45/57/7 46/58/8 112/133/17
f 113/134/18 114/135/19 115/136/19 116/137/20
f 117/138/21 111/132/16 112/133/17 118/139/21
f 119/140/4 120/141/4 121/142/4 122/143/4
f 123/144/4 124/145/4 125/146/4 126/147/4
f 124/145/4 127/148/22 128/149/22 125/146/4
f 129/150/5 103/124/5 104/125/5 130/151/5
f 105/126/15 131/152/23 132/153/23 106/127/15
f 133/154/2 134/155/24 135/156/24 136/157/2
f 137/158/3 74/159/3 75/160/3 138/161/3
f 139/162/2 140/163/2 141/164/2 142/165/2
f 143/166/25 113/134/18 116/137/20 144/167/25
f 140/163/2 133/154/2 136/157/2 141/164/2
f 145/168/5 146/169/5 147/170/5 148/171/5
f 139/172/26 146/173/26 149/174/26 150/175/26
f 151/176/27 152/177/27 153/178/28 154/179/28
f 154/179/28 153/178/28 155/180/29 156/181/29
f 156/181/29 155/180/29 157/182/30 158/183/30
f 158/183/30 157/182/30 159/184/18 160/185/18
f 160/185/18 159/184/18 161/186/31 162/187/31
f 162/187/31 161/186/31 135/156/24 134/155/24
f 151/176/27 163/188/4 164/189/4 152/177/27
f 117/138/21 118/139/21 165/190/32 166/191/32
f 166/191/32 165/190/32 167/192/33 168/193/33
f 168/193/33 167/192/33 169/194/34 170/195/34
f 170/195/34 169/194/34 171/196/35 172/197/35
f 172/197/35 171/196/35 173/198/36 174/199/36
f 174/199/36 173/198/36 128/149/22 127/148/22
f 114/135/19 175/200/19 176/201/37 177/202/37
f 177/202/37 176/201/37 178/203/38 179/204/38
f 179/204/38 178/203/38 180/205/39 181/206/39
f 181/206/39 180/205/39 182/207/40 183/208/40
f 183/208/40 182/207/40 184/209/41 185/210/41
f 185/210/41 184/209/41 186/211/42 187/212/42
f 187/212/42 119/140/4 122/143/4 188/213/42
f 54/66/9 129/150/43 130/151/43 55/67/9
f 131/152/44 189/214/44 190/215/44 132/153/44
f 138/161/44 190/215/44 189/214/44 137/158/44
f 143/166/25 163/188/25 191/216/25 192/217/25
f 109/218/2 193/219/24 194/220/24 195/221/2
f 2/37/3 38/30/3 37/29/3 196/40/3
f 197/222/2 198/223/2 199/224/2 200/225/2
f 35/27/3 84/99/3 90/226/3 36/28/3
f 201/227/27 202/228/27 203/229/28 204/230/28
f 204/230/28 203/229/28 205/231/29 206/232/29
f 206/232/29 205/231/29 207/233/30 208/234/30
f 208/234/30 207/233/30 209/235/18 210/236/18
f 210/236/18 209/235/18 211/237/31 212/238/31
f 212/238/31 211/237/31 194/220/24 193/219/24
f 201/227/27 213/239/4 214/240/4 202/228/27
f 144/167/25 164/189/25 163/188/25 143/166/25
f 186/211/42 215/241/4 119/140/4 187/212/42
f 216/242/41 185/210/41 187/212/42 188/213/42
f 217/243/40 183/208/40 185/210/41 216/242/41
f 218/244/39 181/206/39 183/208/40 217/243/40
f 219/245/38 179/204/38 181/206/39 218/244/39
f 220/246/37 177/202/37 179/204/38 219/245/38
f 115/136/19 114/135/19 177/202/37 220/246/37
f 221/247/27 191/216/4 163/188/4 151/176/27
f 222/248/31 162/187/31 134/155/24 223/249/24
f 224/250/18 160/185/18 162/187/31 222/248/31
f 225/251/30 158/183/30 160/185/18 224/250/18
f 226/252/29 156/181/29 158/183/30 225/251/30
f 227/253/28 154/179/28 156/181/29 226/252/29
f 221/247/27 151/176/27 154/179/28 227/253/28
f 228/254/4 229/255/4 139/172/4 150/175/4
f 230/256/2 231/257/2 133/154/2 140/163/2
f 192/217/25 232/258/18 113/134/18 143/166/25
f 229/259/2 230/256/2 140/163/2 139/162/2
f 231/257/2 223/249/24 134/155/24 133/154/2
f 215/241/4 233/260/4 120/141/4 119/140/4
f 232/258/18 175/200/19 114/135/19 113/134/18
f 234/261/5 235/262/5 149/174/5 146/173/5
f 236/263/5 234/264/5 146/169/5 145/168/5
f 142/165/2 147/265/2 146/266/2 139/162/2
f 237/267/5 238/268/5 239/269/5 198/270/5
f 240/271/4 241/272/4 242/273/4 243/274/4
f 239/269/45 110/131/45 109/130/45 198/270/45
f 198/223/2 109/218/2 195/221/2 199/224/2
f 244/275/27 245/276/4 213/239/4 201/227/27
f 246/277/31 212/238/31 193/219/24 247/278/24
f 248/279/18 210/236/18 212/238/31 246/277/31
f 249/280/30 208/234/30 210/236/18 248/279/18
f 250/281/29 206/232/29 208/234/30 249/280/30
f 251/282/28 204/230/28 206/232/29 250/281/29
f 244/275/27 201/227/27 204/230/28 251/282/28
f 108/283/2 247/278/24 193/219/24 109/218/2
f 252/284/2 237/285/2 198/223/2 197/222/2
f 253/286/5 254/287/5 255/288/5 256/289/5
f 255/288/10 243/274/10 242/273/10 256/289/10
f 79/290/46 78/291/14 102/292/14 257/293/46
f 258/294/5 259/295/5 197/296/5 200/297/5
f 258/298/12 200/299/12 260/300/12 261/301/12
f 252/302/5 197/296/5 259/295/5 262/303/5
f 94/113/12 258/304/12 261/305/12 95/114/12
f 94/111/5 93/110/5 259/295/5 258/294/5
f 145/168/2 148/171/2 214/240/2 213/239/2
f 145/168/2 213/239/2 245/276/2 236/263/2
f 263/36/3 264/306/3 38/30/3 2/37/3
f 23/307/5 265/52/5 14/51/5 19/26/5
f 266/308/5 34/309/5 32/25/5 48/60/5
f 267/310/2 57/71/2 60/74/2 268/311/2
f 267/312/5 269/313/5 47/59/5 57/69/5
f 269/313/2 266/308/2 48/60/2 47/59/2
f 264/314/47 270/315/47 39/33/47 38/32/47
f 82/316/48 35/31/48 40/34/48 271/317/48
