# Blender v2.82 (sub 7) OBJ File: ''
# www.blender.org
mtllib OuterCasinoWall.mtl
o Plane.000_Plane.000
v 71.000000 9.922071 36.000000
v 68.000000 9.922071 36.000000
v 68.437866 2.249035 36.000000
v 70.534828 2.249035 36.000000
v 53.000000 9.922071 36.000000
v 49.999996 9.922071 36.000000
v 50.336208 2.243667 36.000000
v 52.421593 2.249035 36.000000
v 29.836967 2.243667 36.000000
v 29.836967 -0.000042 36.000000
v 50.336208 -0.000042 36.000000
v 52.421593 -0.000042 36.000000
v 68.437866 -0.000042 36.000000
v 70.534828 -0.000042 36.000000
v 72.513664 -0.000042 36.000000
v 72.513664 2.249035 36.000000
v 29.836967 9.922071 36.000000
v 27.738310 2.242852 36.000000
v 27.738310 9.922071 36.000000
v 10.980309 9.922071 36.000000
v 10.980309 2.242852 36.000000
v 27.738310 -0.000042 36.000000
v 10.980309 -0.000042 36.000000
v 72.513664 9.922071 36.000000
vt 0.785049 0.548342
vt 0.755816 0.548342
vt 0.760083 0.473574
vt 0.780517 0.473574
vt 0.609652 0.548342
vt 0.580420 0.548342
vt 0.583696 0.473521
vt 0.604016 0.473574
vt 0.383946 0.473521
vt 0.383946 0.451658
vt 0.583696 0.451658
vt 0.604016 0.451658
vt 0.760083 0.451658
vt 0.780517 0.451658
vt 0.799799 0.451658
vt 0.799799 0.473574
vt 0.383946 0.548342
vt 0.363496 0.473513
vt 0.363496 0.548342
vt 0.200201 0.548342
vt 0.200201 0.473513
vt 0.363496 0.451658
vt 0.200201 0.451658
vt 0.799799 0.548342
vn 0.0000 0.0000 1.0000
usemtl None.005
s 1
f 1/1/1 2/2/1 3/3/1 4/4/1
f 5/5/1 6/6/1 7/7/1 8/8/1
f 7/7/1 9/9/1 10/10/1 11/11/1
f 3/3/1 8/8/1 12/12/1 13/13/1
f 4/4/1 14/14/1 15/15/1 16/16/1
f 6/6/1 17/17/1 9/9/1 7/7/1
f 18/18/1 9/9/1 17/17/1 19/19/1
f 18/18/1 19/19/1 20/20/1 21/21/1
f 22/22/1 18/18/1 21/21/1 23/23/1
f 2/2/1 5/5/1 8/8/1 3/3/1
f 1/1/1 4/4/1 16/16/1 24/24/1
