# Blender v2.80 (sub 75) OBJ File: ''
# www.blender.org
mtllib SpeakeasyWalls.mtl
o Plane.019_Plane.000
v 72.078033 2.211099 50.364815
v 72.078033 4.999968 50.364815
v 35.852177 4.999972 43.774529
v 35.840622 4.999976 39.170807
v 35.676392 4.999976 39.006577
v 35.687946 4.999972 43.770847
v 35.852440 4.999968 50.207161
v 35.688210 4.999968 50.371391
v 62.050194 4.999968 50.200584
v 60.268093 4.999976 39.164230
v 62.038376 4.999976 39.164230
v 72.066223 4.999976 39.000000
v 60.268093 4.999976 39.000000
v 60.194004 2.211106 39.000000
v 60.194004 2.211106 39.164230
v 59.081493 2.211106 39.164230
v 59.081493 2.211106 39.000000
v 40.904690 2.211106 39.000000
v 40.904690 2.211106 39.164230
v 39.860920 2.211106 39.164230
v 39.860920 2.211106 39.000000
v 39.765484 4.999976 39.164387
v 39.860920 4.999976 39.164230
v 39.860920 4.999976 39.000000
v 39.761585 4.999976 39.000156
v 40.904690 4.999976 39.164230
v 40.904690 4.999976 39.000000
v 59.003063 4.999976 39.164230
v 59.081493 4.999976 39.164230
v 59.081493 4.999976 39.000000
v 59.003063 4.999976 39.000000
v 60.194004 4.999976 39.164230
v 60.194004 4.999976 39.000000
v 47.075333 4.999968 50.200584
v 47.075333 4.999968 50.364815
v 35.688210 2.211099 50.371391
v 54.687546 2.211099 50.364815
v 54.687546 4.999968 50.364815
v 35.688210 2.211103 43.880085
v 35.852440 2.211103 43.880085
v 35.852440 2.211103 44.887600
v 35.688210 2.211103 44.887600
v 35.852440 4.999972 44.989216
v 35.852440 4.999972 44.887600
v 35.688210 4.999972 44.887600
v 35.688210 4.999972 44.992352
v 35.852440 4.999972 43.880085
v 35.688210 4.999972 43.880085
v 35.852440 1.075259 44.996536
v 35.852440 -0.000028 44.996536
v 35.688210 -0.000028 44.996536
v 35.688210 1.075259 44.996536
v 54.687546 1.075259 50.364815
v 35.688210 1.075259 50.371391
v 72.078033 1.075259 50.364815
v 35.687946 -0.000028 43.784328
v 35.676392 -0.000024 39.006577
v 35.840622 -0.000024 39.170807
v 35.852177 -0.000028 43.784328
v 39.767490 2.211106 39.164387
v 39.767490 2.211106 39.000156
v 59.003063 2.211106 39.164230
v 59.003063 2.211106 39.000000
v 60.268093 -0.000024 39.000000
v 72.066223 -0.000024 39.000000
v 62.038376 -0.000024 39.164230
v 60.268093 -0.000024 39.164230
v 72.078033 -0.000032 50.364815
v 62.050194 -0.000032 50.200584
v 47.075333 -0.000032 50.364815
v 47.075333 -0.000032 50.200584
v 35.688210 -0.000032 50.371391
v 35.852440 -0.000032 50.207161
v 48.788731 -0.000032 50.364815
v 48.788731 -0.000032 50.200584
v 47.075333 1.075259 50.364815
v 47.075333 2.211099 50.364815
v 54.687546 4.999968 50.200584
v 54.687546 -0.000032 50.364815
v 54.687546 -0.000032 50.200584
v 47.075333 -0.000032 51.113510
v 47.075333 1.063610 51.113510
v 52.976963 -0.000032 50.364815
v 54.687546 -0.000032 51.113510
v 52.976963 -0.000032 51.113510
v 52.976963 0.037910 50.200584
v 54.556168 0.037910 50.200584
v 52.976963 -0.000032 50.200584
v 52.976963 1.063610 50.768742
v 54.556168 1.063610 50.768742
v 54.556168 0.037910 50.592072
v 52.935009 0.037910 50.592072
v 48.788731 0.037910 50.200584
v 47.206711 0.037910 50.200584
v 47.206711 0.037910 50.592072
v 48.788731 0.037910 50.592072
v 52.541355 1.063610 50.768742
v 52.508110 0.037910 50.592072
v 52.541355 0.037910 50.200584
v 49.223633 0.037910 50.200584
v 49.223633 0.037910 50.592072
v 48.788731 1.063610 50.768742
v 49.223633 1.063610 50.768742
v 49.223633 -0.000032 50.200584
v 52.541355 -0.000032 50.200584
v 48.788731 -0.000032 51.113510
v 49.223633 -0.000032 50.364815
v 49.223633 -0.000032 51.113510
v 52.541355 -0.000032 50.364815
v 52.541355 -0.000032 51.113510
v 52.976963 1.063610 51.113510
v 52.541355 1.063610 51.113510
v 49.223633 1.063610 51.113510
v 48.788731 1.063610 51.113510
v 47.206711 1.063610 50.768742
v 54.687546 1.063610 51.113510
v 35.688210 2.211103 44.996536
v 35.852440 2.211103 44.996536
v 35.687946 2.211103 43.784328
v 35.852177 2.211103 43.784328
v 41.027431 2.211106 39.164230
v 41.027431 2.211106 39.000000
v 41.027431 -0.000024 39.000000
v 41.027431 -0.000024 39.164230
v 60.268093 1.075259 39.164230
v 60.268093 1.075259 39.000000
v 60.268093 2.211106 39.164230
v 60.268093 2.211106 39.000000
v 59.003063 -0.000024 39.164230
v 59.003063 -0.000024 39.000000
v 39.767490 -0.000024 39.164387
v 39.767490 -0.000024 39.000156
v 41.029198 4.999976 39.164230
v 41.029198 4.999976 39.000000
v 62.050194 1.075259 50.200584
v 35.676392 2.211106 39.006577
v 72.066223 2.211106 39.000000
v 62.038376 1.075259 39.164230
v 35.852440 1.075259 50.207161
v 35.840622 2.211106 39.170807
v 54.687546 1.075259 50.200584
v 62.050194 2.211099 50.200584
v 54.687546 2.211099 50.200584
v 35.852440 2.211099 50.207161
v 62.038376 2.211106 39.164230
v 72.066223 1.075259 39.000000
v 47.075333 2.211099 50.200584
v 47.075333 1.075259 50.200584
v 52.891953 0.978600 50.200584
v 54.641178 0.978600 50.200584
v 49.138622 0.978600 50.200584
v 48.873741 0.978600 50.200584
v 52.626366 0.978600 50.200584
v 47.121700 0.978600 50.200584
v 35.852177 1.075259 43.784328
v 35.687946 1.075259 43.784328
v 39.767490 1.075259 39.164387
v 39.767490 1.075259 39.000156
v 35.840622 1.075259 39.170807
v 35.676392 1.075259 39.006577
v 41.027431 1.075259 39.164230
v 41.027431 1.075259 39.000000
v 59.003063 1.075259 39.164230
v 59.003063 1.075259 39.000000
v 36.005703 -0.000028 44.996536
v 35.994080 -0.000024 39.291824
v 36.005444 -0.000028 43.784328
v 61.905109 -0.000024 39.285358
v 60.268093 -0.000024 39.285358
v 61.916733 -0.000032 50.048504
v 47.122978 -0.000032 50.048504
v 36.005703 -0.000032 50.054974
v 54.609016 -0.000032 50.048504
v 52.926788 0.037910 50.048504
v 54.479816 0.037910 50.048504
v 48.807980 0.037910 50.048504
v 47.252182 0.037910 50.048504
v 52.498402 0.037910 50.048504
v 49.235672 0.037910 50.048504
v 41.027431 -0.000024 39.285358
v 59.003063 -0.000024 39.285358
v 39.767490 -0.000024 39.285511
v 54.609016 1.007367 50.048504
v 54.645401 1.075259 50.118965
v 54.613892 1.041312 50.057941
v 54.627209 1.066163 50.083733
v 47.101383 1.075259 50.117428
v 47.122978 1.007604 50.048504
v 47.112183 1.066199 50.082966
v 47.120087 1.041436 50.057739
v 54.599243 0.978600 50.118568
v 54.556564 0.901463 50.048504
v 54.580414 0.968266 50.083534
v 54.564789 0.940031 50.057888
v 52.849945 0.902520 50.048504
v 52.865574 0.978600 50.118320
v 52.849564 0.940560 50.057858
v 52.855286 0.968407 50.083412
v 49.145931 0.978600 50.117931
v 49.158783 0.903044 50.048504
v 49.149899 0.968477 50.083218
v 49.154602 0.940822 50.057804
v 48.884819 0.902553 50.048504
v 48.883457 0.978600 50.117760
v 48.887112 0.940577 50.057777
v 48.886612 0.968412 50.083130
v 52.602306 0.978600 50.118111
v 52.575287 0.903033 50.048504
v 52.591255 0.968476 50.083305
v 52.581364 0.940817 50.057827
v 47.175430 0.901522 50.048504
v 47.147285 0.978600 50.117584
v 47.169151 0.940061 50.057762
v 47.158848 0.968275 50.083046
vt 0.000000 0.000000
vt 0.000000 0.000000
vt 0.000000 0.000000
vt 0.000000 0.000000
vt 0.000000 0.000000
vt 0.000000 0.000000
vt 0.000000 0.000000
vt 0.000000 0.000000
vt 0.000000 0.000000
vt 0.000000 0.000000
vt 0.000000 0.000000
vt 0.000000 0.000000
vt 0.000000 0.000000
vt 0.000000 0.000000
vt 0.000000 0.000000
vt 0.000000 0.000000
vt 0.000000 0.000000
vt 0.000000 0.000000
vt 0.000000 0.000000
vt 0.000000 0.000000
vt 0.000000 0.000000
vt 0.000000 0.000000
vt 0.000000 0.000000
vt 0.000000 0.000000
vt 0.000000 0.000000
vt 0.000000 0.000000
vt 0.000000 0.000000
vt 0.000000 0.000000
vt 0.000000 0.000000
vt 0.000000 0.000000
vt 0.623289 0.337078
vt 0.617641 0.337065
vt 0.617439 0.336873
vt 0.623285 0.336887
vt 0.631173 0.350160
vt 0.631181 0.337078
vt 0.631383 0.336887
vt 0.631375 0.350160
vt 0.568863 0.433496
vt 0.568863 0.456762
vt 0.547723 0.457131
vt 0.547723 0.433173
vt 0.617633 0.365466
vt 0.617633 0.367600
vt 0.617431 0.367791
vt 0.617431 0.361635
vt 0.510247 0.250070
vt 0.510247 0.250071
vt 0.510245 0.250075
vt 0.510244 0.250075
vt 0.510197 0.250158
vt 0.510197 0.250159
vt 0.510194 0.250162
vt 0.510193 0.250162
vt 0.617633 0.341640
vt 0.617633 0.341751
vt 0.617431 0.341751
vt 0.617431 0.341635
vt 0.617633 0.342967
vt 0.617431 0.342967
vt 0.617633 0.364091
vt 0.617633 0.364154
vt 0.617431 0.364154
vt 0.617431 0.364091
vt 0.617633 0.365450
vt 0.617431 0.365450
vt 0.631173 0.367614
vt 0.631173 0.359032
vt 0.631375 0.359032
vt 0.631375 0.367805
vt 0.539711 0.335176
vt 0.539711 0.299653
vt 0.548878 0.299653
vt 0.548878 0.335176
vt 0.510211 0.250190
vt 0.510211 0.250189
vt 0.510216 0.250189
vt 0.510216 0.250190
vt 0.624780 0.337078
vt 0.624655 0.337078
vt 0.624655 0.336887
vt 0.624784 0.336887
vt 0.623419 0.337078
vt 0.623419 0.336887
vt 0.510815 0.248957
vt 0.510815 0.249047
vt 0.510227 0.250187
vt 0.510777 0.250156
vt 0.557788 0.347398
vt 0.557788 0.323916
vt 0.561560 0.323916
vt 0.561560 0.347397
vt 0.535939 0.335176
vt 0.535939 0.299653
vt 0.510201 0.250191
vt 0.510180 0.250187
vt 0.510181 0.250187
vt 0.510201 0.250190
vt 0.523129 0.233725
vt 0.523257 0.233725
vt 0.497530 0.254622
vt 0.497625 0.254622
vt 0.516098 0.254622
vt 0.497438 0.233725
vt 0.497542 0.233725
vt 0.516023 0.254622
vt 0.510252 0.250063
vt 0.510289 0.250030
vt 0.510258 0.250059
vt 0.510253 0.250064
vt 0.510323 0.250061
vt 0.510296 0.250094
vt 0.510279 0.250119
vt 0.510279 0.250118
vt 0.510266 0.250146
vt 0.510251 0.250191
vt 0.510251 0.250190
vt 0.510265 0.250146
vt 0.510269 0.250140
vt 0.510268 0.250139
vt 0.570727 0.323916
vt 0.570727 0.347397
vt 0.518582 0.355449
vt 0.518582 0.352131
vt 0.521036 0.352131
vt 0.538877 0.326535
vt 0.583425 0.214803
vt 0.584019 0.209129
vt 0.586633 0.209375
vt 0.586039 0.215049
vt 0.574874 0.396781
vt 0.574874 0.403758
vt 0.574697 0.404338
vt 0.574697 0.396781
vt 0.597828 0.394714
vt 0.597828 0.401690
vt 0.593052 0.401690
vt 0.593052 0.394528
vt 0.502991 0.461176
vt 0.502991 0.468165
vt 0.501171 0.468165
vt 0.501171 0.461176
vt 0.504862 0.458100
vt 0.504862 0.451124
vt 0.506683 0.450939
vt 0.506683 0.458100
vt 0.492309 0.429218
vt 0.487523 0.429364
vt 0.487523 0.427479
vt 0.492309 0.427293
vt 0.491167 0.457994
vt 0.491167 0.472651
vt 0.489347 0.472651
vt 0.489347 0.458141
vt 0.492309 0.445795
vt 0.487523 0.445795
vt 0.487523 0.443874
vt 0.492309 0.443874
vt 0.574874 0.371290
vt 0.574874 0.378279
vt 0.574697 0.378279
vt 0.574697 0.370710
vt 0.574874 0.380200
vt 0.574697 0.380200
vt 0.574874 0.394857
vt 0.574697 0.394857
vt 0.581376 0.234380
vt 0.581971 0.228696
vt 0.584584 0.228942
vt 0.583989 0.234626
vt 0.582122 0.227253
vt 0.584735 0.227500
vt 0.583274 0.216248
vt 0.585887 0.216494
vt 0.510276 0.250125
vt 0.510275 0.250125
vt 0.510275 0.250126
vt 0.510275 0.250126
vt 0.510269 0.250138
vt 0.510269 0.250138
vt 0.518055 0.312499
vt 0.518055 0.313858
vt 0.514559 0.313858
vt 0.514559 0.312499
vt 0.518055 0.302149
vt 0.514559 0.302149
vt 0.518055 0.300792
vt 0.514559 0.300792
vt 0.518055 0.295447
vt 0.514559 0.295447
vt 0.487523 0.452784
vt 0.492309 0.452784
vt 0.518055 0.319194
vt 0.514559 0.319194
vt 0.573087 0.270740
vt 0.573087 0.267422
vt 0.575541 0.267422
vt 0.575541 0.270740
vt 0.532443 0.299653
vt 0.532443 0.335176
vt 0.554292 0.323916
vt 0.554292 0.347398
vt 0.510777 0.250071
vt 0.510815 0.248861
vt 0.510859 0.250071
vt 0.510867 0.250071
vt 0.510712 0.248861
vt 0.510721 0.248861
vt 0.510712 0.248954
vt 0.510534 0.250131
vt 0.510712 0.249047
vt 0.510227 0.250186
vt 0.510806 0.248861
vt 0.510784 0.250071
vt 0.521568 0.235202
vt 0.504477 0.252385
vt 0.510206 0.250149
vt 0.521568 0.236680
vt 0.495933 0.235259
vt 0.517250 0.255725
vt 0.495933 0.236680
vt 0.495933 0.233725
vt 0.517250 0.254622
vt 0.497542 0.235202
vt 0.497542 0.236680
vt 0.510243 0.250085
vt 0.513133 0.252353
vt 0.510244 0.250085
vt 0.510207 0.250150
vt 0.523257 0.235202
vt 0.523257 0.236680
vt 0.510186 0.250170
vt 0.503858 0.252396
vt 0.510185 0.250174
vt 0.498628 0.254622
vt 0.498748 0.254622
vt 0.521568 0.233725
vt 0.521734 0.233725
vt 0.617633 0.343112
vt 0.617431 0.343112
vt 0.495951 0.233725
vt 0.517167 0.254622
vt 0.574874 0.394857
vt 0.574874 0.396781
vt 0.574874 0.380200
vt 0.510279 0.250118
vt 0.510296 0.250094
vt 0.510244 0.250085
vt 0.510207 0.250150
vt 0.574874 0.403758
vt 0.574697 0.404338
vt 0.504862 0.451124
vt 0.504862 0.458100
vt 0.510258 0.250059
vt 0.574874 0.378279
vt 0.510251 0.250190
vt 0.510265 0.250146
vt 0.510253 0.250064
vt 0.574874 0.371290
vt 0.510185 0.250174
vt 0.510181 0.250187
vt 0.510227 0.250186
vt 0.510201 0.250190
vt 0.574697 0.370710
vt 0.865426 0.094049
vt 0.971685 0.094049
vt 0.971685 0.166590
vt 0.865426 0.166590
vt 0.241212 0.257875
vt 0.442541 0.257875
vt 0.442541 0.362257
vt 0.241212 0.362257
vt 0.331725 0.094049
vt 0.333961 0.094049
vt 0.333961 0.166590
vt 0.331725 0.166590
vt 0.362899 0.094049
vt 0.362899 0.166590
vt 0.832453 0.094049
vt 0.835692 0.094049
vt 0.835692 0.166590
vt 0.832453 0.166590
vt 0.862842 0.094049
vt 0.862842 0.166590
vt 0.526828 0.381424
vt 0.526828 0.416774
vt 0.517660 0.416774
vt 0.517660 0.381424
vt 0.195493 0.257875
vt 0.199582 0.257875
vt 0.199582 0.362257
vt 0.195493 0.362257
vt 0.237291 0.257875
vt 0.237291 0.362257
vt 0.993988 0.989812
vt 0.521633 0.989812
vt 0.521633 0.870449
vt 0.993988 0.870449
vt 0.269320 0.990873
vt 0.226236 0.990873
vt 0.226236 0.871612
vt 0.269320 0.871612
vt 0.273834 0.990873
vt 0.273834 0.871612
vt 0.708193 0.376177
vt 0.973469 0.376177
vt 0.973469 0.476660
vt 0.708193 0.476660
vt 0.029566 0.376177
vt 0.433926 0.376178
vt 0.433926 0.476660
vt 0.029565 0.476660
vt 0.210353 0.760512
vt 0.172594 0.760512
vt 0.172594 0.659623
vt 0.210353 0.659623
vt 0.214857 0.760512
vt 0.214857 0.659623
vt 0.908159 0.760512
vt 0.867913 0.760512
vt 0.867913 0.659623
vt 0.908159 0.659623
vt 0.908642 0.760512
vt 0.908642 0.659623
vt 0.169142 0.760512
vt 0.027157 0.760512
vt 0.027157 0.659623
vt 0.169142 0.659623
vt 0.221891 0.990873
vt -0.001246 0.990873
vt -0.001246 0.871612
vt 0.221891 0.871612
vt 0.530600 0.381424
vt 0.530600 0.416774
vt 0.241212 0.214926
vt 0.442541 0.214926
vt 0.865426 0.065292
vt 0.971685 0.065292
vt 0.435847 0.523844
vt 0.498474 0.523807
vt 0.495659 0.554960
vt 0.438659 0.554960
vt 0.703460 0.554960
vt 0.646561 0.554960
vt 0.643746 0.523808
vt 0.706272 0.523846
vt 0.433926 0.518004
vt 0.029565 0.518004
vt 0.534097 0.416775
vt 0.534097 0.381424
vt 0.241212 0.175115
vt 0.442541 0.175116
vt 0.521633 0.821337
vt 0.993988 0.821337
vt 0.973470 0.518004
vt 0.708194 0.518004
vt -0.001246 0.822542
vt 0.221891 0.822542
vt 0.017174 0.216495
vt 0.195493 0.216495
vt 0.017174 0.257875
vt 0.470705 0.990873
vt 0.470705 0.871612
vt 0.017174 0.362257
vt 0.865089 0.760512
vt 0.865089 0.659623
vt 0.364930 0.094049
vt 0.364930 0.166590
vt 0.364930 0.065292
vt 0.832453 0.065292
vt 0.974880 0.659623
vt 0.908642 0.618111
vt 0.974880 0.618111
vt 0.025155 0.036536
vt 0.331725 0.036535
vt 0.331725 0.064202
vt 0.025155 0.064202
vt 0.025155 0.094049
vt 0.974880 0.760512
vt 0.025155 0.166590
vt 0.273834 0.824335
vt 0.470705 0.824335
vt 0.017174 0.175115
vt 0.195493 0.175116
vt 0.865426 0.036535
vt 0.971685 0.036535
vt 0.027157 0.619628
vt 0.169142 0.619628
vt 0.214857 0.619628
vt 0.865089 0.619628
vt 0.364930 0.036535
vt 0.832453 0.036535
vt 0.630866 0.554960
vt 0.511329 0.554960
vt 0.508512 0.523789
vt 0.633683 0.523790
vt 0.708194 0.520424
vt 0.708194 0.556327
vt 0.433926 0.556327
vt 0.433926 0.520415
vt 0.643732 0.522438
vt 0.706573 0.522457
vt 0.498558 0.522437
vt 0.508359 0.522428
vt 0.498722 0.521067
vt 0.508186 0.521067
vt 0.633906 0.522428
vt 0.634268 0.521067
vt 0.643498 0.521067
vt 0.435617 0.522456
vt 0.435596 0.521067
vt 0.498540 0.521067
vt 0.708373 0.519254
vt 0.706523 0.521067
vt 0.708187 0.518017
vt 0.433820 0.519233
vn 0.0000 1.0000 -0.0000
vn -0.8187 0.3910 0.4206
vn 0.8689 0.4149 0.2700
vn 0.0001 0.9595 -0.2816
vn 0.0002 0.6742 -0.7385
vn 0.0000 0.9597 -0.2811
vn 0.0000 0.9601 -0.2796
vn 0.0000 0.6771 -0.7359
vn 0.0003 0.9600 -0.2799
vn -0.0000 0.9587 -0.2843
vn -0.8503 0.4052 0.3359
vn 0.8899 0.4236 0.1694
vn 0.8940 0.4293 -0.1281
vn 0.0000 -1.0000 0.0000
vn 0.0006 0.0000 1.0000
vn 0.0000 0.0000 -1.0000
vn 0.0000 0.0000 1.0000
vn 0.7071 -0.7071 0.0000
vn -1.0000 0.0000 0.0000
vn 0.0000 -0.7071 -0.7071
vn -0.1392 -0.7536 -0.6424
vn -0.0987 -0.9943 -0.0397
vn 0.0000 0.1697 -0.9855
vn 0.0000 -0.1697 0.9855
vn 0.1254 -0.7425 -0.6580
vn 0.1141 -0.9919 -0.0551
vn 1.0000 0.0000 0.0000
vn -0.7071 -0.7071 0.0000
vn -0.1818 -0.9790 0.0926
vn -0.0997 -0.9937 0.0508
vn 0.1675 -0.9845 0.0513
vn 0.1154 -0.9927 0.0353
vn -0.0016 -0.0000 -1.0000
vn -0.0008 -0.0000 -1.0000
vn 1.0000 0.0000 -0.0010
vn -1.0000 0.0000 0.0025
vn -1.0000 0.0000 0.0013
vn -1.0000 0.0000 0.0011
vn 1.0000 -0.0000 -0.0013
vn 1.0000 -0.0000 -0.0026
vn 1.0000 -0.0000 -0.0025
vn -0.0006 0.0000 -1.0000
vn 0.0008 0.0000 1.0000
vn 0.0016 0.0000 1.0000
vn 0.0333 0.0813 -0.9961
vn -0.0001 0.1191 -0.9929
vn 0.0001 0.1200 -0.9928
vn -0.0333 0.0838 -0.9959
vn -1.0000 0.0000 0.0024
vn -0.0001 0.1203 -0.9927
vn 0.0001 0.1206 -0.9927
vn -0.5423 0.2661 -0.7969
vn 0.4867 0.2381 -0.8405
vn 0.0004 0.4051 -0.9143
vn -0.5375 0.3376 -0.7727
vn -0.0002 0.4692 -0.8831
vn -0.0002 0.3866 -0.9222
vn -0.0002 0.6727 -0.7400
vn -0.0002 0.6750 -0.7378
vn 0.0003 0.3781 -0.9258
vn 0.0006 0.6767 -0.7362
vn 0.2721 0.4099 -0.8706
vn -0.0001 0.6704 -0.7420
vn -0.8992 0.4337 -0.0578
vn -0.8995 0.4330 0.0592
vn 0.5545 0.2713 -0.7867
usemtl Material.003
s off
f 153/1/1 149/2/1 196/3/1 207/4/1
f 151/5/1 153/1/1 207/4/1 199/6/1
f 154/7/1 152/8/1 204/9/1 212/10/1
f 150/11/2 141/12/2 184/13/2 191/14/2
f 148/15/3 154/7/3 212/10/3 187/16/3
f 152/8/1 151/5/1 199/6/1 204/9/1
f 149/2/1 150/11/1 191/14/1 196/3/1
f 196/3/4 191/14/4 193/17/4 198/18/4
f 198/18/5 193/17/5 194/19/5 197/20/5
f 201/21/6 206/22/6 204/9/6 199/6/6
f 199/6/7 207/4/7 209/23/7 201/21/7
f 201/21/8 209/23/8 210/24/8 202/25/8
f 198/18/9 209/23/9 207/4/9 196/3/9
f 206/22/10 214/26/10 212/10/10 204/9/10
f 186/27/11 193/17/11 191/14/11 184/13/11
f 187/16/12 212/10/12 214/26/12 189/28/12
f 189/28/13 214/26/13 213/29/13 190/30/13
s 1
f 3/31/1 4/32/1 5/33/1 6/34/1
f 34/35/1 7/36/1 8/37/1 35/38/1
f 11/39/1 9/40/1 2/41/1 12/42/1
f 10/43/1 11/44/1 12/45/1 13/46/1
f 14/47/14 15/48/14 16/49/14 17/50/14
f 18/51/14 19/52/14 20/53/14 21/54/14
f 22/55/1 23/56/1 24/57/1 25/58/1
f 23/56/1 26/59/1 27/60/1 24/57/1
f 28/61/1 29/62/1 30/63/1 31/64/1
f 29/62/1 32/65/1 33/66/1 30/63/1
f 9/67/1 78/68/1 38/69/1 2/70/1
f 36/71/15 77/72/15 35/73/15 8/74/15
f 39/75/14 40/76/14 41/77/14 42/78/14
f 43/79/1 44/80/1 45/81/1 46/82/1
f 44/80/1 47/83/1 48/84/1 45/81/1
f 49/85/16 50/86/16 51/87/16 52/88/16
f 53/89/17 55/90/17 1/91/17 37/92/17
f 54/93/15 76/94/15 77/72/15 36/71/15
f 56/95/14 57/96/14 58/97/14 59/98/14
f 20/99/14 60/100/14 61/101/14 21/102/14
f 17/103/14 16/104/14 62/105/18 63/106/18
f 64/107/14 65/108/14 66/109/14 67/110/14
f 65/108/14 68/111/14 69/112/14 66/109/14
f 68/111/14 79/113/14 80/114/14 69/112/14
f 70/115/14 72/116/14 73/117/14 71/118/14
f 74/119/14 70/115/14 71/118/14 75/120/14
f 37/92/17 1/91/17 2/121/17 38/122/17
f 76/123/19 70/124/19 81/125/19 82/126/19
f 83/127/14 79/128/14 84/129/14 85/130/14
f 86/131/20 87/132/21 80/133/22 88/134/16
f 89/135/23 90/136/23 91/137/23 92/138/23
f 93/139/1 94/140/1 95/141/1 96/142/1
f 87/143/1 86/144/1 92/145/1 91/146/1
f 97/147/24 98/148/24 92/149/24 89/150/24
f 99/151/1 100/152/1 101/153/1 98/154/1
f 102/155/24 96/156/24 101/157/24 103/158/24
f 94/159/25 93/160/20 75/161/16 71/162/26
f 93/160/20 100/163/20 104/164/16 75/161/16
f 100/163/20 99/165/20 105/166/16 104/164/16
f 99/165/20 86/131/20 88/134/16 105/166/16
f 70/167/14 74/168/14 106/169/14 81/170/14
f 74/168/14 107/171/14 108/172/14 106/169/14
f 107/171/14 109/173/14 110/174/14 108/172/14
f 109/173/14 83/127/14 85/130/14 110/174/14
f 79/113/14 83/175/14 88/176/14 80/114/14
f 83/175/14 109/177/14 105/178/14 88/176/14
f 109/177/14 107/179/14 104/180/14 105/178/14
f 107/179/14 74/119/14 75/120/14 104/180/14
f 110/181/17 85/182/17 111/183/17 112/184/17
f 108/185/17 110/181/17 112/184/17 113/186/17
f 106/187/17 108/185/17 113/186/17 114/188/17
f 81/189/17 106/187/17 114/188/17 82/190/17
f 95/191/24 96/156/24 102/155/24 115/192/24
f 85/182/17 84/193/17 116/194/17 111/183/17
f 79/195/27 53/196/27 116/197/27 84/198/27
f 70/199/15 76/94/15 54/93/15 72/200/15
f 68/201/17 55/90/17 53/89/17 79/202/17
f 97/147/24 103/158/24 101/157/24 98/148/24
f 49/85/16 52/88/16 117/203/16 118/204/16
f 39/205/14 119/206/14 120/207/14 40/208/14
f 155/209/17 156/210/17 56/95/17 59/211/17
f 72/116/14 51/87/14 50/212/14 73/117/14
f 7/36/1 43/79/1 46/82/1 8/37/1
f 41/213/14 118/204/14 117/203/14 42/214/14
f 47/83/1 3/31/1 6/34/1 48/84/1
f 161/215/19 162/216/19 123/217/19 124/218/19
f 125/219/19 126/220/19 64/107/19 67/221/19
f 125/219/19 127/222/28 128/223/28 126/220/19
f 163/224/27 129/225/27 130/226/27 164/227/27
f 123/217/14 130/226/14 129/228/14 124/229/14
f 157/230/27 131/231/27 132/232/27 158/233/27
f 57/96/14 132/232/14 131/234/14 58/97/14
f 4/32/1 22/55/1 25/58/1 5/33/1
f 18/235/14 122/236/14 121/237/14 19/238/14
f 26/59/1 133/239/1 134/240/1 27/60/1
f 15/241/14 14/242/14 128/223/28 127/222/28
f 32/65/1 10/43/1 13/46/1 33/66/1
f 133/239/1 28/61/1 31/64/1 134/240/1
f 86/131/20 99/165/20 178/243/14 174/244/14
f 99/165/20 100/163/20 179/245/14 178/243/14
f 69/112/14 80/114/22 173/246/29 170/247/14
f 124/229/14 129/228/14 181/248/14 180/249/14
f 80/133/22 87/132/21 175/250/30 173/251/29
f 87/143/21 86/144/20 174/252/14 175/253/30
f 66/109/14 69/112/14 170/247/14 168/254/14
f 100/163/20 93/160/20 176/255/14 179/245/14
f 60/100/27 157/230/27 158/233/27 61/101/27
f 120/207/17 119/206/17 156/210/17 155/209/17
f 62/105/18 163/224/27 164/227/27 63/106/18
f 121/237/19 122/236/19 162/216/19 161/215/19
f 71/118/26 73/117/14 172/256/14 171/257/31
f 67/110/14 66/109/14 168/254/14 169/258/14
f 93/160/20 94/159/25 177/259/32 176/255/14
f 58/97/14 131/234/14 182/260/14 166/261/14
f 73/117/14 50/212/14 165/262/14 172/256/14
f 59/98/14 58/97/14 166/261/14 167/263/14
f 94/159/25 71/162/26 171/264/31 177/259/32
usemtl Material.004
f 61/265/33 136/266/33 5/267/33 25/268/33
f 117/269/19 36/270/19 8/271/19 46/272/19
f 128/273/16 14/274/16 33/275/16 13/276/16
f 14/274/16 17/277/16 30/278/16 33/275/16
f 122/279/16 18/280/16 27/281/16 134/282/16
f 18/280/16 21/283/34 24/284/34 27/281/16
f 1/285/35 137/286/35 12/287/35 2/288/35
f 119/289/36 39/290/37 48/291/37 6/292/36
f 39/290/37 42/293/19 45/294/19 48/291/37
f 9/295/38 11/296/38 145/297/38 142/298/38
f 47/299/39 44/300/27 41/301/27 40/302/39
f 3/303/40 47/299/39 40/302/39 120/304/41
f 78/305/16 9/306/16 142/307/16 143/308/16
f 7/309/42 34/310/42 147/311/42 144/312/42
f 26/313/17 23/314/43 20/315/43 19/316/17
f 133/317/17 26/313/17 19/316/17 121/318/17
f 32/319/17 29/320/17 16/321/17 15/322/17
f 10/323/17 32/319/17 15/322/17 127/324/17
f 22/325/44 4/326/44 140/327/44 60/328/44
f 43/329/27 7/330/27 144/331/27 118/332/27
f 55/333/35 146/334/35 137/286/35 1/285/35
f 52/335/19 54/336/19 36/270/19 117/269/19
f 158/337/33 160/338/33 136/266/33 61/265/33
f 211/339/45 203/340/46 176/341/16 177/342/16
f 175/343/16 174/344/16 195/345/47 192/346/48
f 144/312/42 147/311/42 148/347/42 139/348/42
f 65/349/35 146/334/35 55/333/35 68/350/35
f 51/351/19 72/352/19 54/336/19 52/335/19
f 142/298/38 145/297/38 138/353/38 135/354/38
f 143/308/16 142/307/16 135/355/16 141/356/16
f 118/332/27 144/331/27 139/357/27 49/358/27
f 44/300/27 43/329/27 118/332/27 41/301/27
f 42/293/19 117/269/19 46/272/19 45/294/19
f 160/359/49 156/360/49 119/289/36 136/361/49
f 4/362/41 3/303/40 120/304/41 140/363/41
f 136/361/49 119/289/36 6/292/36 5/364/49
f 29/320/17 28/365/17 62/366/17 16/321/17
f 17/277/16 63/367/16 31/368/16 30/278/16
f 164/369/16 162/370/16 122/279/16 63/367/16
f 23/314/43 22/325/44 60/328/44 20/315/43
f 21/283/34 61/265/33 25/268/33 24/284/34
f 28/365/17 133/317/17 121/318/17 62/366/17
f 63/367/16 122/279/16 134/282/16 31/368/16
f 145/371/17 127/324/17 125/372/17 138/373/17
f 65/374/16 64/375/16 126/376/16 146/377/16
f 146/377/16 126/376/16 128/273/16 137/378/16
f 11/379/17 10/323/17 127/324/17 145/371/17
f 137/378/16 128/273/16 13/276/16 12/380/16
f 140/363/41 120/304/41 155/381/41 159/382/41
f 57/383/49 56/384/49 156/360/49 160/359/49
f 132/385/33 57/386/33 160/338/33 158/337/33
f 60/328/44 140/327/44 159/387/44 157/388/44
f 62/366/17 121/318/17 161/389/17 163/390/17
f 130/391/16 123/392/16 162/370/16 164/369/16
f 178/393/16 179/394/16 200/395/50 208/396/51
f 200/395/50 179/394/16 176/341/16 203/340/46
f 175/343/16 192/346/48 183/397/52 173/398/16
f 195/345/47 174/344/16 178/393/16 208/396/51
f 211/339/45 177/342/16 171/399/16 188/400/53
f 197/401/54 194/402/55 192/346/48 195/345/47
f 200/395/50 203/340/46 205/403/56 202/404/57
f 202/404/57 205/403/56 206/405/58 201/406/59
f 202/404/57 210/407/60 208/396/51 200/395/50
f 195/345/47 208/396/51 210/407/60 197/401/54
f 197/401/54 210/407/60 209/408/61 198/409/61
f 203/340/46 211/339/45 213/410/62 205/403/56
f 205/403/56 213/410/62 214/411/63 206/412/58
f 183/397/52 192/346/48 194/402/55 185/413/64
f 185/413/64 194/402/55 193/414/65 186/415/65
f 190/416/66 213/410/62 211/339/45 188/400/53
