# Blender v2.80 (sub 75) OBJ File: ''
# www.blender.org
mtllib SpeakeasyWalls.mtl
o Plane.019_Plane.021
v 60.205822 2.211115 50.364815
v 72.078033 2.211115 50.364815
v 72.078033 4.999984 50.364815
v 60.205822 4.999984 50.364815
v 35.852440 4.999986 43.880085
v 35.840622 4.999988 39.170807
v 35.676392 4.999988 39.006577
v 35.688210 4.999986 43.880085
v 39.872738 4.999984 50.200584
v 35.852440 4.999984 50.207161
v 35.688210 4.999984 50.371391
v 39.872738 4.999984 50.364815
v 62.050194 4.999986 44.881023
v 62.050194 4.999984 50.200584
v 72.078033 4.999986 44.881023
v 60.194004 4.999988 39.164230
v 62.038376 4.999988 39.164230
v 72.066223 4.999988 39.000000
v 60.194004 4.999988 39.000000
v 60.194004 2.211118 39.000000
v 60.194004 2.211118 39.164230
v 59.081493 2.211118 39.164230
v 59.081493 2.211118 39.000000
v 40.904690 2.211118 39.000000
v 40.904690 2.211118 39.164230
v 39.860920 2.211118 39.164230
v 39.860920 2.211118 39.000000
v 39.860920 4.999988 39.164230
v 39.860920 4.999988 39.000000
v 40.904690 4.999988 39.164230
v 40.904690 4.999988 39.000000
v 59.081493 4.999988 39.164230
v 59.081493 4.999988 39.000000
v 60.205822 4.999984 50.200584
v 59.093311 4.999984 50.200584
v 59.093311 4.999984 50.364815
v 47.075333 4.999984 50.200584
v 40.916508 4.999984 50.200584
v 40.916508 4.999984 50.364815
v 47.075333 4.999984 50.364815
v 35.688210 2.211115 50.371391
v 39.872738 2.211115 50.364815
v 40.916508 2.211115 50.364815
v 54.687546 2.211115 50.364815
v 59.093311 2.211115 50.364815
v 54.687546 4.999984 50.364815
v 35.688210 2.211117 43.880085
v 35.852440 2.211117 43.880085
v 35.852440 2.211117 44.887600
v 35.688210 2.211117 44.887600
v 59.081493 -0.000012 39.164230
v 59.081493 -0.000012 39.000000
v 62.050194 4.999986 43.873508
v 72.078033 4.999986 43.873508
v 35.852440 4.999986 44.887600
v 35.688210 4.999986 44.887600
v 39.860920 -0.000012 39.164230
v 39.860920 -0.000012 39.000000
v 40.904690 -0.000012 39.000000
v 40.904690 -0.000012 39.164230
v 60.194004 1.063630 39.000000
v 60.194004 1.063630 39.164230
v 59.093311 1.063626 50.364815
v 60.205822 1.063626 50.364815
v 54.687546 1.063626 50.364815
v 39.872738 1.063626 50.364815
v 40.916508 1.063626 50.364815
v 35.688210 1.063626 50.371391
v 72.078033 1.063626 50.364815
v 35.676392 -0.000012 39.006577
v 35.840622 -0.000012 39.170807
v 60.194004 -0.000012 39.000000
v 72.066223 -0.000012 39.000000
v 62.038376 -0.000012 39.164230
v 60.194004 -0.000012 39.164230
v 72.078033 -0.000014 43.873508
v 62.050194 -0.000014 43.873508
v 72.078033 -0.000014 44.881023
v 62.050194 -0.000014 44.881023
v 72.078033 -0.000016 50.364815
v 62.050194 -0.000016 50.200584
v 60.205822 -0.000016 50.364815
v 60.205822 -0.000016 50.200584
v 59.093311 -0.000016 50.364815
v 59.093311 -0.000016 50.200584
v 47.075333 -0.000016 50.364815
v 40.916508 -0.000016 50.364815
v 40.916508 -0.000016 50.200584
v 47.075333 -0.000016 50.200584
v 39.872738 -0.000016 50.364815
v 39.872738 -0.000016 50.200584
v 35.688210 -0.000016 50.371391
v 35.852440 -0.000016 50.207161
v 48.788731 -0.000016 50.364815
v 48.788731 -0.000016 50.200584
v 47.075333 1.063626 50.364815
v 47.075333 2.211115 50.364815
v 54.687546 4.999984 50.200584
v 54.687546 -0.000016 50.364815
v 54.687546 -0.000016 50.200584
v 47.075333 -0.000016 51.113510
v 47.075333 1.063626 51.113510
v 54.556168 1.063626 50.768742
v 54.687546 2.211115 50.200584
v 54.687546 1.063626 51.113510
v 52.976963 1.063626 51.113510
v 52.976963 -0.000016 50.364815
v 54.687546 -0.000016 51.113510
v 52.976963 -0.000016 51.113510
v 47.206711 1.063626 50.768742
v 48.788731 1.063626 50.768742
v 47.121700 0.978616 50.200584
v 47.075333 1.063626 50.200584
v 47.075333 2.211115 50.200584
v 52.976963 0.037926 50.200584
v 54.556168 0.037926 50.200584
v 52.976963 -0.000016 50.200584
v 49.138622 0.978616 50.200584
v 48.873741 0.978616 50.200584
v 52.976963 1.063626 50.768742
v 54.556168 0.037926 50.592072
v 52.935009 0.037926 50.592072
v 48.788731 0.037926 50.200584
v 47.206711 0.037926 50.200584
v 47.206711 0.037926 50.592072
v 48.788731 0.037926 50.592072
v 52.541355 1.063626 50.768742
v 52.508110 0.037926 50.592072
v 52.541355 0.037926 50.200584
v 49.223633 0.037926 50.200584
v 49.223633 0.037926 50.592072
v 49.223633 1.063626 50.768742
v 49.223633 -0.000016 50.200584
v 52.541355 -0.000016 50.200584
v 48.788731 -0.000016 51.113510
v 49.223633 -0.000016 50.364815
v 49.223633 -0.000016 51.113510
v 52.541355 -0.000016 50.364815
v 52.541355 -0.000016 51.113510
v 48.788731 1.063626 51.113510
v 49.223633 1.063626 51.113510
v 52.541355 1.063626 51.113510
v 54.641178 0.978616 50.200584
v 54.687546 1.063626 50.200584
v 52.891953 0.978616 50.200584
v 52.626366 0.978616 50.200584
v 60.205822 1.063626 50.200584
v 62.050194 1.063626 50.200584
v 35.676392 2.211118 39.006577
v 72.078033 2.211117 43.873508
v 72.066223 2.211118 39.000000
v 62.050194 1.063628 43.873508
v 62.038376 1.063630 39.164230
v 35.852440 1.063626 50.207161
v 35.840622 2.211118 39.170807
v 39.872738 1.063626 50.200584
v 40.916508 1.063626 50.200584
v 59.093311 1.063626 50.200584
v 62.050194 1.063628 44.881023
v 72.078033 2.211117 44.881023
v 62.050194 2.211117 43.873508
v 62.050194 2.211117 44.881023
v 62.050194 2.211115 50.200584
v 60.205822 2.211115 50.200584
v 59.093311 2.211115 50.200584
v 40.916508 2.211115 50.200584
v 39.872738 2.211115 50.200584
v 35.852440 2.211115 50.207161
v 62.038376 2.211118 39.164230
v 72.078033 1.063628 44.881023
v 72.078033 1.063628 43.873508
v 72.066223 1.063630 39.000000
v 35.852440 4.999986 44.989216
v 35.688210 4.999986 44.992352
v 35.688210 -0.000014 44.992352
v 35.852440 -0.000014 44.989216
v 35.688210 2.211117 44.992352
v 35.852440 1.063628 44.989216
v 35.852440 2.211117 44.989216
v 35.688210 1.063628 44.992352
v 35.852177 4.999986 43.774529
v 35.687946 4.999986 43.770847
v 35.687946 -0.000014 43.770847
v 35.852177 -0.000014 43.774529
v 35.852177 2.211117 43.774529
v 35.687946 2.211117 43.770847
vt 0.561560 0.330182
vt 0.561560 0.323916
vt 0.570727 0.323916
vt 0.570727 0.330182
vt 0.623289 0.337078
vt 0.617641 0.337065
vt 0.617439 0.336873
vt 0.623285 0.336887
vt 0.631173 0.341764
vt 0.631181 0.337078
vt 0.631383 0.336887
vt 0.631375 0.341764
vt 0.568851 0.445548
vt 0.568863 0.456762
vt 0.547723 0.457131
vt 0.547711 0.445570
vt 0.617633 0.365450
vt 0.617633 0.367600
vt 0.617431 0.367791
vt 0.617431 0.365450
vt 0.521258 0.217244
vt 0.521243 0.217234
vt 0.521301 0.217128
vt 0.521320 0.217134
vt 0.522609 0.214875
vt 0.522594 0.214859
vt 0.522684 0.214757
vt 0.522700 0.214772
vt 0.617633 0.341751
vt 0.617431 0.341751
vt 0.617633 0.342967
vt 0.617431 0.342967
vt 0.617633 0.364154
vt 0.617431 0.364154
vt 0.631173 0.367614
vt 0.631173 0.365464
vt 0.631375 0.365464
vt 0.631375 0.367805
vt 0.631173 0.364167
vt 0.631375 0.364167
vt 0.631173 0.350160
vt 0.631173 0.342981
vt 0.631375 0.342981
vt 0.631375 0.350160
vt 0.539711 0.335176
vt 0.539711 0.322122
vt 0.548878 0.322122
vt 0.548878 0.335176
vt 0.539711 0.318866
vt 0.548878 0.318866
vt 0.561560 0.347397
vt 0.561560 0.333653
vt 0.570727 0.333653
vt 0.570727 0.347397
vt 0.522208 0.214021
vt 0.522209 0.214044
vt 0.522083 0.214027
vt 0.522081 0.214007
vt 0.521327 0.216855
vt 0.521352 0.216863
vt 0.568863 0.433496
vt 0.568849 0.443424
vt 0.547709 0.443447
vt 0.547723 0.433173
vt 0.624780 0.337078
vt 0.624655 0.337078
vt 0.624655 0.336887
vt 0.624784 0.336887
vt 0.623419 0.337078
vt 0.623419 0.336887
vt 0.522888 0.214546
vt 0.522906 0.214557
vt 0.505880 0.247370
vt 0.505880 0.244942
vt 0.521794 0.214096
vt 0.506912 0.214938
vt 0.522362 0.215103
vt 0.522338 0.215086
vt 0.521180 0.217348
vt 0.521165 0.217336
vt 0.557788 0.333653
vt 0.557788 0.330182
vt 0.557788 0.347398
vt 0.535939 0.322122
vt 0.535939 0.318866
vt 0.535939 0.335176
vt 0.557788 0.323916
vt 0.522495 0.213977
vt 0.523058 0.214077
vt 0.523032 0.214093
vt 0.522494 0.213997
vt 0.521104 0.217439
vt 0.520104 0.218337
vt 0.520936 0.217564
vt 0.521091 0.217426
vt 0.519738 0.217951
vt 0.520549 0.217050
vt 0.519659 0.217880
vt 0.520452 0.216984
vt 0.519200 0.217492
vt 0.519928 0.216616
vt 0.520045 0.216439
vt 0.520060 0.216450
vt 0.520117 0.216338
vt 0.520132 0.216348
vt 0.520735 0.215196
vt 0.520983 0.214556
vt 0.521000 0.214562
vt 0.520752 0.215203
vt 0.521020 0.214444
vt 0.521038 0.214449
vt 0.521126 0.213982
vt 0.521140 0.214005
vt 0.520659 0.215367
vt 0.520675 0.215375
vt 0.535939 0.299653
vt 0.539711 0.299653
vt 0.548878 0.299653
vt 0.631173 0.359032
vt 0.631375 0.359032
vt 0.520375 0.215935
vt 0.520391 0.215944
vt 0.518582 0.355449
vt 0.518582 0.352131
vt 0.521036 0.352131
vt 0.538877 0.326535
vt 0.583425 0.214803
vt 0.584019 0.209129
vt 0.586633 0.209375
vt 0.586039 0.215049
vt 0.574874 0.396781
vt 0.574874 0.403758
vt 0.574697 0.404338
vt 0.574697 0.396781
vt 0.597828 0.394714
vt 0.597828 0.401690
vt 0.593052 0.401690
vt 0.593052 0.394528
vt 0.502991 0.461176
vt 0.502991 0.468165
vt 0.501171 0.468165
vt 0.501171 0.461176
vt 0.504862 0.458100
vt 0.504862 0.451124
vt 0.506683 0.450939
vt 0.506683 0.458100
vt 0.492309 0.429218
vt 0.487523 0.429364
vt 0.487523 0.427479
vt 0.492309 0.427293
vt 0.491167 0.457994
vt 0.491167 0.472651
vt 0.489347 0.472651
vt 0.489347 0.458141
vt 0.492309 0.445795
vt 0.487523 0.445795
vt 0.487523 0.443874
vt 0.492309 0.443874
vt 0.574874 0.371290
vt 0.574874 0.378279
vt 0.574697 0.378279
vt 0.574697 0.370710
vt 0.574874 0.380200
vt 0.574697 0.380200
vt 0.574874 0.394857
vt 0.574697 0.394857
vt 0.581376 0.234380
vt 0.581971 0.228696
vt 0.584584 0.228942
vt 0.583989 0.234626
vt 0.582122 0.227253
vt 0.584735 0.227500
vt 0.583274 0.216248
vt 0.585887 0.216494
vt 0.520461 0.215772
vt 0.520477 0.215780
vt 0.520482 0.215730
vt 0.520498 0.215738
vt 0.520638 0.215410
vt 0.520654 0.215418
vt 0.518055 0.312499
vt 0.518055 0.313858
vt 0.514559 0.313858
vt 0.514559 0.312499
vt 0.518055 0.302149
vt 0.514559 0.302149
vt 0.518055 0.300792
vt 0.514559 0.300792
vt 0.518055 0.295447
vt 0.514559 0.295447
vt 0.487523 0.452784
vt 0.492309 0.452784
vt 0.518055 0.319194
vt 0.514559 0.319194
vt 0.573087 0.270740
vt 0.573087 0.267422
vt 0.575541 0.267422
vt 0.575541 0.270740
vt 0.532443 0.318866
vt 0.532443 0.299653
vt 0.554292 0.330182
vt 0.554292 0.323916
vt 0.532443 0.335176
vt 0.532443 0.322122
vt 0.554292 0.347398
vt 0.554292 0.333653
vt 0.506912 0.217230
vt 0.505880 0.249989
vt 0.504690 0.217230
vt 0.504471 0.217230
vt 0.508653 0.249989
vt 0.508412 0.249989
vt 0.508653 0.244942
vt 0.521796 0.214117
vt 0.506112 0.249989
vt 0.506702 0.217230
vt 0.907017 0.518004
vt 0.973470 0.518004
vt 0.973470 0.556327
vt 0.907017 0.556327
vt 0.862842 0.094049
vt 0.971685 0.094049
vt 0.971685 0.166590
vt 0.862842 0.166590
vt 0.526828 0.401614
vt 0.526828 0.416774
vt 0.517660 0.416774
vt 0.517660 0.401614
vt 0.241212 0.257875
vt 0.442541 0.257875
vt 0.442541 0.362257
vt 0.241212 0.362257
vt 0.723190 0.821337
vt 0.521633 0.821337
vt 0.521633 0.775813
vt 0.723190 0.775813
vt 0.221891 0.822542
vt -0.001246 0.822542
vt -0.001246 0.777057
vt 0.221891 0.777057
vt 0.172594 0.659623
vt 0.027157 0.659623
vt 0.027157 0.579633
vt 0.172594 0.579633
vt 0.974880 0.618111
vt 0.908159 0.618111
vt 0.908159 0.579633
vt 0.974880 0.579633
vt 0.867913 0.659623
vt 0.210353 0.659623
vt 0.210353 0.579633
vt 0.867913 0.579633
vt 0.025155 0.094049
vt 0.333961 0.094049
vt 0.333961 0.166590
vt 0.025155 0.166590
vt 0.362899 0.094049
vt 0.362899 0.166590
vt 0.835692 0.094049
vt 0.835692 0.166590
vt 0.029565 0.518004
vt 0.174417 0.518004
vt 0.174417 0.556327
vt 0.029565 0.556327
vt 0.212024 0.518004
vt 0.212024 0.556327
vt 0.708194 0.518004
vt 0.866933 0.518004
vt 0.866933 0.556327
vt 0.708194 0.556327
vt 0.993988 0.821337
vt 0.766312 0.821337
vt 0.766312 0.775813
vt 0.993988 0.775813
vt 0.195493 0.257875
vt 0.199582 0.257875
vt 0.199582 0.362257
vt 0.195493 0.362257
vt 0.237291 0.257875
vt 0.237291 0.362257
vt 0.526828 0.381424
vt 0.526828 0.398480
vt 0.517660 0.398480
vt 0.517660 0.381424
vt 0.766312 0.989812
vt 0.723190 0.989812
vt 0.723190 0.870449
vt 0.766312 0.870449
vt 0.993988 0.989812
vt 0.993988 0.870449
vt 0.269320 0.990873
vt 0.226236 0.990873
vt 0.226236 0.871612
vt 0.269320 0.871612
vt 0.273834 0.990873
vt 0.273834 0.871612
vt 0.866933 0.376177
vt 0.907017 0.376177
vt 0.907017 0.476660
vt 0.866933 0.476660
vt 0.708193 0.376177
vt 0.708193 0.476660
vt 0.174417 0.376177
vt 0.212024 0.376177
vt 0.212024 0.476660
vt 0.174417 0.476660
vt 0.029566 0.376177
vt 0.029565 0.476660
vt 0.210353 0.760512
vt 0.172594 0.760512
vt 0.867913 0.760512
vt 0.908159 0.760512
vt 0.908159 0.659623
vt 0.974880 0.760512
vt 0.974880 0.659623
vt 0.027157 0.760512
vt 0.221891 0.990873
vt -0.001246 0.990873
vt -0.001246 0.871612
vt 0.221891 0.871612
vt 0.521633 0.989812
vt 0.521633 0.870449
vt 0.973469 0.376177
vt 0.973469 0.476660
vt 0.530600 0.398480
vt 0.530600 0.401614
vt 0.530600 0.381424
vt 0.362899 0.036535
vt 0.835692 0.036535
vt 0.025155 0.064202
vt 0.333961 0.064202
vt 0.241212 0.214926
vt 0.442541 0.214926
vt 0.530600 0.416774
vt 0.862842 0.036535
vt 0.971685 0.036535
vt 0.433926 0.376178
vt 0.433926 0.476660
vt 0.433926 0.518004
vt 0.433926 0.556327
vt 0.703460 0.554960
vt 0.646561 0.554960
vt 0.643498 0.521067
vt 0.706523 0.521067
vt 0.508266 0.521067
vt 0.511329 0.554960
vt 0.495659 0.554960
vt 0.498722 0.521067
vt 0.630866 0.554960
vt 0.633929 0.521067
vt 0.534097 0.401614
vt 0.534097 0.416775
vt 0.241212 0.175115
vt 0.442541 0.175116
vt 0.025155 0.036536
vt 0.333961 0.036535
vt 0.534097 0.381424
vt 0.534097 0.398480
vt 0.435596 0.521067
vt 0.438659 0.554960
vt 0.017174 0.175115
vt 0.195493 0.175116
vt 0.017174 0.257875
vt 0.470705 0.990873
vt 0.470705 0.871612
vt 0.017174 0.362257
vt 0.273834 0.777057
vt 0.470705 0.777057
vn 0.0000 0.0000 1.0000
vn -0.0000 1.0000 0.0000
vn 0.0000 -1.0000 0.0000
vn 0.0016 0.0000 1.0000
vn 0.0008 0.0000 1.0000
vn 1.0000 0.0000 0.0000
vn -0.0191 0.0000 -0.9998
vn -1.0000 0.0000 0.0000
vn 0.0000 0.0000 -1.0000
vn 0.0000 0.1697 -0.9855
vn 0.0000 -0.1697 0.9855
vn -0.0224 0.0000 0.9997
vn -0.0010 0.0000 -1.0000
vn -0.0016 0.0000 -1.0000
vn -0.0008 0.0000 -1.0000
vn 1.0000 0.0000 -0.0012
vn 1.0000 0.0000 -0.0024
vn -1.0000 0.0000 0.0013
vn -1.0000 0.0000 0.0025
vn 0.0011 0.0000 1.0000
vn -1.0000 0.0000 0.0024
vn -1.0000 0.0000 0.0012
vn 1.0000 0.0000 -0.0025
usemtl Material.002
s 1
f 1/1/1 2/2/1 3/3/1 4/4/1
f 181/5/2 6/6/2 7/7/2 182/8/2
f 9/9/2 10/10/2 11/11/2 12/12/2
f 13/13/2 14/14/2 3/15/2 15/16/2
f 16/17/2 17/18/2 18/19/2 19/20/2
f 20/21/3 21/22/3 22/23/3 23/24/3
f 24/25/3 25/26/3 26/27/3 27/28/3
f 6/6/2 28/29/2 29/30/2 7/7/2
f 28/29/2 30/31/2 31/32/2 29/30/2
f 30/31/2 32/33/2 33/34/2 31/32/2
f 32/33/2 16/17/2 19/20/2 33/34/2
f 14/35/2 34/36/2 4/37/2 3/38/2
f 34/36/2 35/39/2 36/40/2 4/37/2
f 37/41/2 38/42/2 39/43/2 40/44/2
f 38/42/2 9/9/2 12/12/2 39/43/2
f 41/45/4 42/46/5 12/47/5 11/48/4
f 42/46/5 43/49/1 39/50/1 12/47/5
f 44/51/1 45/52/1 36/53/1 46/54/1
f 45/52/1 1/1/1 4/4/1 36/53/1
f 47/55/3 48/56/3 49/57/3 50/58/3
f 23/24/6 22/23/6 51/59/6 52/60/6
f 17/61/2 53/62/2 54/63/2 18/64/2
f 53/62/2 13/13/2 15/16/2 54/63/2
f 173/65/2 55/66/2 56/67/2 174/68/2
f 55/66/2 5/69/2 8/70/2 56/67/2
f 27/28/6 26/27/6 57/71/6 58/72/6
f 178/73/7 176/74/7 175/75/7 180/76/7
f 59/77/8 60/78/8 25/26/8 24/25/8
f 61/79/8 62/80/8 21/22/8 20/21/8
f 63/81/1 64/82/1 1/1/1 45/52/1
f 65/83/1 63/81/1 45/52/1 44/51/1
f 66/84/5 67/85/1 43/49/1 42/46/5
f 68/86/4 66/84/5 42/46/5 41/45/4
f 64/82/1 69/87/1 2/2/1 1/1/1
f 183/88/3 70/89/3 71/90/3 184/91/3
f 70/89/3 58/72/3 57/71/3 71/90/3
f 59/77/3 52/60/3 51/59/3 60/78/3
f 72/92/3 73/93/3 74/94/3 75/95/3
f 73/93/3 76/96/3 77/97/3 74/94/3
f 76/96/3 78/98/3 79/99/3 77/97/3
f 78/98/3 80/100/3 81/101/3 79/99/3
f 80/100/3 82/102/3 83/103/3 81/101/3
f 82/102/3 84/104/3 85/105/3 83/103/3
f 86/106/3 87/107/3 88/108/3 89/109/3
f 87/107/3 90/110/3 91/111/3 88/108/3
f 90/110/3 92/112/3 93/113/3 91/111/3
f 94/114/3 86/106/3 89/109/3 95/115/3
f 67/85/1 96/116/1 97/117/1 43/49/1
f 43/49/1 97/117/1 40/118/1 39/50/1
f 35/39/2 98/119/2 46/120/2 36/40/2
f 84/104/3 99/121/3 100/122/3 85/105/3
f 96/123/8 86/124/8 101/125/8 102/126/8
f 107/127/3 99/128/3 108/129/3 109/130/3
f 115/131/9 116/132/9 100/133/9 117/134/9
f 120/135/10 103/136/10 121/137/10 122/138/10
f 123/139/2 124/140/2 125/141/2 126/142/2
f 116/143/2 115/144/2 122/145/2 121/146/2
f 127/147/11 128/148/11 122/149/11 120/150/11
f 129/151/2 130/152/2 131/153/2 128/154/2
f 111/155/11 126/156/11 131/157/11 132/158/11
f 124/159/9 123/160/9 95/161/9 89/162/9
f 123/160/9 130/163/9 133/164/9 95/161/9
f 130/163/9 129/165/9 134/166/9 133/164/9
f 129/165/9 115/131/9 117/134/9 134/166/9
f 86/167/3 94/168/3 135/169/3 101/170/3
f 94/168/3 136/171/3 137/172/3 135/169/3
f 136/171/3 138/173/3 139/174/3 137/172/3
f 138/173/3 107/127/3 109/130/3 139/174/3
f 99/121/3 107/175/3 117/176/3 100/122/3
f 107/175/3 138/177/3 134/178/3 117/176/3
f 138/177/3 136/179/3 133/180/3 134/178/3
f 136/179/3 94/114/3 95/115/3 133/180/3
f 139/181/1 109/182/1 106/183/1 142/184/1
f 137/185/1 139/181/1 142/184/1 141/186/1
f 135/187/1 137/185/1 141/186/1 140/188/1
f 101/189/1 135/187/1 140/188/1 102/190/1
f 125/191/11 126/156/11 111/155/11 110/192/11
f 109/182/1 108/193/1 105/194/1 106/183/1
f 99/195/6 65/196/6 105/197/6 108/198/6
f 87/199/1 86/200/1 96/116/1 67/85/1
f 82/201/1 80/202/1 69/87/1 64/82/1
f 92/203/4 90/204/5 66/84/5 68/86/4
f 90/204/5 87/199/1 67/85/1 66/84/5
f 99/205/1 84/206/1 63/81/1 65/83/1
f 84/206/1 82/201/1 64/82/1 63/81/1
f 72/92/8 75/95/8 62/80/8 61/79/8
f 127/147/11 132/158/11 131/157/11 128/148/11
f 178/73/7 180/76/7 177/207/7 179/208/7
f 47/209/3 186/210/3 185/211/3 48/212/3
f 185/211/12 186/210/12 183/88/12 184/213/12
f 92/112/3 175/75/3 176/214/3 93/113/3
f 10/10/2 173/65/2 174/68/2 11/11/2
f 49/215/3 179/208/3 177/207/3 50/216/3
f 5/69/2 181/5/2 182/8/2 8/70/2
usemtl Material
f 147/217/9 148/218/9 81/219/9 83/220/9
f 27/221/13 149/222/14 7/223/14 29/224/15
f 150/225/16 151/226/17 18/227/17 54/228/16
f 177/229/8 41/230/8 11/231/8 174/232/8
f 152/233/18 153/234/19 74/235/19 77/236/18
f 178/237/6 154/238/6 93/239/6 176/240/6
f 26/241/20 155/242/4 71/243/4 57/244/4
f 153/245/1 62/246/1 75/247/1 74/248/1
f 22/249/1 25/250/1 60/251/1 51/252/1
f 151/253/9 20/254/9 19/255/9 18/256/9
f 20/254/9 23/257/9 33/258/9 19/255/9
f 23/257/9 24/259/9 31/260/9 33/258/9
f 24/259/9 27/221/13 29/224/15 31/260/9
f 154/261/14 156/262/15 91/263/15 93/264/14
f 156/262/15 157/265/9 88/266/9 91/263/15
f 144/267/9 158/268/9 85/269/9 100/270/9
f 158/268/9 147/217/9 83/220/9 85/269/9
f 148/271/8 159/272/8 79/273/8 81/274/8
f 159/272/8 152/233/18 77/236/18 79/273/8
f 186/275/21 47/276/22 8/277/22 182/278/21
f 47/276/22 50/279/8 56/280/8 8/277/22
f 2/281/6 160/282/6 15/283/6 3/284/6
f 160/282/6 150/225/16 54/228/16 15/283/6
f 13/285/8 53/286/18 161/287/18 162/288/8
f 14/289/8 13/285/8 162/288/8 163/290/8
f 5/291/16 55/292/6 49/293/6 48/294/16
f 181/295/23 5/291/16 48/294/16 185/296/23
f 35/297/9 34/298/9 164/299/9 165/300/9
f 98/301/9 35/297/9 165/300/9 104/302/9
f 9/303/15 38/304/9 166/305/9 167/306/15
f 10/307/14 9/303/15 167/306/15 168/308/14
f 30/309/1 28/310/5 26/241/20 25/250/1
f 32/311/1 30/309/1 25/250/1 22/249/1
f 16/312/1 32/311/1 22/249/1 21/313/1
f 17/314/1 16/312/1 21/313/1 169/315/1
f 28/310/5 6/316/4 155/242/4 26/241/20
f 173/317/6 10/318/6 168/319/6 179/320/6
f 53/286/18 17/321/19 169/322/19 161/287/18
f 34/298/9 14/323/9 163/324/9 164/299/9
f 170/325/6 171/326/16 150/225/16 160/282/6
f 69/327/6 170/325/6 160/282/6 2/281/6
f 52/328/9 59/329/9 24/259/9 23/257/9
f 172/330/9 61/331/9 20/254/9 151/253/9
f 180/332/8 68/333/8 41/230/8 177/229/8
f 171/326/16 172/334/17 151/226/17 150/225/16
f 58/335/14 70/336/14 149/222/14 27/221/13
f 38/304/9 37/337/9 114/338/9 166/305/9
f 157/265/9 113/339/9 89/340/9 88/266/9
f 116/341/9 115/342/9 145/343/9 143/344/9
f 118/345/9 130/346/9 123/347/9 119/348/9
f 129/349/9 130/346/9 118/345/9 146/350/9
f 145/343/9 115/342/9 129/349/9 146/350/9
f 166/305/9 114/338/9 113/339/9 157/265/9
f 76/351/16 73/352/17 172/334/17 171/326/16
f 175/353/8 92/354/8 68/333/8 180/332/8
f 73/355/9 72/356/9 61/331/9 172/330/9
f 80/357/6 78/358/6 170/325/6 69/327/6
f 78/358/6 76/351/16 171/326/16 170/325/6
f 162/288/8 161/287/18 152/233/18 159/272/8
f 163/290/8 162/288/8 159/272/8 148/271/8
f 165/300/9 164/299/9 147/217/9 158/268/9
f 104/302/9 165/300/9 158/268/9 144/267/9
f 167/306/15 166/305/9 157/265/9 156/262/15
f 168/308/14 167/306/15 156/262/15 154/261/14
f 169/315/1 21/313/1 62/246/1 153/245/1
f 179/320/6 168/319/6 154/238/6 178/237/6
f 161/287/18 169/322/19 153/234/19 152/233/18
f 164/299/9 163/324/9 148/218/9 147/217/9
f 112/359/9 119/348/9 123/347/9 124/360/9
f 116/341/9 143/344/9 144/267/9 100/270/9
f 112/359/9 124/360/9 89/340/9 113/339/9
f 55/292/6 173/317/6 179/320/6 49/293/6
f 50/279/8 177/229/8 174/232/8 56/280/8
f 70/361/21 183/362/21 186/275/21 149/363/21
f 6/364/23 181/295/23 185/296/23 155/365/23
f 149/363/21 186/275/21 182/278/21 7/366/21
f 155/365/23 185/296/23 184/367/23 71/368/23
