# Blender v2.80 (sub 75) OBJ File: ''
# www.blender.org
mtllib SpeakeasyWoodBarWall.mtl
o Plane.019_Plane.000
v 47.075333 4.999984 50.200584
v 47.075333 4.999984 50.364815
v 54.687546 2.211115 50.364815
v 54.687546 4.999984 50.364815
v 54.687546 1.063626 50.364815
v 47.075333 1.063626 50.364815
v 47.075333 2.211115 50.364815
v 48.788731 4.999984 50.200584
v 48.788731 4.999984 50.364815
v 54.687546 4.999984 50.200584
v 47.075333 1.063626 51.113510
v 54.556168 2.211115 50.285595
v 54.556168 1.063626 50.285595
v 54.556168 1.063626 50.768742
v 54.556168 2.211115 50.768742
v 54.641178 2.211115 50.200584
v 54.641178 4.953616 50.200584
v 54.687546 2.211115 50.200584
v 54.687546 2.211115 51.113510
v 54.687546 1.063626 51.113510
v 52.976963 1.063626 51.113510
v 52.976963 2.211115 51.113510
v 54.687546 4.999984 51.113510
v 52.976963 4.999984 51.113510
v 47.075333 2.211115 51.113510
v 47.075333 4.999984 51.113510
v 48.788731 4.999984 51.113510
v 48.873741 4.953616 50.200584
v 47.121700 4.953616 50.200584
v 47.206711 1.063626 50.768742
v 48.788731 1.063626 50.768742
v 48.788731 1.063626 50.285595
v 47.206711 1.063626 50.285595
v 47.121700 2.211115 50.200584
v 47.121700 0.978616 50.200584
v 47.075333 1.063626 50.200584
v 47.075333 2.211115 50.200584
v 52.976963 4.868605 50.285595
v 54.556168 4.868605 50.285595
v 54.556168 4.868605 50.768742
v 52.976963 4.868605 50.768742
v 49.138622 4.953616 50.200584
v 49.138622 0.978616 50.200584
v 48.873741 0.978616 50.200584
v 52.976963 2.211115 50.768742
v 52.976963 1.063626 50.768742
v 47.206711 4.868605 50.285595
v 48.788731 4.868605 50.285595
v 48.788731 4.868605 50.768742
v 47.206711 4.868605 50.768742
v 52.891953 4.953616 50.200584
v 52.976963 4.999984 50.200584
v 52.541355 1.063626 50.768742
v 49.223633 1.063626 50.768742
v 48.788731 2.211115 50.768742
v 47.206711 2.211115 50.768742
v 49.223633 4.868605 50.768742
v 49.223633 2.211115 50.768742
v 52.541355 4.868605 50.768742
v 52.541355 2.211115 50.768742
v 52.541355 4.868605 50.285595
v 52.541355 1.063626 50.285595
v 49.223633 1.063626 50.285595
v 49.223633 4.868605 50.285595
v 52.976963 4.999984 50.364815
v 52.541355 4.999984 50.364815
v 52.541355 4.999984 51.113510
v 49.223633 4.999984 50.364815
v 49.223633 4.999984 51.113510
v 48.788731 2.211115 51.113510
v 49.223633 2.211115 51.113510
v 52.541355 2.211115 51.113510
v 48.788731 1.063626 51.113510
v 49.223633 1.063626 51.113510
v 52.541355 1.063626 51.113510
v 52.626366 4.953616 50.200584
v 49.223633 4.999984 50.200584
v 52.541355 4.999984 50.200584
v 54.641178 0.978616 50.200584
v 54.687546 1.063626 50.200584
v 52.976963 1.063626 50.285595
v 47.206711 2.211115 50.285595
v 52.891953 0.978616 50.200584
v 52.626366 0.978616 50.200584
v 47.202549 2.211115 50.259323
v 47.202549 4.872766 50.259323
v 47.190475 2.211115 50.235626
v 47.190475 4.884841 50.235626
v 47.171669 2.211115 50.216820
v 47.171669 4.903648 50.216820
v 47.147972 2.211115 50.204746
v 47.147972 4.927346 50.204746
v 54.614906 4.927346 50.204746
v 52.918221 4.927346 50.204746
v 54.591209 4.903648 50.216820
v 52.941921 4.903648 50.216820
v 54.572403 4.884841 50.235626
v 52.960728 4.884841 50.235626
v 54.560329 4.872766 50.259323
v 52.972801 4.872766 50.259323
v 54.614906 2.211115 50.204746
v 54.591209 2.211115 50.216820
v 54.572403 2.211115 50.235626
v 54.560326 2.211115 50.259323
v 48.847473 4.927346 50.204746
v 48.823772 4.903648 50.216820
v 48.804966 4.884841 50.235626
v 48.792892 4.872766 50.259323
v 52.600098 4.927346 50.204746
v 49.164894 4.927346 50.204746
v 52.576397 4.903648 50.216820
v 49.188591 4.903648 50.216820
v 52.557590 4.884841 50.235626
v 49.207397 4.884841 50.235626
v 52.545517 4.872766 50.259323
v 49.219471 4.872766 50.259323
v 52.918221 1.004886 50.204746
v 52.941921 1.028584 50.216820
v 52.960728 1.047391 50.235626
v 52.972801 1.059466 50.259323
v 49.164894 1.004886 50.204746
v 49.188591 1.028584 50.216820
v 49.207397 1.047391 50.235626
v 49.219471 1.059466 50.259323
v 47.202549 1.059466 50.259323
v 47.190475 1.047391 50.235626
v 47.171669 1.028584 50.216820
v 47.147972 1.004886 50.204746
v 54.614906 1.004886 50.204746
v 54.591209 1.028584 50.216820
v 54.572403 1.047391 50.235626
v 54.560329 1.059466 50.259323
v 52.600098 1.004886 50.204746
v 52.576397 1.028584 50.216820
v 52.557590 1.047391 50.235626
v 52.545517 1.059466 50.259323
v 48.847473 1.004886 50.204746
v 48.823772 1.028584 50.216820
v 48.804966 1.047391 50.235626
v 48.792892 1.059466 50.259323
vt 0.631173 0.352157
vt 0.631173 0.350160
vt 0.631375 0.350160
vt 0.631375 0.352157
vt 0.981476 0.277933
vt 0.971034 0.331891
vt 0.954457 0.313370
vt 0.964140 0.277006
vt 0.988215 0.277805
vt 0.970609 0.190002
vt 0.971955 0.187946
vt 0.990062 0.277873
vt 0.573087 0.267422
vt 0.573087 0.263842
vt 0.575541 0.263842
vt 0.575541 0.267422
vt 0.514559 0.313858
vt 0.514559 0.319194
vt 0.510787 0.319194
vt 0.510787 0.313858
vt 0.501620 0.319194
vt 0.501620 0.313858
vt 0.573087 0.255142
vt 0.575541 0.255142
vt 0.518582 0.367729
vt 0.518582 0.359029
vt 0.521036 0.359029
vt 0.521036 0.367729
vt 0.632293 0.350159
vt 0.632293 0.352157
vt 0.745232 0.197794
vt 0.660733 0.190429
vt 0.659328 0.188345
vt 0.741622 0.195508
vt 0.676527 0.308916
vt 0.720663 0.308278
vt 0.737276 0.321782
vt 0.663682 0.331939
vt 0.644861 0.279150
vt 0.658571 0.339359
vt 0.655300 0.335603
vt 0.643011 0.279270
vt 0.898191 0.204688
vt 0.964853 0.197188
vt 0.954186 0.216008
vt 0.912524 0.217439
vt 0.755546 0.198204
vt 0.754603 0.328237
vt 0.746093 0.328209
vt 0.914888 0.270318
vt 0.666727 0.197768
vt 0.736588 0.204327
vt 0.722020 0.221977
vt 0.679697 0.213896
vt 0.889743 0.198525
vt 0.893350 0.196228
vt 0.720293 0.269453
vt 0.668362 0.277288
vt 0.594009 0.417430
vt 0.594009 0.419351
vt 0.581638 0.419351
vt 0.581638 0.417430
vt 0.780544 0.220830
vt 0.856813 0.224562
vt 0.854778 0.269523
vt 0.779245 0.268796
vt 0.615541 0.392789
vt 0.615541 0.394714
vt 0.603170 0.394714
vt 0.603170 0.392789
vt 0.869529 0.208695
vt 0.869637 0.319412
vt 0.854797 0.306463
vt 0.776800 0.302712
vt 0.764497 0.318608
vt 0.765366 0.207882
vt 0.631375 0.359032
vt 0.631375 0.357038
vt 0.632293 0.357038
vt 0.632293 0.359032
vt 0.631375 0.356531
vt 0.632293 0.356531
vt 0.631375 0.352663
vt 0.632293 0.352663
vt 0.510787 0.295447
vt 0.510787 0.300792
vt 0.501620 0.300792
vt 0.501620 0.295447
vt 0.510787 0.302149
vt 0.501620 0.302149
vt 0.510787 0.312499
vt 0.501620 0.312499
vt 0.514559 0.295447
vt 0.514559 0.300792
vt 0.514559 0.302149
vt 0.514559 0.312499
vt 0.879380 0.199098
vt 0.759297 0.196315
vt 0.875702 0.197203
vt 0.631173 0.359032
vt 0.631173 0.357038
vt 0.631173 0.356531
vt 0.631173 0.352663
vt 0.597828 0.394714
vt 0.597828 0.392789
vt 0.576296 0.419351
vt 0.576296 0.417430
vt 0.976449 0.339359
vt 0.979635 0.335429
vt 0.914901 0.304783
vt 0.896904 0.322622
vt 0.651566 0.279113
vt 0.518582 0.355449
vt 0.538877 0.326535
vt 0.559844 0.294065
vt 0.559844 0.277256
vt 0.562086 0.277256
vt 0.562086 0.294065
vt 0.888007 0.329197
vt 0.879514 0.329137
vt 0.650261 0.279114
vt 0.665577 0.196440
vt 0.648983 0.279121
vt 0.664405 0.195041
vt 0.647657 0.279129
vt 0.663209 0.193569
vt 0.646282 0.279139
vt 0.661986 0.192030
vt 0.969415 0.191561
vt 0.891532 0.199920
vt 0.968248 0.193057
vt 0.893252 0.201237
vt 0.967104 0.194487
vt 0.894917 0.202470
vt 0.965976 0.195847
vt 0.896536 0.203615
vt 0.986788 0.277829
vt 0.985406 0.277853
vt 0.984073 0.277878
vt 0.982789 0.277903
vt 0.743382 0.199262
vt 0.741607 0.200648
vt 0.739893 0.201945
vt 0.738229 0.203153
vt 0.877202 0.201223
vt 0.757706 0.200353
vt 0.875136 0.203235
vt 0.759757 0.202392
vt 0.873175 0.205136
vt 0.761701 0.204321
vt 0.871317 0.206927
vt 0.763541 0.206139
vt 0.889919 0.327724
vt 0.891755 0.326332
vt 0.893521 0.325027
vt 0.895227 0.323809
vt 0.562210 0.277238
vt 0.562210 0.294084
vt 0.756788 0.326108
vt 0.758865 0.324089
vt 0.760836 0.322182
vt 0.762702 0.320383
vt 0.662701 0.333351
vt 0.661699 0.334773
vt 0.660675 0.336253
vt 0.659630 0.337784
vt 0.975322 0.337757
vt 0.974213 0.336202
vt 0.973125 0.334701
vt 0.972064 0.333262
vt 0.877337 0.326974
vt 0.875273 0.324926
vt 0.873318 0.322990
vt 0.871469 0.321163
vt 0.744207 0.326760
vt 0.742398 0.325391
vt 0.740658 0.324107
vt 0.738977 0.322909
vn 0.0000 1.0000 0.0000
vn -0.9969 0.0000 -0.0784
vn -0.9966 0.0000 -0.0821
vn -1.0000 0.0000 0.0000
vn -0.0784 0.0000 -0.9969
vn -0.0197 -0.0197 -0.9996
vn 0.0000 0.0000 -1.0000
vn 1.0000 0.0000 0.0000
vn 0.0000 0.0000 1.0000
vn 0.0197 -0.0197 -0.9996
vn 0.0000 0.9966 -0.0821
vn 0.0784 0.0000 -0.9969
vn 0.0598 0.0598 -0.9964
vn 0.0001 0.0000 -1.0000
vn 0.0000 -0.9966 -0.0822
vn 0.0000 -1.0000 0.0000
vn 0.0395 0.0395 -0.9984
vn -0.0395 0.0395 -0.9984
vn -0.9966 0.0000 -0.0822
vn 0.9966 0.0000 -0.0822
vn -0.0598 0.0598 -0.9964
vn -0.0001 0.0000 -1.0000
vn 0.9969 0.0000 -0.0785
vn 0.9511 0.0000 -0.3090
vn 0.9424 0.0000 -0.3346
vn 0.8090 0.0000 -0.5878
vn 0.7789 0.0000 -0.6272
vn 0.5878 0.0000 -0.8090
vn 0.5337 0.0000 -0.8457
vn 0.3090 0.0000 -0.9511
vn 0.1203 -0.1203 -0.9854
vn -0.1203 -0.1203 -0.9854
vn 0.0000 -0.5337 -0.8457
vn 0.0000 -0.7789 -0.6271
vn 0.0000 -0.9424 -0.3346
vn -0.3090 0.0000 -0.9511
vn -0.5878 0.0000 -0.8090
vn -0.5337 0.0000 -0.8457
vn -0.8090 -0.0000 -0.5878
vn -0.7789 0.0000 -0.6272
vn -0.9511 -0.0000 -0.3090
vn -0.9424 0.0000 -0.3346
vn 0.1203 0.1203 -0.9854
vn 0.5336 0.0000 -0.8457
vn 0.7789 0.0000 -0.6271
vn 0.9424 0.0000 -0.3345
vn 0.5338 0.0000 -0.8456
vn -0.1203 0.1203 -0.9854
vn -0.5338 0.0000 -0.8456
vn -0.7789 -0.0000 -0.6271
vn -0.5336 0.0000 -0.8457
vn -0.9424 0.0000 -0.3345
vn 0.0000 0.9424 -0.3346
vn 0.0000 0.7789 -0.6271
vn 0.0000 0.5337 -0.8457
usemtl Material.002
s 1
f 8/1/1 1/2/1 2/3/1 9/4/1
f 12/5/2 13/6/3 14/7/4 15/8/4
f 16/9/5 17/10/6 10/11/7 18/12/7
f 5/13/8 3/14/8 19/15/8 20/16/8
f 21/17/9 20/18/9 19/19/9 22/20/9
f 22/20/9 19/19/9 23/21/9 24/22/9
f 3/14/8 4/23/8 23/24/8 19/15/8
f 2/25/4 7/26/4 25/27/4 26/28/4
f 9/4/1 2/3/1 26/29/1 27/30/1
f 28/31/6 29/32/10 1/33/7 8/34/7
f 30/35/1 31/36/1 32/37/11 33/38/11
f 34/39/12 35/40/13 36/41/14 37/42/7
f 38/43/15 39/44/15 40/45/16 41/46/16
f 42/47/10 43/48/17 44/49/18 28/31/6
f 41/46/7 40/45/7 15/8/7 45/50/7
f 47/51/15 48/52/15 49/53/16 50/54/16
f 17/10/6 51/55/10 52/56/7 10/11/7
f 50/54/7 49/53/7 55/57/7 56/58/7
f 49/59/7 57/60/7 58/61/7 55/62/7
f 57/63/7 59/64/7 60/65/7 58/66/7
f 59/67/7 41/68/7 45/69/7 60/70/7
f 39/44/3 12/5/2 15/8/4 40/45/4
f 61/71/19 62/72/19 53/73/4 59/64/4
f 57/63/8 54/74/8 63/75/20 64/76/20
f 48/52/19 32/37/19 31/36/4 49/53/4
f 4/77/1 65/78/1 24/79/1 23/80/1
f 65/78/1 66/81/1 67/82/1 24/79/1
f 66/81/1 68/83/1 69/84/1 67/82/1
f 68/83/1 9/4/1 27/30/1 69/84/1
f 25/85/9 70/86/9 27/87/9 26/88/9
f 70/86/9 71/89/9 69/90/9 27/87/9
f 71/89/9 72/91/9 67/92/9 69/90/9
f 72/91/9 22/20/9 24/22/9 67/92/9
f 11/93/9 73/94/9 70/86/9 25/85/9
f 73/94/9 74/95/9 71/89/9 70/86/9
f 74/95/9 75/96/9 72/91/9 71/89/9
f 75/96/9 21/17/9 22/20/9 72/91/9
f 29/32/10 34/39/12 37/42/7 1/33/7
f 76/97/6 42/47/10 77/98/7 78/99/7
f 10/100/1 52/101/1 65/78/1 4/77/1
f 52/101/1 78/102/1 66/81/1 65/78/1
f 78/102/1 77/103/1 68/83/1 66/81/1
f 77/103/1 8/1/1 9/4/1 68/83/1
f 62/72/11 63/75/11 54/74/1 53/73/1
f 60/70/7 45/69/7 46/104/7 53/105/7
f 58/66/7 60/65/7 53/73/7 54/74/7
f 55/62/7 58/61/7 54/106/7 31/107/7
f 56/58/7 55/57/7 31/36/7 30/35/7
f 79/108/21 16/9/5 18/12/7 80/109/22
f 45/50/7 15/8/7 14/7/7 46/110/7
f 13/6/11 81/111/11 46/110/1 14/7/1
f 33/38/20 82/112/23 56/58/8 30/35/8
f 7/26/4 6/113/4 11/114/4 25/27/4
f 51/55/10 76/97/6 78/99/7 52/56/7
f 41/115/8 46/116/8 81/117/20 38/118/20
f 42/47/10 28/31/6 8/34/7 77/98/7
f 51/55/10 83/119/17 84/120/18 76/97/6
f 64/76/15 61/71/15 59/64/16 57/63/16
f 47/51/20 82/112/23 85/121/24 86/122/25
f 86/122/25 85/121/24 87/123/26 88/124/27
f 88/124/27 87/123/26 89/125/28 90/126/29
f 90/126/29 89/125/28 91/127/30 92/128/31
f 92/128/31 91/127/30 34/39/12 29/32/10
f 51/55/10 17/10/6 93/129/32 94/130/31
f 94/130/31 93/129/32 95/131/33 96/132/33
f 96/132/33 95/131/33 97/133/34 98/134/34
f 98/134/34 97/133/34 99/135/35 100/136/35
f 100/136/35 99/135/35 39/44/15 38/43/15
f 17/10/6 16/9/5 101/137/36 93/129/32
f 93/129/32 101/137/36 102/138/37 95/131/38
f 95/131/38 102/138/37 103/139/39 97/133/40
f 97/133/40 103/139/39 104/140/41 99/135/42
f 99/135/42 104/140/41 12/5/2 39/44/3
f 29/32/10 28/31/6 105/141/32 92/128/31
f 92/128/31 105/141/32 106/142/33 90/126/33
f 90/126/33 106/142/33 107/143/34 88/124/34
f 88/124/34 107/143/34 108/144/35 86/122/35
f 86/122/35 108/144/35 48/52/15 47/51/15
f 42/47/10 76/97/6 109/145/32 110/146/31
f 110/146/31 109/145/32 111/147/33 112/148/33
f 112/148/33 111/147/33 113/149/34 114/150/34
f 114/150/34 113/149/34 115/151/35 116/152/35
f 116/152/35 115/151/35 61/71/15 64/76/15
f 83/119/17 51/55/10 94/130/31 117/153/43
f 117/153/43 94/130/31 96/132/44 118/154/44
f 118/154/44 96/132/44 98/134/45 119/155/45
f 119/155/45 98/134/45 100/136/46 120/156/46
f 120/157/46 100/158/46 38/118/20 81/117/20
f 43/48/17 42/47/10 110/146/31 121/159/43
f 121/159/43 110/146/31 112/148/44 122/160/44
f 122/160/44 112/148/44 114/150/45 123/161/45
f 123/161/45 114/150/45 116/152/46 124/162/46
f 124/162/46 116/152/46 64/76/20 63/75/20
f 82/112/23 33/38/20 125/163/25 85/121/24
f 85/121/24 125/163/25 126/164/45 87/123/26
f 87/123/26 126/164/45 127/165/47 89/125/28
f 89/125/28 127/165/47 128/166/43 91/127/30
f 91/127/30 128/166/43 35/40/13 34/39/12
f 16/9/5 79/108/21 129/167/48 101/137/36
f 101/137/36 129/167/48 130/168/49 102/138/37
f 102/138/37 130/168/49 131/169/50 103/139/39
f 103/139/39 131/169/50 132/170/42 104/140/41
f 104/140/41 132/170/42 13/6/3 12/5/2
f 76/97/6 84/120/18 133/171/48 109/145/32
f 109/145/32 133/171/48 134/172/51 111/147/51
f 111/147/51 134/172/51 135/173/50 113/149/50
f 113/149/50 135/173/50 136/174/52 115/151/52
f 115/151/52 136/174/52 62/72/19 61/71/19
f 28/31/6 44/49/18 137/175/48 105/141/32
f 105/141/32 137/175/48 138/176/51 106/142/51
f 106/142/51 138/176/51 139/177/50 107/143/50
f 107/143/50 139/177/50 140/178/52 108/144/52
f 108/144/52 140/178/52 32/37/19 48/52/19
f 63/75/11 62/72/11 136/174/53 124/162/53
f 124/162/53 136/174/53 135/173/54 123/161/54
f 123/161/54 135/173/54 134/172/55 122/160/55
f 122/160/55 134/172/55 133/171/48 121/159/43
f 121/159/43 133/171/48 84/120/18 43/48/17
f 79/108/21 83/119/17 117/153/43 129/167/48
f 129/167/48 117/153/43 118/154/55 130/168/55
f 130/168/55 118/154/55 119/155/54 131/169/54
f 131/169/54 119/155/54 120/156/53 132/170/53
f 132/170/53 120/156/53 81/111/11 13/6/11
f 44/49/18 35/40/13 128/166/43 137/175/48
f 137/175/48 128/166/43 127/165/55 138/176/55
f 138/176/55 127/165/55 126/164/54 139/177/54
f 139/177/54 126/164/54 125/163/53 140/178/53
f 140/178/53 125/163/53 33/38/11 32/37/11
f 82/112/23 47/51/20 50/54/8 56/58/8
