# Blender v2.80 (sub 75) OBJ File: 'curatsjs.blend'
# www.blender.org
mtllib StageRamp.mtl
o Plane.000_Plane.002_Plane.000_Plane.004
v 56.869392 0.610695 10.000003
v 65.000000 0.610695 10.000001
v 42.000000 0.610695 -12.000000
v 65.005280 0.010514 10.000003
v 42.000000 0.000012 -12.000002
v 49.762287 0.610695 10.000003
v 42.000000 0.610695 3.109664
v 42.000000 0.606513 -3.909104
v 58.991325 0.610695 10.000003
v 59.000000 -0.000027 17.000000
v 56.884075 -0.000027 17.000000
v 42.000000 0.606513 -5.999996
v 35.089478 0.007709 -5.999996
v 35.089481 0.007700 -3.909104
vt 0.503305 1.000000
vt 0.503305 1.000000
vt 0.503305 1.000000
vt 0.000000 0.500000
vt 0.000000 0.316693
vt 0.000000 0.316693
vt 0.215092 0.000000
vt 0.012783 0.000000
vt 0.986496 0.000000
vt 0.986496 1.000000
vt 0.012783 1.000000
vt 0.500000 0.000000
vt 0.000000 0.500000
vt 0.500000 0.000000
vt 0.000000 0.000000
vt 1.000000 0.000000
vt 1.000000 1.000000
vt 0.000000 1.000000
vn -0.0001 0.9996 0.0290
vn -0.0001 1.0000 0.0000
vn -0.0863 0.9963 0.0000
vn 0.6912 0.0030 -0.7227
vn 0.0000 0.9962 0.0869
usemtl None.000
s 1
f 1/1/1 9/2/1 2/3/2 3/4/2 8/5/2 7/6/2 6/7/2
usemtl None.007
s off
f 14/8/3 8/9/3 12/10/3 13/11/3
s 1
f 4/12/4 5/13/4 3/4/4 2/14/4
f 11/15/5 10/16/5 9/17/1 1/18/1
