# Blender v2.80 (sub 75) OBJ File: ''
# www.blender.org
mtllib VIP_Flooring.mtl
o Cube.003_Cube.001
v 70.500000 -0.000006 16.977684
v 72.000000 -0.000006 16.977684
v 72.000000 -0.000004 10.279373
v 67.000000 -0.000004 10.279373
v 65.164139 -0.000006 17.000000
v 67.264877 -0.000006 16.977684
v 66.529747 -0.000004 10.279373
v 65.164139 -0.000004 10.279373
v 67.632431 -0.000008 23.957420
v 70.750000 -0.000008 23.957420
v 65.164139 -0.000008 23.986263
v 71.240784 -0.000012 34.000000
v 71.620392 -0.000012 33.898281
v 71.898285 -0.000010 33.620392
v 72.000000 -0.000004 10.000000
v 67.000000 -0.000004 10.000000
v 71.000000 -0.000012 34.000000
v 68.000000 -0.000012 34.000000
v 65.164139 -0.000012 34.000000
v 72.000000 -0.000010 33.240784
v 71.777634 -0.000012 33.777630
vt 0.973668 0.362272
vt 0.992614 0.362272
vt 0.992614 0.446876
vt 0.929461 0.446876
vt 0.906273 0.361990
vt 0.932807 0.362272
vt 0.923521 0.446876
vt 0.906273 0.446876
vt 0.937449 0.274113
vt 0.976826 0.274113
vt 0.906273 0.273749
vt 0.983025 0.147269
vt 0.987820 0.148553
vt 0.991330 0.152063
vt 0.992614 0.450405
vt 0.929461 0.450405
vt 0.906273 0.147269
vt 0.942092 0.147269
vt 0.979984 0.147269
vt 0.992614 0.156858
vt 0.989806 0.150077
vn 0.0000 1.0000 0.0000
usemtl initialShadingGroup.001
s 1
f 1/1/1 2/2/1 3/3/1 4/4/1
f 5/5/1 6/6/1 7/7/1 8/8/1
f 6/6/1 1/1/1 4/4/1 7/7/1
f 9/9/1 10/10/1 1/1/1 6/6/1
f 11/11/1 9/9/1 6/6/1 5/5/1
f 12/12/1 13/13/1 14/14/1
f 4/4/1 3/3/1 15/15/1 16/16/1
f 19/17/1 18/18/1 9/9/1 11/11/1
f 18/18/1 17/19/1 10/10/1 9/9/1
f 10/10/1 17/19/1 20/20/1
f 17/19/1 12/12/1 20/20/1
f 20/20/1 12/12/1 14/14/1
f 13/13/1 21/21/1 14/14/1
f 20/20/1 2/2/1 10/10/1
f 2/2/1 1/1/1 10/10/1
