# Blender v2.80 (sub 75) OBJ File: 'Map3.blend'
# www.blender.org
mtllib BarDoor.mtl
o Cube.038
v 55.381996 0.081630 50.399170
v 55.381996 0.715409 50.399170
v 55.381996 0.081630 49.626835
v 55.381996 0.715409 49.626835
v 55.432793 0.081630 50.399170
v 55.432793 0.715409 50.399170
v 55.432793 0.081630 49.626835
v 55.432793 0.715409 49.626835
v 55.381996 -0.013265 49.531940
v 55.381996 -0.013265 50.494064
v 55.381996 0.810304 50.494064
v 55.381996 0.810304 49.531940
v 55.432793 0.810304 49.531940
v 55.432793 -0.013265 49.531940
v 55.432793 -0.013265 50.494064
v 55.432793 0.810304 50.494064
v 55.405369 0.100404 49.642685
v 55.405369 0.100404 50.383320
v 55.405369 0.696635 50.383320
v 55.405369 0.696635 49.642685
v 55.409431 0.696635 49.642685
v 55.409431 0.100404 49.642685
v 55.409431 0.100404 50.383320
v 55.409431 0.696635 50.383320
vt 0.403806 0.717271
vt 0.403806 0.532729
vt 0.403806 0.532729
vt 0.403806 0.717271
vt 0.375000 0.250000
vt 0.625000 0.250000
vt 0.625000 0.500000
vt 0.375000 0.500000
vt 0.596194 0.717271
vt 0.596194 0.717271
vt 0.375000 0.750000
vt 0.625000 0.750000
vt 0.625000 1.000000
vt 0.375000 1.000000
vt 0.125000 0.500000
vt 0.125000 0.750000
vt 0.875000 0.500000
vt 0.875000 0.750000
vt 0.403806 0.032729
vt 0.403806 0.217271
vt 0.375000 0.000000
vt 0.596194 0.032729
vt 0.625000 0.000000
vt 0.596194 0.217271
vt 0.596194 0.532729
vt 0.403806 0.032729
vt 0.596194 0.032729
vt 0.596194 0.217271
vt 0.403806 0.217271
vt 0.596194 0.532729
vn 0.6264 0.7795 0.0000
vn 0.0000 0.0000 -1.0000
vn 0.5615 0.0000 -0.8274
vn 0.0000 0.0000 1.0000
vn 0.0000 -1.0000 0.0000
vn 0.0000 1.0000 0.0000
vn -1.0000 0.0000 0.0000
vn 1.0000 0.0000 0.0000
vn -0.5612 0.0000 0.8277
vn -0.5614 0.0000 -0.8276
vn 0.6264 -0.7795 0.0000
vn 0.5614 0.0000 0.8275
vn -0.6262 -0.7797 0.0000
vn -0.6262 0.7797 0.0000
usemtl None
s off
f 5/1/1 7/2/1 22/3/1 23/4/1
f 9/5/2 12/6/2 13/7/2 14/8/2
f 6/9/3 5/1/3 23/4/3 24/10/3
f 15/11/4 16/12/4 11/13/4 10/14/4
f 9/15/5 14/8/5 15/11/5 10/16/5
f 13/7/6 12/17/6 11/18/6 16/12/6
f 1/19/7 3/20/7 9/5/7 10/21/7
f 2/22/7 1/19/7 10/21/7 11/23/7
f 4/24/7 2/22/7 11/23/7 12/6/7
f 3/20/7 4/24/7 12/6/7 9/5/7
f 8/25/8 7/2/8 14/8/8 13/7/8
f 7/2/8 5/1/8 15/11/8 14/8/8
f 6/9/8 8/25/8 13/7/8 16/12/8
f 5/1/8 6/9/8 16/12/8 15/11/8
f 18/26/7 19/27/7 20/28/7 17/29/7
f 22/3/8 21/30/8 24/10/8 23/4/8
f 4/24/9 3/20/9 17/29/9 20/28/9
f 1/19/10 2/22/10 19/27/10 18/26/10
f 8/25/11 6/9/11 24/10/11 21/30/11
f 7/2/12 8/25/12 21/30/12 22/3/12
f 2/22/13 4/24/13 20/28/13 19/27/13
f 3/20/14 1/19/14 18/26/14 17/29/14
