# Blender v2.80 (sub 75) OBJ File: ''
# www.blender.org
mtllib Column.mtl
o Cube_Cube.001
v 1.000000 7.290041 0.000001
v 1.000000 7.376290 0.000001
v 1.000000 7.376290 1.000001
v 1.000000 7.290041 1.000001
v -1.000000 7.376290 1.000001
v -1.000000 7.290041 1.000001
v -1.000000 7.376290 0.000001
v -0.942717 7.290041 0.000001
v -0.942717 7.290041 0.942717
v -1.000000 7.290041 0.000001
v 0.942717 7.290041 0.942717
v -0.920933 7.226880 0.896605
v 0.920933 7.226880 0.896605
v -0.783772 7.087584 0.000001
v -0.783772 7.087584 0.741820
v -0.839860 7.087584 0.794907
v -0.839860 7.087584 0.000001
v 0.783772 7.087584 0.741820
v 0.839860 7.087584 0.794907
v 0.713303 7.044757 0.000001
v 0.713303 7.044757 0.675124
v 0.713303 6.990250 0.675124
v 0.713303 6.990250 0.000001
v -0.783772 7.044757 0.741820
v 0.783772 7.044757 0.741820
v 0.783772 7.087584 0.000001
v 0.783772 7.044757 0.000001
v -0.713303 7.044757 0.000001
v -0.713303 7.044757 0.675124
v -0.783772 7.044757 0.000001
v -0.713303 6.990250 0.675124
v -0.678945 6.990250 0.000001
v -0.678945 6.990250 0.642604
v -0.713303 6.990250 0.000001
v 0.678945 6.990250 0.642604
v -0.450661 0.958740 0.542673
v 0.450661 0.958740 0.542673
v 0.450661 0.958740 0.474033
v -0.450661 0.958740 0.474033
v 0.678945 6.990250 0.000001
v 0.678945 6.597016 0.642604
v 0.678945 6.597016 0.000001
v -0.678945 6.597016 0.642604
v -0.631447 6.597016 0.000001
v -0.631447 6.597016 0.542674
v -0.678945 6.597016 0.000001
v 0.631447 6.597016 0.542674
v 0.631447 3.690612 0.138344
v 0.631447 6.422484 0.138344
v 0.602628 6.422484 0.138344
v 0.602628 3.690612 0.138344
v 0.942717 7.290041 0.000001
v 0.920933 7.226880 0.000001
v 0.882255 7.150747 0.000001
v 0.882255 7.150747 0.841021
v 0.839860 7.087584 0.000001
v -0.882255 7.150747 0.841021
v -0.882255 7.150747 0.000001
v -0.901594 7.188813 0.868813
v -0.901594 7.188813 0.000001
v -0.920933 7.226880 0.000001
v 0.901594 7.188813 0.868813
v 0.901594 7.188813 0.000001
v 0.631447 0.958740 0.404330
v 0.631447 0.958740 0.138343
v 0.602628 0.958740 0.138343
v 0.602628 0.958740 0.404330
v 0.631447 6.597016 0.000001
v 1.000000 0.091184 0.000000
v 1.000000 0.091184 1.000000
v 1.000000 0.004934 1.000000
v 1.000000 0.004934 0.000000
v -1.000000 0.091184 1.000000
v -1.000000 0.004934 1.000000
v -1.000000 0.004934 0.000000
v -0.942717 0.091184 0.000000
v -1.000000 0.091184 0.000000
v -0.942717 0.091184 0.942716
v 0.942717 0.091184 0.942716
v 0.920933 0.154345 0.896604
v -0.920933 0.154345 0.896604
v -0.783772 0.293640 0.000000
v -0.839860 0.293640 0.000000
v -0.839860 0.293640 0.794906
v -0.783772 0.293640 0.741819
v 0.839860 0.293640 0.794906
v 0.783772 0.293640 0.741819
v 0.713303 0.336468 0.000000
v 0.713303 0.390975 0.000000
v 0.713303 0.390975 0.675123
v 0.713303 0.336468 0.675123
v 0.783772 0.336468 0.741819
v -0.783772 0.336468 0.741819
v 0.783772 0.293640 0.000000
v 0.783772 0.336468 0.000000
v -0.713303 0.336468 0.000000
v -0.783772 0.336468 0.000000
v -0.713303 0.336468 0.675123
v -0.713303 0.390975 0.675123
v -0.678945 0.390975 0.000000
v -0.713303 0.390975 0.000000
v -0.678945 0.390975 0.642603
v 0.678945 0.390975 0.642603
v 0.450661 3.690612 0.542674
v 0.450661 3.690612 0.474034
v 0.678945 0.390975 0.000000
v 0.678945 0.784208 0.000000
v 0.678945 0.784208 0.642603
v -0.678945 0.784208 0.642603
v -0.631447 0.784208 0.000000
v -0.678945 0.784208 0.000000
v -0.631447 0.784208 0.542673
v 0.631447 0.784208 0.542673
v 0.631447 6.422484 0.404331
v 0.631447 3.690612 0.404331
v 0.602628 3.690612 0.404331
v 0.602628 6.422484 0.404331
v 0.942717 0.091184 0.000000
v 0.920933 0.154345 0.000000
v 0.882255 0.230477 0.000000
v 0.839860 0.293640 0.000000
v 0.882255 0.230477 0.841020
v -0.882255 0.230477 0.841020
v -0.882255 0.230477 0.000000
v -0.901594 0.192411 0.000000
v -0.901594 0.192411 0.868812
v -0.920933 0.154345 0.000000
v 0.901594 0.192411 0.868812
v 0.901594 0.192411 0.000000
v -0.631447 3.690612 0.138344
v -0.631447 0.958740 0.138343
v -0.602628 0.958740 0.138343
v -0.602628 3.690612 0.138344
v 0.631447 0.784208 0.000000
v -0.450661 6.422484 0.542674
v 0.450661 6.422484 0.542674
v -0.450661 3.690612 0.542674
v -0.631447 3.690612 0.542674
v 0.631447 3.690612 0.542674
v 0.450661 6.422484 0.474034
v -0.450661 6.422484 0.474034
v -0.450661 3.690612 0.474034
v -0.631447 6.422484 0.138344
v -0.631447 6.422484 0.404331
v -0.631447 3.690612 0.404331
v -0.631447 3.690612 0.000001
v 0.631447 3.690612 0.000001
v -0.631447 0.958740 0.404330
v -0.602628 6.422484 0.404331
v -0.602628 6.422484 0.138344
v -0.602628 3.690612 0.404331
v -0.602628 0.958740 0.404330
vt 0.375000 0.625000
vt 0.625000 0.625000
vt 0.625000 0.750000
vt 0.375000 0.750000
vt 0.625000 1.000000
vt 0.375000 1.000000
vt 0.875000 0.625000
vt 0.875000 0.750000
vt 0.132160 0.625000
vt 0.132160 0.742840
vt 0.125000 0.750000
vt 0.125000 0.625000
vt 0.367840 0.742840
vt 0.132160 0.742840
vt 0.367840 0.742839
vt 0.140030 0.625000
vt 0.140030 0.734970
vt 0.132160 0.742840
vt 0.132160 0.625000
vt 0.359970 0.734970
vt 0.367840 0.742840
vt 0.350083 0.625000
vt 0.350083 0.725083
vt 0.350083 0.725083
vt 0.350083 0.625000
vt 0.140030 0.734970
vt 0.359970 0.734970
vt 0.359970 0.625000
vt 0.359970 0.625000
vt 0.149917 0.625000
vt 0.149917 0.725083
vt 0.140030 0.625000
vt 0.149917 0.725083
vt 0.154738 0.625000
vt 0.154738 0.720262
vt 0.149917 0.625000
vt 0.345262 0.720262
vt 0.192585 0.705448
vt 0.307415 0.705448
vt 0.307415 0.705448
vt 0.192585 0.705448
vt 0.345262 0.625000
vt 0.345262 0.720262
vt 0.345262 0.625000
vt 0.154738 0.720262
vt 0.169552 0.625000
vt 0.169552 0.705448
vt 0.154738 0.625000
vt 0.330448 0.705448
vt 0.330448 0.645509
vt 0.330448 0.645509
vt 0.330448 0.645509
vt 0.330448 0.645509
vt 0.367840 0.625000
vt 0.367840 0.625000
vt 0.367840 0.625000
vt 0.367840 0.742839
vt 0.367840 0.625000
vt 0.132160 0.742840
vt 0.132160 0.625000
vt 0.132563 0.742840
vt 0.132563 0.625000
vt 0.132160 0.625000
vt 0.367437 0.742839
vt 0.367436 0.625000
vt 0.330448 0.684939
vt 0.330448 0.645509
vt 0.330448 0.645509
vt 0.330448 0.684939
vt 0.330448 0.625000
vt 0.375000 0.000000
vt 0.625000 0.000000
vt 0.625000 0.125000
vt 0.375000 0.125000
vt 0.375000 0.625000
vt 0.375000 0.750000
vt 0.625000 0.750000
vt 0.625000 0.625000
vt 0.375000 1.000000
vt 0.625000 1.000000
vt 0.875000 0.750000
vt 0.875000 0.625000
vt 0.132160 0.625000
vt 0.125000 0.625000
vt 0.125000 0.750000
vt 0.132160 0.742840
vt 0.367840 0.742840
vt 0.367840 0.742839
vt 0.132160 0.742840
vt 0.140030 0.625000
vt 0.132160 0.625000
vt 0.132160 0.742840
vt 0.140030 0.734970
vt 0.367840 0.742840
vt 0.359970 0.734970
vt 0.350083 0.625000
vt 0.350083 0.625000
vt 0.350083 0.725083
vt 0.350083 0.725083
vt 0.359970 0.734970
vt 0.140030 0.734970
vt 0.359970 0.625000
vt 0.359970 0.625000
vt 0.149917 0.625000
vt 0.140030 0.625000
vt 0.149917 0.725083
vt 0.149917 0.725083
vt 0.154738 0.625000
vt 0.149917 0.625000
vt 0.154738 0.720262
vt 0.345262 0.720262
vt 0.307415 0.705448
vt 0.307415 0.705448
vt 0.345262 0.625000
vt 0.345262 0.625000
vt 0.345262 0.720262
vt 0.154738 0.720262
vt 0.169552 0.625000
vt 0.154738 0.625000
vt 0.169552 0.705448
vt 0.330448 0.705448
vt 0.330448 0.684939
vt 0.330448 0.684939
vt 0.330448 0.684939
vt 0.330448 0.684939
vt 0.367840 0.625000
vt 0.367840 0.625000
vt 0.367840 0.625000
vt 0.367840 0.625000
vt 0.367840 0.742839
vt 0.132160 0.742840
vt 0.132160 0.625000
vt 0.132563 0.625000
vt 0.132563 0.742840
vt 0.132160 0.625000
vt 0.367437 0.742839
vt 0.367436 0.625000
vt 0.169552 0.645509
vt 0.169552 0.645509
vt 0.169552 0.645509
vt 0.169552 0.645509
vt 0.330448 0.625000
vt 0.375000 0.000000
vt 0.375000 0.125000
vt 0.625000 0.125000
vt 0.625000 0.000000
vt 0.192585 0.705448
vt 0.307415 0.705448
vt 0.192585 0.705448
vt 0.169552 0.705448
vt 0.330448 0.705448
vt 0.307415 0.705448
vt 0.192585 0.705448
vt 0.192585 0.705448
vt 0.169552 0.645509
vt 0.169552 0.684939
vt 0.169552 0.684939
vt 0.169552 0.625000
vt 0.330448 0.625000
vt 0.169552 0.684939
vt 0.169552 0.684939
vt 0.169552 0.645509
vt 0.169552 0.684939
vt 0.169552 0.684939
vn 1.0000 0.0000 0.0000
vn 0.0000 0.0000 1.0000
vn 0.0000 1.0000 0.0000
vn 0.0000 -1.0000 0.0000
vn 0.0000 -0.5896 0.8077
vn 0.0000 -0.5897 0.8077
vn 0.9454 -0.3260 0.0000
vn 0.9304 -0.3666 0.0000
vn 0.9206 -0.3904 0.0000
vn 0.8625 -0.5060 0.0000
vn 0.8731 -0.4875 0.0000
vn 0.8303 -0.5573 0.0000
vn -0.8625 -0.5060 0.0000
vn -0.8731 -0.4875 0.0000
vn -0.8915 -0.4529 0.0000
vn -0.9304 -0.3666 0.0000
vn -0.9206 -0.3904 0.0000
vn -0.8303 -0.5573 0.0000
vn 0.8915 -0.4529 0.0000
vn -1.0000 0.0000 0.0000
vn -0.9454 -0.3260 0.0000
vn 0.0000 0.5896 0.8077
vn 0.0000 0.5897 0.8077
vn 0.0000 0.0000 -1.0000
vn 0.9454 0.3260 0.0000
vn 0.9206 0.3904 0.0000
vn 0.9304 0.3666 0.0000
vn 0.8625 0.5060 0.0000
vn 0.8303 0.5573 0.0000
vn 0.8731 0.4875 0.0000
vn -0.8625 0.5060 0.0000
vn -0.8915 0.4529 0.0000
vn -0.8731 0.4875 0.0000
vn -0.9206 0.3904 0.0000
vn -0.9304 0.3666 0.0000
vn 0.0000 0.5897 0.8076
vn -0.8303 0.5573 0.0000
vn 0.8915 0.4529 0.0000
vn -0.9454 0.3260 0.0000
usemtl None
s 1
f 1/1/1 2/2/1 3/3/1 4/4/1
f 4/4/2 3/3/2 5/5/2 6/6/2
f 2/2/3 7/7/3 5/8/3 3/3/3
f 8/9/4 9/10/4 6/11/4 10/12/4
f 9/10/4 11/13/4 4/4/4 6/11/4
f 11/13/5 9/10/5 12/14/6 13/15/6
f 14/16/4 15/17/4 16/18/4 17/19/4
f 15/17/4 18/20/4 19/21/4 16/18/4
f 20/22/1 21/23/1 22/24/1 23/25/1
f 18/20/2 15/17/2 24/26/2 25/27/2
f 26/28/1 18/20/1 25/27/1 27/29/1
f 28/30/4 29/31/4 24/26/4 30/32/4
f 29/31/4 21/23/4 25/27/4 24/26/4
f 21/23/2 29/31/2 31/33/2 22/24/2
f 32/34/4 33/35/4 31/33/4 34/36/4
f 33/35/4 35/37/4 22/24/4 31/33/4
f 36/38/3 37/39/3 38/40/3 39/41/3
f 40/42/1 35/37/1 41/43/1 42/44/1
f 35/37/2 33/35/2 43/45/2 41/43/2
f 44/46/4 45/47/4 43/45/4 46/48/4
f 45/47/4 47/49/4 41/43/4 43/45/4
f 48/50/2 49/51/2 50/52/2 51/53/2
f 52/54/7 11/13/7 13/15/8 53/55/9
f 54/56/10 55/57/11 19/21/12 56/58/12
f 55/57/6 57/59/6 16/18/6 19/21/6
f 58/60/13 57/59/14 59/61/15 60/62/15
f 60/62/15 59/61/15 12/14/16 61/63/17
f 57/59/6 55/57/6 62/64/6 59/61/6
f 59/61/6 62/64/6 13/15/6 12/14/6
f 57/59/14 58/60/13 17/19/18 16/18/18
f 62/64/19 63/65/19 53/55/9 13/15/8
f 55/57/11 54/56/10 63/65/19 62/64/19
f 64/66/3 65/67/3 66/68/3 67/69/3
f 47/49/4 68/70/4 42/44/4 41/43/4
f 33/35/20 32/34/20 46/48/20 43/45/20
f 35/37/4 40/42/4 23/25/4 22/24/4
f 29/31/20 28/30/20 34/36/20 31/33/20
f 21/23/4 20/22/4 27/29/4 25/27/4
f 18/20/4 26/28/4 56/58/4 19/21/4
f 15/17/20 14/16/20 30/32/20 24/26/20
f 11/13/4 52/54/4 1/1/4 4/4/4
f 9/10/21 8/9/21 61/63/17 12/14/16
f 6/71/20 5/72/20 7/73/20 10/74/20
f 69/75/1 70/76/1 71/77/1 72/78/1
f 70/76/2 73/79/2 74/80/2 71/77/2
f 72/78/4 71/77/4 74/81/4 75/82/4
f 76/83/3 77/84/3 73/85/3 78/86/3
f 78/86/3 73/85/3 70/76/3 79/87/3
f 79/87/22 80/88/23 81/89/23 78/86/22
f 82/90/3 83/91/3 84/92/3 85/93/3
f 85/93/3 84/92/3 86/94/3 87/95/3
f 88/96/1 89/97/1 90/98/1 91/99/1
f 87/95/2 92/100/2 93/101/2 85/93/2
f 94/102/1 95/103/1 92/100/1 87/95/1
f 96/104/3 97/105/3 93/101/3 98/106/3
f 98/106/3 93/101/3 92/100/3 91/99/3
f 91/99/2 90/98/2 99/107/2 98/106/2
f 100/108/3 101/109/3 99/107/3 102/110/3
f 102/110/3 99/107/3 90/98/3 103/111/3
f 37/39/20 104/112/20 105/113/20 38/40/20
f 106/114/1 107/115/1 108/116/1 103/111/1
f 103/111/2 108/116/2 109/117/2 102/110/2
f 110/118/3 111/119/3 109/117/3 112/120/3
f 112/120/3 109/117/3 108/116/3 113/121/3
f 114/122/24 115/123/24 116/124/24 117/125/24
f 118/126/25 119/127/26 80/88/27 79/87/25
f 120/128/28 121/129/29 86/94/29 122/130/30
f 122/130/23 86/94/23 84/92/23 123/131/23
f 124/132/31 125/133/32 126/134/32 123/131/33
f 125/133/32 127/135/34 81/89/35 126/134/32
f 123/131/23 126/134/36 128/136/36 122/130/23
f 126/134/36 81/89/23 80/88/23 128/136/36
f 123/131/33 84/92/37 83/91/37 124/132/31
f 128/136/38 80/88/27 119/127/26 129/137/38
f 122/130/30 128/136/38 129/137/38 120/128/28
f 130/138/2 131/139/2 132/140/2 133/141/2
f 113/121/3 108/116/3 107/115/3 134/142/3
f 102/110/20 109/117/20 111/119/20 100/108/20
f 103/111/3 90/98/3 89/97/3 106/114/3
f 98/106/20 99/107/20 101/109/20 96/104/20
f 91/99/3 92/100/3 95/103/3 88/96/3
f 87/95/3 86/94/3 121/129/3 94/102/3
f 85/93/20 93/101/20 97/105/20 82/90/20
f 79/87/3 70/76/3 69/75/3 118/126/3
f 78/86/39 81/89/35 127/135/34 76/83/39
f 73/143/20 77/144/20 75/145/20 74/146/20
f 135/147/2 136/148/2 47/49/2 45/47/2
f 137/149/2 135/147/2 45/47/2 138/150/2
f 136/148/2 104/112/2 139/151/2 47/49/2
f 37/39/2 36/38/2 112/120/2 113/121/2
f 36/38/2 137/149/2 138/150/2 112/120/2
f 104/112/2 37/39/2 113/121/2 139/151/2
f 140/152/2 141/153/2 142/154/2 105/113/2
f 38/40/2 105/113/2 142/154/2 39/41/2
f 135/147/1 137/149/1 142/154/1 141/153/1
f 137/149/1 36/38/1 39/41/1 142/154/1
f 104/112/20 136/148/20 140/152/20 105/113/20
f 136/148/4 135/147/4 141/153/4 140/152/4
f 143/155/20 144/156/20 45/47/20 44/46/20
f 144/156/20 145/157/20 138/150/20 45/47/20
f 115/123/1 114/122/1 47/49/1 139/151/1
f 114/122/1 49/51/1 68/70/1 47/49/1
f 130/138/20 143/155/20 44/46/20 146/158/20
f 49/51/1 48/50/1 147/159/1 68/70/1
f 148/160/20 131/139/20 110/118/20 112/120/20
f 145/157/20 148/160/20 112/120/20 138/150/20
f 64/66/1 115/123/1 139/151/1 113/121/1
f 65/67/1 64/66/1 113/121/1 134/142/1
f 131/139/20 130/138/20 146/158/20 110/118/20
f 48/50/1 65/67/1 134/142/1 147/159/1
f 50/52/1 117/125/1 116/124/1 51/53/1
f 149/161/20 150/162/20 133/141/20 151/163/20
f 66/68/1 51/53/1 116/124/1 67/69/1
f 152/164/20 151/163/20 133/141/20 132/140/20
f 65/67/2 48/50/2 51/53/2 66/68/2
f 131/139/3 148/160/3 152/164/3 132/140/3
f 49/51/4 114/122/4 117/125/4 50/52/4
f 144/156/4 143/155/4 150/162/4 149/161/4
f 148/160/24 145/157/24 151/163/24 152/164/24
f 145/157/24 144/156/24 149/161/24 151/163/24
f 115/123/24 64/66/24 67/69/24 116/124/24
f 143/155/2 130/138/2 133/141/2 150/162/2
f 2/2/24 1/1/24 52/54/24 53/55/24 63/65/24 54/56/24 56/58/24 26/28/24 27/29/24 20/22/24 23/25/24 40/42/24 42/44/24 68/70/24 147/159/24 134/142/24 107/115/24 106/114/24 89/97/24 88/96/24 95/103/24 94/102/24 121/129/24 120/128/24 129/137/24 119/127/24 118/126/24 69/75/24 72/78/24 75/145/24 77/84/24 76/83/24 127/135/24 125/133/24 124/132/24 83/91/24 82/90/24 97/105/24 96/104/24 101/109/24 100/108/24 111/119/24 110/118/24 146/158/24 44/46/24 46/48/24 32/34/24 34/36/24 28/30/24 30/32/24 14/16/24 17/19/24 58/60/24 60/62/24 61/63/24 8/9/24 10/74/24 7/7/24
