# Blender v2.80 (sub 75) OBJ File: ''
# www.blender.org
mtllib BallRoomFloor.mtl
o Plane.033_Plane.000
v 66.875000 0.000006 -14.375000
v 77.000000 0.000009 -16.250000
v 77.000000 0.000012 -25.000000
v 68.750000 0.000012 -25.000000
v 42.000000 0.000009 -20.000000
v 56.750000 0.000006 -12.500000
v 60.500000 0.000012 -25.000000
v 42.000000 0.000012 -25.000000
v 72.000000 -0.000006 10.000001
v 77.000000 -0.000006 9.999999
v 77.000000 0.000003 -7.500000
v 65.000000 0.000003 -3.750000
v 65.000000 -0.000006 10.000001
v 53.000000 0.000000 0.000000
v 42.000000 0.000006 -12.000001
vt 0.750000 0.750000
vt 1.000000 0.750000
vt 1.000000 1.000000
vt 0.750000 1.000000
vt 0.000000 0.750000
vt 0.500000 0.750000
vt 0.500000 1.000000
vt 0.000000 1.000000
vt 0.750000 0.000000
vt 1.000000 0.000000
vt 1.000000 0.500000
vt 0.750000 0.500000
vt 0.500000 0.000000
vt 0.500000 0.500000
vt 0.000000 0.500000
vn -0.0000 1.0000 0.0000
usemtl None
s off
f 1/1/1 2/2/1 3/3/1 4/4/1
f 5/5/1 6/6/1 7/7/1 8/8/1
f 9/9/1 10/10/1 11/11/1 12/12/1
f 13/13/1 9/9/1 12/12/1 14/14/1
f 6/6/1 1/1/1 4/4/1 7/7/1
f 14/14/1 12/12/1 1/1/1 6/6/1
f 15/15/1 14/14/1 6/6/1 5/5/1
f 12/12/1 11/11/1 2/2/1 1/1/1
