# Blender v2.80 (sub 75) OBJ File: ''
# www.blender.org
mtllib HighRoller_Flooring.mtl
o Cube.003_Cube.003
v 9.129448 -0.000002 13.000000
v 6.000000 -0.000003 17.000000
v 13.000000 -0.000003 21.000000
v 16.000000 -0.000003 17.000000
v 30.027775 -0.000003 17.000002
v 30.000000 -0.000004 24.000000
v 25.000000 -0.000003 17.000002
v 27.045883 -0.000003 17.000002
v 27.025002 -0.000004 24.017372
v 27.025002 -0.000006 34.000000
v 30.000000 -0.000006 34.000000
v 17.250000 -0.000006 34.000000
v 24.948189 -0.000006 34.000000
v 24.948189 -0.000004 24.017372
v 17.250000 -0.000004 24.017372
v 16.378716 -0.000006 34.000000
v 13.000000 -0.000005 30.621284
v 27.025002 -0.000006 36.000000
v 30.000000 -0.000006 36.000000
v 13.989601 -0.000005 33.010399
v 14.689362 -0.000005 33.547337
v 15.504242 -0.000006 33.884872
v 13.452667 -0.000005 32.310642
v 13.115128 -0.000005 31.495762
vt 0.158990 0.361990
vt 0.247405 0.311467
vt 0.285297 0.361990
vt 0.198517 0.412513
vt 0.424550 0.273356
vt 0.462126 0.273575
vt 0.462477 0.361990
vt 0.424814 0.361990
vt 0.424550 0.147269
vt 0.462126 0.147269
vt 0.301085 0.147269
vt 0.398318 0.147269
vt 0.398318 0.273356
vt 0.301085 0.273356
vt 0.398973 0.361990
vt 0.253122 0.168606
vt 0.290080 0.147269
vt 0.247405 0.189944
vt 0.424550 0.122007
vt 0.462126 0.122007
vt 0.259904 0.159768
vt 0.268743 0.152986
vt 0.279035 0.148723
vt 0.248859 0.178899
vn -0.0000 1.0000 0.0000
usemtl initialShadingGroup.001
s 1
f 2/1/1 3/2/1 4/3/1 1/4/1
f 9/5/1 6/6/1 5/7/1 8/8/1
f 10/9/1 11/10/1 6/6/1 9/5/1
f 12/11/1 13/12/1 14/13/1 15/14/1
f 15/14/1 14/13/1 7/15/1 4/3/1
f 3/2/1 15/14/1 4/3/1
f 23/16/1 16/17/1 17/18/1
f 11/10/1 10/9/1 18/19/1 19/20/1
f 13/12/1 10/9/1 9/5/1 14/13/1
f 14/13/1 9/5/1 8/8/1 7/15/1
f 3/2/1 17/18/1 15/14/1
f 15/14/1 17/18/1 12/11/1
f 23/16/1 20/21/1 16/17/1
f 20/21/1 21/22/1 22/23/1
f 22/23/1 16/17/1 20/21/1
f 16/17/1 12/11/1 17/18/1
f 17/18/1 24/24/1 23/16/1
