# Blender v2.80 (sub 75) OBJ File: 'Map3copy.blend'
# www.blender.org
mtllib Map3Floor.mtl
o Plane.005_Plane.021
v 65.000000 0.000000 34.000000
v 65.000000 0.000000 17.000000
v 50.000000 0.000000 34.000000
v 53.000000 0.000000 34.000000
v 59.000000 0.000000 17.000000
v 55.000000 0.000000 17.000000
v 65.000000 0.000000 25.500000
v 52.500000 0.000000 25.500000
v 56.000000 0.000000 25.500000
v 48.000000 0.000000 32.417400
v 49.582603 0.000000 34.000000
v 48.053925 0.000000 32.827007
v 48.212029 0.000000 33.208694
v 48.463531 0.000000 33.536465
v 48.791302 0.000000 33.787971
v 49.172993 0.000000 33.946075
v 14.999996 0.000000 -12.000000
v 41.800774 0.000000 -12.000000
v 41.800781 0.000000 -20.000000
v 14.999996 0.000000 -15.479467
v 34.999996 0.000000 -12.000000
v 34.666664 0.000000 -20.000000
v 24.333332 0.000000 -20.000000
v 41.800774 0.000000 -14.000000
v 24.666664 0.000000 -15.500000
v 34.833328 0.000000 -15.500000
v 24.999996 0.000000 17.000000
v 29.999996 0.000000 1.000001
v 24.999996 0.000000 -12.000000
v 29.999996 0.000000 17.000000
v 24.999996 0.000000 -3.000000
v 29.999996 0.000000 -12.000000
v 34.999996 0.000000 -2.000000
v 34.999996 0.000000 -6.000000
v 24.999996 0.000000 10.017346
v 34.999996 0.000000 10.000001
v 29.836969 0.000000 28.000000
v 48.000000 0.000000 28.000000
v 9.000000 0.000000 -12.458934
v 48.000000 0.000000 17.000000
v 35.095486 0.000000 28.000000
v 34.999996 0.000000 17.000000
v 37.060726 0.000000 28.000000
v 45.939278 0.000000 28.000000
v 45.939278 0.000000 17.000000
v 37.060726 0.000000 17.000000
v 9.000000 0.000000 4.000001
v 25.000000 0.000000 4.000001
v 9.000000 0.000000 -3.000000
v 29.999996 0.000000 10.008674
v 9.000000 0.000000 -9.000000
v 9.000000 0.000000 -17.000000
v 5.999996 0.000000 17.000000
v -6.000000 0.000000 -5.206796
v -6.000000 0.000000 -1.000000
v -6.000000 0.000000 2.000000
v -6.000000 0.000000 6.000000
v 9.129444 0.000000 13.000001
v 29.999996 0.000000 -4.500000
v 29.749996 0.000000 -15.500000
v 14.999996 0.000000 -20.000000
v 29.499998 0.000000 -20.000000
v -6.000000 0.000000 6.750127
v -3.192829 0.000000 11.637517
v -5.904350 0.000000 7.647052
v -5.623909 0.000000 8.594449
v -5.177795 0.000000 9.527753
v -4.596416 0.000000 10.383359
v -3.919380 0.000000 11.102958
v -3.055023 0.000000 -10.581120
v -6.000000 0.000000 -5.956922
v -3.817238 0.000000 -10.114682
v -4.527515 0.000000 -9.458557
v -5.137436 0.000000 -8.657460
v -5.605453 0.000000 -7.765984
v -5.899658 0.000000 -6.844880
v 6.276333 0.000000 16.646797
v 8.865128 0.000000 13.337844
vt 0.733903 0.822126
vt 0.856232 0.795790
vt 0.856232 0.901133
vt 0.730977 0.901133
vt 0.385687 0.821765
vt 0.555406 0.822126
vt 0.549553 0.901133
vt 0.385687 0.901133
vt 0.644654 0.822126
vt 0.640265 0.901133
vt 0.649044 0.760676
vt 0.736829 0.760676
vt 0.385687 0.760676
vt 0.561258 0.760676
vt 0.856232 0.760676
vt 0.649044 0.628997
vt 0.736829 0.655333
vt 0.649044 0.374266
vt 0.736829 0.374419
vt 0.736829 0.585104
vt 0.649044 0.532433
vt 0.649044 0.251519
vt 0.736829 0.251519
vt 0.928892 0.058390
vt 0.965072 0.058390
vt 0.965072 0.251519
vt 0.928892 0.251519
vt 0.646181 0.058390
vt 0.738506 0.058390
vt 0.773010 0.058390
vt 0.773010 0.251519
vt 0.280344 0.479761
vt 0.561258 0.479761
vt 0.561258 0.602661
vt 0.280344 0.602661
vt 0.561258 0.251519
vt 0.561258 0.374114
vt 0.666667 0.500000
vt 1.000000 0.500000
vt 1.000000 1.000000
vt 0.666667 1.000000
vt 0.000000 0.500000
vt 0.333333 0.500000
vt 0.333333 1.000000
vt 0.000000 1.000000
vt 0.333333 0.000000
vt 0.666667 0.000000
vt 1.000000 0.000000
vt 0.000000 0.079130
vt 0.002456 0.058747
vt 0.010141 0.039860
vt 0.023607 0.008112
vt 0.130514 0.003780
vt 0.195114 0.000968
vt 0.263767 0.000000
vt 0.280344 0.768733
vt 0.280344 0.708004
vt 0.016987 0.444647
vt 0.282617 0.321747
vt 0.016987 0.514876
vt 0.016987 0.567547
vt 0.016987 0.641406
vt 0.016987 0.431477
vt 0.018666 0.415730
vt 0.023590 0.399096
vt 0.031423 0.382710
vt 0.041630 0.367688
vt 0.053517 0.355054
vt 0.066273 0.345669
vt 0.227673 0.251519
vt 0.232524 0.257720
vt 0.277976 0.315816
vt 0.280344 0.848461
vt 0.068692 0.735764
vt 0.055310 0.727575
vt 0.042840 0.716055
vt 0.032131 0.701990
vt 0.023914 0.686338
vt 0.018749 0.670167
vt 0.016987 0.654577
vn 0.0000 1.0000 0.0000
usemtl None
s off
f 26/1/1 24/2/1 19/3/1 22/4/1
f 20/5/1 25/6/1 23/7/1 61/8/1
f 60/9/1 26/1/1 22/4/1 62/10/1
f 32/11/1 21/12/1 26/1/1 60/9/1
f 17/13/1 29/14/1 25/6/1 20/5/1
f 21/12/1 18/15/1 24/2/1 26/1/1
f 59/16/1 34/17/1 21/12/1 32/11/1
f 50/18/1 36/19/1 33/20/1 28/21/1
f 28/21/1 33/20/1 34/17/1 59/16/1
f 30/22/1 42/23/1 36/19/1 50/18/1
f 44/24/1 38/25/1 40/26/1 45/27/1
f 37/28/1 41/29/1 42/23/1 30/22/1
f 41/29/1 43/30/1 46/31/1 42/23/1
f 43/30/1 44/24/1 45/27/1 46/31/1
f 47/32/1 48/33/1 31/34/1 49/35/1
f 27/36/1 30/22/1 50/18/1 35/37/1
f 48/33/1 28/21/1 59/16/1 31/34/1
f 35/37/1 50/18/1 28/21/1 48/33/1
f 31/34/1 59/16/1 32/11/1 29/14/1
f 29/14/1 32/11/1 60/9/1 25/6/1
f 25/6/1 60/9/1 62/10/1 23/7/1
s 1
f 9/38/1 7/39/1 2/40/1 5/41/1
f 38/42/1 8/43/1 6/44/1 40/45/1
f 8/43/1 9/38/1 5/41/1 6/44/1
f 3/46/1 4/47/1 9/38/1 8/43/1
f 4/47/1 1/48/1 7/39/1 9/38/1
f 10/49/1 12/50/1 13/51/1 14/52/1 15/53/1 16/54/1 11/55/1 3/46/1 8/43/1 38/42/1
f 39/56/1 51/57/1 17/13/1 20/5/1
f 57/58/1 58/59/1 47/32/1 56/60/1
f 56/60/1 47/32/1 49/35/1 55/61/1
f 55/61/1 49/35/1 51/57/1 54/62/1
f 63/63/1 65/64/1 66/65/1 67/66/1 68/67/1 69/68/1 64/69/1 53/70/1 77/71/1 78/72/1 58/59/1 57/58/1
f 54/62/1 51/57/1 39/56/1 52/73/1 70/74/1 72/75/1 73/76/1 74/77/1 75/78/1 76/79/1 71/80/1
f 52/73/1 39/56/1 20/5/1 61/8/1
