# Blender v2.80 (sub 75) OBJ File: ''
# www.blender.org
mtllib DoorWall.mtl
o Cube.001_Cube.009
v 0.001504 2.612169 -0.778976
v 0.001504 -0.009012 -0.778976
v 0.001505 2.612169 0.777240
v 0.001504 -0.009012 0.777240
v 0.001504 2.612169 0.247421
v 0.001504 2.612169 -0.249157
v 0.001504 -0.009012 -0.249157
v 0.001504 -0.009012 0.247421
v 0.001504 1.227970 -0.778976
v 0.001504 0.585707 -0.778976
v 0.001504 0.585707 0.777240
v 0.001505 1.227970 0.777240
v 0.001504 0.585707 -0.249157
v 0.001504 1.227970 -0.249157
v 0.001504 0.585707 0.247421
v 0.001504 1.227970 0.247421
v 0.001504 2.612169 0.064246
v 0.001504 2.612169 -0.065983
v 0.001504 -0.009012 -0.065983
v 0.001504 -0.009012 0.064246
v 0.001504 1.227970 -0.065983
v 0.001504 1.227970 0.064246
v 0.001504 1.018317 -0.778977
v 0.001504 1.008370 -0.778977
v 0.001504 1.008370 0.777240
v 0.001505 1.018317 0.777240
v 0.001504 1.008370 -0.249157
v 0.001504 1.018317 -0.249157
v 0.001504 1.008370 0.247421
v 0.001504 1.018317 0.247421
v 0.001504 0.105312 -0.778976
v 0.001504 0.105311 0.777240
v 0.001504 0.105311 -0.249157
v 0.001504 0.105311 0.247421
v 0.001504 0.105311 -0.065983
v 0.001504 0.105311 0.064246
v 0.001504 0.796348 -0.778977
v 0.001504 0.796348 0.777240
v 0.001504 0.796348 -0.249157
v 0.001504 0.796348 0.247421
v 0.001504 0.069053 -0.778976
v 0.001504 0.069053 0.777240
v 0.001504 0.069053 -0.249157
v 0.001504 0.069053 0.247421
v 0.001504 0.069053 -0.065983
v 0.001504 0.069053 0.064246
v -0.188663 -0.009012 0.064246
v -0.188663 -0.009012 0.247421
v -0.188663 -0.009012 -0.249157
v -0.188663 -0.009012 -0.065983
v 0.028076 0.585707 -0.249157
v 0.028076 1.227970 -0.249157
v 0.028076 0.585707 0.247421
v 0.028076 1.227970 0.247421
v 0.028076 1.227970 -0.065983
v 0.028076 1.227970 0.064246
v 0.028076 0.983991 -0.249157
v 0.028076 1.018317 -0.249157
v 0.028076 0.983991 0.247421
v 0.028076 1.018317 0.247421
v 0.028076 0.105311 -0.249157
v 0.028076 0.105311 0.247421
v 0.028076 0.105311 -0.065983
v 0.028076 0.105311 0.064246
v 0.028076 0.796348 -0.249157
v 0.028076 0.796348 0.247421
v 0.028076 0.585707 0.064246
v 0.028076 0.585707 -0.065983
v 0.028076 0.796348 -0.065983
v 0.028076 0.796348 0.064246
v 0.028076 0.958354 0.064246
v 0.028076 0.958354 -0.065983
v 0.028076 0.924028 0.064246
v 0.028076 0.924028 -0.065983
v 0.001505 1.206225 0.777240
v 0.001504 1.206225 -0.249157
v 0.001504 1.206225 0.247421
v 0.001504 1.206225 -0.778976
v 0.028076 1.206225 -0.249157
v 0.028076 1.206225 0.247421
v 0.028076 1.206225 -0.065983
v 0.028076 1.206225 0.064246
v 0.001504 2.612169 -0.226248
v 0.001504 -0.009012 -0.226248
v 0.001504 1.227970 -0.226248
v 0.001504 0.105311 -0.226248
v 0.001504 0.069053 -0.226248
v -0.188663 -0.009012 -0.226248
v 0.028076 1.227970 -0.226248
v 0.028076 0.105311 -0.226248
v 0.028076 0.585707 -0.226248
v 0.028076 0.796348 -0.226248
v 0.028076 1.018317 -0.226248
v 0.028076 0.983991 -0.226248
v 0.028076 1.206225 -0.226248
v 0.001504 -0.009012 0.219654
v 0.001504 1.227970 0.219654
v 0.001504 2.612169 0.219654
v 0.001504 0.105311 0.219654
v 0.001504 0.069053 0.219654
v -0.188663 -0.009012 0.219654
v 0.028076 1.227970 0.219654
v 0.028076 0.105311 0.219654
v 0.028076 0.585707 0.219654
v 0.028076 0.796348 0.219654
v 0.028076 1.018317 0.219654
v 0.028076 0.983991 0.219654
v 0.028076 1.206225 0.219654
v -0.188663 0.062352 -0.249157
v -0.181963 0.069053 -0.249157
v -0.186701 0.067090 -0.249157
v -0.181963 0.069053 0.247421
v -0.188663 0.062352 0.247421
v -0.186701 0.067090 0.247421
v -0.181963 0.069053 -0.065983
v -0.188663 0.062352 -0.065983
v -0.186701 0.067090 -0.065983
v -0.188663 0.062352 0.064246
v -0.181963 0.069053 0.064246
v -0.186701 0.067090 0.064246
v -0.181963 0.069053 -0.226248
v -0.188663 0.062352 -0.226248
v -0.186701 0.067090 -0.226248
v -0.181963 0.069053 0.219654
v -0.188663 0.062352 0.219654
v -0.186701 0.067090 0.219654
v 0.032914 0.924028 -0.065983
v 0.032914 0.958354 -0.065983
v 0.032914 0.958354 0.064246
v 0.032914 0.924028 0.064246
vt 0.000000 0.000000
vt 0.000000 0.000000
vt 0.000000 0.000000
vt 0.000000 0.000000
vt 0.000000 0.000000
vt 0.000000 0.000000
vt 0.000000 0.000000
vt 0.000000 0.000000
vt 0.000000 0.000000
vt 0.000000 0.000000
vt 0.000000 0.000000
vt 0.000000 0.000000
vt 0.854038 0.666667
vt 1.000000 0.666667
vt 1.000000 1.000000
vt 0.854038 1.000000
vt 0.854038 0.000000
vt 1.000000 0.000000
vt 1.000000 0.333333
vt 0.854038 0.333333
vt 0.717555 0.000000
vt 0.773110 0.000000
vt 0.773110 0.333333
vt 0.717555 0.333333
vt 0.717555 0.666667
vt 0.773110 0.666667
vt 0.773110 1.000000
vt 0.717555 1.000000
vt 0.866567 0.649824
vt 1.000000 0.649824
vt 1.000000 0.666667
vt 0.866567 0.666667
vt 0.786244 0.000000
vt 0.786244 0.333333
vt 0.786244 0.666667
vt 0.786244 1.000000
vt 0.786244 0.444444
vt 0.854038 0.444444
vt 0.854038 0.555556
vt 0.786244 0.555556
vt 0.786244 0.347230
vt 0.854038 0.347229
vt 0.786244 0.649824
vt 0.854039 0.649824
vt 0.866567 0.444444
vt 1.000000 0.444444
vt 1.000000 0.555556
vt 0.866567 0.555556
vt 0.854038 0.347229
vt 0.854038 0.444444
vt 0.854038 0.555556
vt 0.866567 0.347229
vt 1.000000 0.347230
vt 0.854038 0.333333
vt 0.854039 0.649824
vt 0.854038 0.666667
vt 0.786244 0.555556
vt 0.786244 0.444444
vt 0.717555 0.666667
vt 0.773110 0.666667
vt 0.786244 0.347229
vt 0.786244 0.666667
vt 0.786244 0.649824
vt 0.786244 0.333333
vt 0.773110 0.333333
vt 0.717555 0.333333
vt 1.000000 0.333333
vt 0.866567 0.333333
vt 0.855262 0.333333
vt 0.855262 0.666667
vt 0.854038 0.555556
vt 0.854038 0.444444
vt 0.854038 0.347229
vt 0.854039 0.649824
vt 0.355438 0.094348
vt 0.355438 0.534124
vt 0.338595 0.534124
vt 0.338595 0.094348
vt 1.005262 0.094348
vt 1.005262 0.534124
vt 0.671928 0.534124
vt 0.671928 0.094348
vt 0.005262 0.534125
vt 0.005262 0.094348
vt 0.658032 0.094348
vt 0.658032 0.534124
vt 0.560817 0.534124
vt 0.560817 0.094348
vt 0.449706 0.534125
vt 0.449706 0.094348
vt 0.338595 0.544225
vt 0.338595 0.645236
vt 0.005262 0.645236
vt 0.005262 0.544226
vt 0.338595 0.756347
vt 0.005262 0.756347
vt 1.005262 0.544226
vt 1.005262 0.645236
vt 0.671928 0.645236
vt 0.671928 0.544226
vt 1.005262 0.756347
vt 0.671928 0.756347
vt 0.338595 0.811902
vt 0.005262 0.811902
vt 1.005262 0.811902
vt 0.671928 0.811902
vt 0.671928 0.534124
vt 0.658032 0.534124
vt 0.671928 0.811902
vt 0.671928 0.756347
vt 0.560817 0.534124
vt 0.449706 0.534125
vt 0.671928 0.645236
vt 0.338595 0.756347
vt 0.338595 0.811902
vt 0.671928 0.544225
vt 0.338595 0.645236
vt 0.338595 0.534124
vt 0.338595 0.544225
vt 0.355438 0.534124
vt 0.517157 0.538420
vt 0.605998 0.516150
vt 0.608660 0.515092
vt 0.521130 0.538673
vt 0.762920 0.351937
vt 0.691631 0.482084
vt 0.650145 0.498588
vt 0.709124 0.354001
vt 0.564925 0.532490
vt 0.605998 0.516150
vt 0.517157 0.538420
vt 0.455838 0.534515
vt 0.644997 0.546561
vt 0.753690 0.648460
vt 0.583063 0.542617
vt 0.375653 0.771082
vt 0.608660 0.515092
vt 0.664016 0.726174
vt 0.365663 0.629044
vt 0.521130 0.538673
vt 0.366265 0.723350
vt 0.663683 0.629091
vt 0.658546 0.542758
vt 0.356367 0.542753
vn -0.0000 -1.0000 0.0000
vn -1.0000 0.0000 0.0000
vn -0.9808 0.1951 0.0000
vn 0.0000 1.0000 0.0000
vn -0.1951 0.9808 -0.0000
vn -0.0000 0.0000 -1.0000
vn 0.0000 0.0000 1.0000
vn -0.9239 0.3827 0.0000
vn -0.3827 0.9239 0.0000
usemtl Material.003
s 1
f 19/1/1 20/2/1 47/3/1 50/4/1
f 96/5/1 8/6/1 48/7/1 101/8/1
f 84/9/1 19/1/1 50/4/1 88/10/1
f 7/11/1 84/9/1 88/10/1 49/12/1
f 20/2/1 96/5/1 101/8/1 47/3/1
usemtl Material.004
f 44/13/2 8/14/2 4/15/2 42/16/2
f 41/17/2 2/18/2 7/19/2 43/20/2
f 37/21/2 10/22/2 13/23/2 39/24/2
f 40/25/2 15/26/2 11/27/2 38/28/2
f 125/29/3 101/30/2 48/31/2 113/32/3
f 10/22/2 31/33/2 33/34/2 13/23/2
f 15/26/2 34/35/2 32/36/2 11/27/2
f 35/37/2 45/38/2 46/39/2 36/40/2
f 86/41/2 87/42/2 45/38/2 35/37/2
f 99/43/2 100/44/2 44/13/2 34/35/2
f 31/33/2 41/17/2 43/20/2 33/34/2
f 34/35/2 44/13/2 42/16/2 32/36/2
f 116/45/3 50/46/2 47/47/2 118/48/3
f 45/38/4 87/42/4 121/49/5 115/50/5
f 46/39/4 45/38/4 115/50/5 119/51/5
f 122/52/3 88/53/2 50/46/2 116/45/3
f 87/42/4 43/20/4 110/54/5 121/49/5
f 44/13/4 100/44/4 124/55/5 112/56/5
f 35/37/4 36/40/4 64/57/4 63/58/4
f 15/26/6 40/25/6 66/59/6 53/60/6
f 86/41/4 35/37/4 63/58/4 90/61/4
f 99/43/4 34/35/4 62/62/4 103/63/4
f 13/23/7 33/34/7 61/64/7 51/65/7
f 34/35/6 15/26/6 53/60/6 62/62/6
f 39/24/7 13/23/7 51/65/7 65/66/7
f 33/34/4 86/41/4 90/61/4 61/64/4
f 118/48/3 47/47/2 101/30/2 125/29/3
f 43/20/6 7/19/6 49/67/6 109/68/6 111/69/6 110/54/6
f 33/34/2 43/20/2 87/42/2 86/41/2
f 36/40/4 99/43/4 103/63/4 64/57/4
f 100/44/4 46/39/4 119/51/5 124/55/5
f 36/40/2 46/39/2 100/44/2 99/43/2
f 8/14/7 44/13/7 112/56/7 114/70/7 113/32/7 48/31/7
f 116/45/3 118/48/3 120/71/8 117/72/8
f 117/72/9 120/71/9 119/51/5 115/50/5
f 122/52/3 116/45/3 117/72/8 123/73/8
f 123/73/9 117/72/9 115/50/5 121/49/5
f 125/29/3 113/32/3 114/70/8 126/74/8
f 126/74/9 114/70/9 112/56/5 124/55/5
f 109/68/3 122/52/3 123/73/8 111/69/8
f 111/69/9 123/73/9 121/49/5 110/54/5
f 118/48/3 125/29/3 126/74/8 120/71/8
f 120/71/9 126/74/9 124/55/5 119/51/5
f 109/68/3 49/67/2 88/53/2 122/52/3
usemtl Material.005
f 98/75/2 97/76/2 16/77/2 5/78/2
f 1/79/2 9/80/2 14/81/2 6/82/2
f 5/78/2 16/77/2 12/83/2 3/84/2
f 83/85/2 85/86/2 21/87/2 18/88/2
f 18/88/2 21/87/2 22/89/2 17/90/2
f 77/91/2 30/92/2 26/93/2 75/94/2
f 30/92/2 29/95/2 25/96/2 26/93/2
f 78/97/2 23/98/2 28/99/2 76/100/2
f 23/98/2 24/101/2 27/102/2 28/99/2
f 29/95/2 40/103/2 38/104/2 25/96/2
f 24/101/2 37/105/2 39/106/2 27/102/2
f 85/86/1 14/81/1 52/107/1 89/108/1
f 27/102/7 39/106/7 65/109/7 57/110/7
f 22/89/1 21/87/1 55/111/1 56/112/1
f 28/99/7 27/102/7 57/110/7 58/113/7
f 40/103/6 29/95/6 59/114/6 66/115/6
f 76/100/7 28/99/7 58/113/7 79/116/7
f 29/95/6 30/92/6 60/117/6 59/114/6
f 77/91/6 16/77/6 54/118/6 80/119/6
f 97/76/1 22/89/1 56/112/1 102/120/1
f 30/92/6 77/91/6 80/119/6 60/117/6
f 14/81/7 76/100/7 79/116/7 52/107/7
f 9/80/2 78/97/2 76/100/2 14/81/2
f 16/77/2 77/91/2 75/94/2 12/83/2
f 21/87/1 85/86/1 89/108/1 55/111/1
f 6/82/2 14/81/2 85/86/2 83/85/2
f 16/77/1 97/76/1 102/120/1 54/118/1
f 17/90/2 22/89/2 97/76/2 98/75/2
usemtl Material.006
f 129/121/2 128/122/2 127/123/2 130/124/2
usemtl Material.008
f 91/125/2 68/126/2 69/127/2 92/128/2
f 81/129/2 72/130/2 71/131/2 82/132/2
f 67/133/2 68/126/2 63/58/2 64/57/2
f 104/134/2 67/133/2 64/57/2 103/63/2
f 70/135/2 69/127/2 68/126/2 67/133/2
f 105/136/2 70/135/2 67/133/2 104/134/2
f 92/128/2 69/127/2 74/137/2 94/138/2
f 71/131/1 72/130/1 128/122/1 129/121/1
f 106/139/2 71/131/2 73/140/2 107/141/2
f 94/138/2 74/137/2 72/130/2 93/142/2
f 107/141/2 73/140/2 70/135/2 105/136/2
f 73/140/2 74/137/2 69/127/2 70/135/2
f 93/142/2 72/130/2 81/129/2 95/143/2
f 68/126/2 91/125/2 90/61/2 63/58/2
f 82/132/2 71/131/2 106/139/2 108/144/2
f 74/137/4 73/140/4 130/124/4 127/123/4
f 73/140/6 71/131/6 129/121/6 130/124/6
f 72/130/7 74/137/7 127/123/7 128/122/7
usemtl Material.001
f 108/144/2 106/139/2 60/117/2 80/119/2
f 91/125/2 51/65/2 61/64/2 90/61/2
f 95/143/2 81/129/2 55/111/2 89/108/2
f 102/120/2 108/144/2 80/119/2 54/118/2
f 55/111/2 81/129/2 82/132/2 56/112/2
f 58/113/2 93/142/2 95/143/2 79/116/2
f 57/110/2 94/138/2 93/142/2 58/113/2
f 79/116/2 95/143/2 89/108/2 52/107/2
f 65/66/2 92/128/2 94/138/2 57/110/2
f 51/65/2 91/125/2 92/128/2 65/66/2
f 56/112/2 82/132/2 108/144/2 102/120/2
f 59/114/2 107/141/2 105/136/2 66/115/2
f 60/117/2 106/139/2 107/141/2 59/114/2
f 66/115/2 105/136/2 104/134/2 53/60/2
f 53/60/2 104/134/2 103/63/2 62/62/2
