# Blender v2.80 (sub 75) OBJ File: ''
# www.blender.org
mtllib HighRollerDoors.mtl
o Cube.004
v 30.442390 0.872912 36.066147
v 30.442390 1.407843 36.066147
v 29.753668 0.004462 35.994858
v 29.753668 2.165525 35.994858
v 30.649370 0.872912 36.074032
v 30.649370 1.407843 36.074032
v 30.714937 0.004462 36.031471
v 30.714937 2.165525 36.031471
v 29.751953 0.004462 36.039848
v 29.751953 2.165525 36.039848
v 30.713224 2.165525 36.076462
v 30.713224 0.004462 36.076462
v 30.442017 0.872912 36.075962
v 30.442017 1.407843 36.075962
v 30.648996 1.407843 36.083847
v 30.648996 0.872912 36.083847
v 27.757835 0.872912 36.684280
v 27.757835 1.407843 36.684280
v 27.821980 0.004462 35.994854
v 27.821980 2.165525 35.994854
v 27.725279 0.872912 36.888836
v 27.725279 1.407843 36.888836
v 27.670773 0.004462 36.944866
v 27.670773 2.165525 36.944866
v 27.866442 0.004462 36.001934
v 27.866442 2.165525 36.001934
v 27.715235 2.165525 36.951942
v 27.715235 0.004462 36.951942
v 27.767536 0.872912 36.685825
v 27.767536 1.407843 36.685825
v 27.734980 1.407843 36.890381
v 27.734980 0.872912 36.890381
v 27.802942 -0.001171 35.997169
v 27.802942 2.180139 35.997169
v 27.802940 -0.001171 35.806805
v 27.802940 2.180139 35.806805
v 29.775211 -0.001171 35.997169
v 29.775211 2.180139 35.997169
v 29.775211 -0.001171 35.806805
v 29.775211 2.180139 35.806805
v 27.738878 -0.001171 35.997169
v 27.738878 2.248037 35.997169
v 27.738878 2.248037 35.806805
v 27.738878 -0.001171 35.806805
v 29.839273 -0.001171 35.806805
v 29.839273 2.248037 35.806805
v 29.839273 2.248037 35.997169
v 29.839273 -0.001171 35.997169
v 27.815866 -0.001171 35.968040
v 27.815866 2.166440 35.968040
v 27.815866 2.166440 35.835938
v 27.815866 -0.001171 35.835938
v 29.762285 -0.001171 35.835938
v 29.762285 2.166440 35.835938
v 29.762285 2.166440 35.968040
v 29.762285 -0.001171 35.968040
v 27.802942 -0.001171 35.968040
v 27.802942 2.180139 35.968040
v 27.802940 2.180139 35.835938
v 27.802940 -0.001171 35.835938
v 29.775211 -0.001171 35.835938
v 29.775211 2.180139 35.835938
v 29.775211 2.180139 35.968040
v 29.775211 -0.001171 35.968040
vt 0.374000 0.676255
vt 0.377525 0.669176
vt 0.332064 0.622543
vt 0.337303 0.720767
vt 0.382872 0.534644
vt 0.617128 0.534644
vt 0.617128 0.331704
vt 0.382872 0.331704
vt 0.420154 0.721207
vt 0.420154 0.629956
vt 0.382301 0.674382
vt 0.380191 0.681286
vt 0.366573 0.863003
vt 0.374960 0.861384
vt 0.422966 0.809669
vt 0.321695 0.802251
vt 0.903328 0.611840
vt 0.903328 0.765554
vt 0.704927 0.983278
vt 0.704927 0.362286
vt 0.962804 0.765554
vt 0.962804 0.611840
vt 0.981153 0.362286
vt 0.981153 0.983278
vt 0.973956 0.015940
vt 0.973956 0.327753
vt 0.853306 0.327753
vt 0.853306 0.015940
vt 0.369702 0.872991
vt 0.321695 0.924706
vt 0.378088 0.871372
vt 0.422966 0.932123
vt 0.024649 0.014022
vt 0.022683 0.013669
vt 0.022629 0.031248
vt 0.024620 0.030901
vt 0.341440 0.326856
vt 0.341439 0.063769
vt 0.182196 0.063769
vt 0.182199 0.326856
vt 0.356277 0.014128
vt 0.356241 0.014363
vt 0.356258 0.030805
vt 0.356277 0.031045
vt 0.530941 0.858572
vt 0.530941 0.858572
vt 0.530941 0.891428
vt 0.530941 0.891428
vt 0.093657 0.596098
vt 0.281303 0.363483
vt 0.302024 0.977746
vt 0.094005 0.748513
vt 0.033992 0.748510
vt 0.013178 0.977608
vt 0.019348 0.363663
vt 0.035081 0.596113
vt 0.038665 0.051639
vt 0.038667 0.311643
vt 0.152749 0.311643
vt 0.152749 0.051639
vt 0.469059 0.858572
vt 0.469059 0.858572
vt 0.469059 0.891428
vt 0.469059 0.891428
vt 0.614428 0.023541
vt 0.663165 0.023541
vt 0.663165 0.157069
vt 0.614428 0.157069
vt 0.661694 0.283694
vt 0.614428 0.283694
vt 0.614428 0.263261
vt 0.661694 0.263261
vt 0.711902 0.287678
vt 0.663165 0.287678
vt 0.663165 0.154150
vt 0.711902 0.154150
vt 0.443644 0.023541
vt 0.532285 0.109071
vt 0.532285 0.312975
vt 0.443644 0.227445
vt 0.711902 0.027525
vt 0.664636 0.027525
vt 0.711902 0.023541
vt 0.661694 0.161053
vt 0.614428 0.161053
vt 0.614428 0.287677
vt 0.664636 0.150166
vt 0.711902 0.150166
vt 0.661397 0.169795
vt 0.661397 0.262458
vt 0.614428 0.262458
vt 0.614428 0.169795
vt 0.532285 0.244302
vt 0.532285 0.102801
vt 0.614428 0.023541
vt 0.614428 0.165042
vt 0.711902 0.047957
vt 0.664636 0.047957
vt 0.711902 0.289256
vt 0.711902 0.166615
vt 0.733078 0.187047
vt 0.733078 0.309688
vt 0.568982 0.244302
vt 0.568982 0.296936
vt 0.550634 0.296936
vt 0.550634 0.244302
vt 0.711902 0.146182
vt 0.711902 0.023541
vt 0.733078 0.043974
vt 0.733078 0.166615
vt 0.550634 0.244302
vt 0.550634 0.296936
vt 0.532285 0.296936
vt 0.532285 0.244302
vt 0.711902 0.048761
vt 0.664933 0.048761
vt 0.661397 0.141424
vt 0.614428 0.141424
vt 0.614428 0.140620
vt 0.661694 0.140620
vt 0.664933 0.169795
vt 0.711902 0.169795
vt 0.711902 0.170598
vt 0.664636 0.170598
vt 0.711902 0.141424
vt 0.664933 0.141424
vn -0.9993 0.0000 -0.0381
vn 0.0381 0.0000 -0.9993
vn 0.9993 0.0000 0.0380
vn 0.0000 1.0000 0.0000
vn 0.0000 -1.0000 0.0000
vn -0.0381 0.0000 0.9993
vn -0.0380 0.0000 0.9993
vn 0.9993 0.0000 0.0381
vn 0.1573 0.0000 -0.9876
vn -0.9876 0.0000 -0.1572
vn -0.1571 0.0000 0.9876
vn 0.9876 0.0000 0.1572
vn -0.1572 0.0000 0.9876
vn 0.1572 0.0000 -0.9876
vn -1.0000 0.0000 0.0000
vn 1.0000 0.0000 0.0000
vn 0.0000 0.0000 1.0000
vn 0.0000 0.0000 -1.0000
usemtl None
s off
f 9/1/1 10/2/1 4/3/1 3/4/1
f 3/5/2 4/6/2 8/7/2 7/8/2
f 7/9/3 8/10/3 11/11/3 12/12/3
f 6/13/4 2/14/4 14/15/4 15/16/4
f 3/4/5 7/9/5 12/12/5 9/1/5
f 8/10/4 4/3/4 10/2/4 11/11/4
f 1/17/6 2/18/6 10/19/6 9/20/6
f 6/21/7 5/22/7 12/23/7 11/24/7
f 5/22/6 1/17/6 9/20/6 12/23/6
f 2/18/6 6/21/6 11/24/6 10/19/6
f 16/25/6 15/26/6 14/27/6 13/28/6
f 5/29/8 6/13/8 15/16/8 16/30/8
f 1/31/5 5/29/5 16/30/5 13/32/5
f 2/14/1 1/31/1 13/32/1 14/15/1
f 25/33/9 19/34/9 20/35/9 26/36/9
f 19/37/10 23/38/10 24/39/10 20/40/10
f 23/41/11 28/42/11 27/43/11 24/44/11
f 22/45/4 31/46/4 30/47/4 18/48/4
f 19/34/5 25/33/5 28/42/5 23/41/5
f 24/44/4 27/43/4 26/36/4 20/35/4
f 17/49/12 25/50/12 26/51/12 18/52/12
f 22/53/12 27/54/12 28/55/12 21/56/12
f 21/56/12 28/55/12 25/50/12 17/49/12
f 18/52/12 26/51/12 27/54/12 22/53/12
f 32/57/12 29/58/12 30/59/12 31/60/12
f 21/61/13 32/62/13 31/46/13 22/45/13
f 17/63/5 29/64/5 32/62/5 21/61/5
f 18/48/14 30/47/14 29/64/14 17/63/14
f 41/65/15 42/66/15 43/67/15 44/68/15
f 40/69/15 39/70/15 61/71/15 62/72/15
f 45/73/16 46/74/16 47/75/16 48/76/16
f 46/77/4 43/78/4 42/79/4 47/80/4
f 33/81/17 34/82/17 42/66/17 41/83/17
f 36/84/18 35/85/18 44/68/18 43/67/18
f 40/69/18 36/84/18 43/67/18 46/74/18
f 39/70/18 40/69/18 46/74/18 45/86/18
f 38/87/17 37/88/17 48/76/17 47/75/17
f 34/82/17 38/87/17 47/75/17 42/66/17
f 55/89/15 54/90/15 53/91/15 56/92/15
f 50/93/5 51/94/5 54/95/5 55/96/5
f 34/82/16 33/81/16 57/97/16 58/98/16
f 38/99/5 34/100/5 58/101/5 63/102/5
f 37/103/15 38/104/15 63/105/15 64/106/15
f 36/107/5 40/108/5 62/109/5 59/110/5
f 35/111/16 36/112/16 59/113/16 60/114/16
f 49/115/17 50/116/17 58/98/17 57/97/17
f 51/117/18 52/118/18 60/119/18 59/120/18
f 54/90/18 51/117/18 59/120/18 62/72/18
f 53/91/18 54/90/18 62/72/18 61/71/18
f 55/121/17 56/122/17 64/123/17 63/124/17
f 50/116/17 55/121/17 63/124/17 58/98/17
f 49/115/16 52/125/16 51/126/16 50/116/16
