# Blender v2.80 (sub 75) OBJ File: ''
# www.blender.org
mtllib TablesDoors.mtl
o Cube.000
v 52.340729 0.004456 36.039848
v 52.340729 2.165519 36.039848
v 52.342442 2.165519 35.994858
v 52.342442 0.004456 35.994858
v 53.303711 2.165519 36.031471
v 53.303711 0.004456 36.031471
v 53.301998 2.165519 36.076462
v 53.301998 0.004456 36.076462
v 53.238144 1.407837 36.074032
v 53.031166 1.407837 36.066147
v 53.030792 1.407837 36.075962
v 53.237770 1.407837 36.083847
v 53.031166 0.872906 36.066147
v 53.238144 0.872906 36.074032
v 53.237770 0.872906 36.083847
v 53.030792 0.872906 36.075962
v 50.327652 -0.001177 35.997169
v 50.327652 2.248031 35.997169
v 50.327652 2.248031 35.806805
v 50.327652 -0.001177 35.806805
v 52.363983 2.180133 35.806805
v 52.363983 -0.001177 35.806805
v 52.363983 -0.001177 35.835938
v 52.363983 2.180133 35.835938
v 52.428047 -0.001177 35.806805
v 52.428047 2.248031 35.806805
v 52.428047 2.248031 35.997169
v 52.428047 -0.001177 35.997169
v 50.391716 -0.001177 35.997169
v 50.391716 2.180133 35.997169
v 50.391716 2.180133 35.806805
v 50.391716 -0.001177 35.806805
v 52.363983 2.180133 35.997169
v 52.363983 -0.001177 35.997169
v 52.351059 2.166434 35.968040
v 52.351059 2.166434 35.835938
v 52.351059 -0.001177 35.835938
v 52.351059 -0.001177 35.968040
v 50.404640 2.166434 35.968040
v 50.404640 2.166434 35.835938
v 50.391716 -0.001177 35.968040
v 50.391716 2.180133 35.968040
v 52.363983 2.180133 35.968040
v 52.363983 -0.001177 35.968040
v 50.391716 2.180133 35.835938
v 50.391716 -0.001177 35.835938
v 50.404640 -0.001177 35.968040
v 50.404640 -0.001177 35.835938
v 50.419346 0.004456 36.039051
v 50.410751 0.004456 35.994854
v 50.410751 2.165519 35.994854
v 50.419346 2.165519 36.039051
v 49.466484 0.004456 36.178551
v 49.466484 2.165519 36.178551
v 49.475082 0.004456 36.222744
v 49.475082 2.165519 36.222744
v 49.537804 1.407837 36.210541
v 49.539680 1.407837 36.220184
v 49.743000 1.407837 36.180630
v 49.741127 1.407837 36.170986
v 49.741127 0.872906 36.170986
v 49.537804 0.872906 36.210541
v 49.539680 0.872906 36.220184
v 49.743000 0.872906 36.180630
vt 0.374000 0.676255
vt 0.377525 0.669176
vt 0.332064 0.622543
vt 0.337303 0.720767
vt 0.382872 0.534644
vt 0.617128 0.534644
vt 0.617128 0.331704
vt 0.382872 0.331704
vt 0.420154 0.721207
vt 0.420154 0.629956
vt 0.382301 0.674382
vt 0.380191 0.681286
vt 0.366573 0.863003
vt 0.374960 0.861384
vt 0.422966 0.809669
vt 0.321695 0.802251
vt 0.903328 0.611840
vt 0.903328 0.765554
vt 0.704927 0.983278
vt 0.704927 0.362286
vt 0.962804 0.765554
vt 0.962804 0.611840
vt 0.981153 0.362286
vt 0.981153 0.983278
vt 0.973956 0.015940
vt 0.973956 0.327753
vt 0.853306 0.327753
vt 0.853306 0.015940
vt 0.369702 0.872991
vt 0.321695 0.924706
vt 0.378088 0.871372
vt 0.422966 0.932123
vt 0.614428 0.023541
vt 0.663165 0.023541
vt 0.663165 0.157069
vt 0.614428 0.157069
vt 0.661694 0.283694
vt 0.614428 0.283694
vt 0.614428 0.263261
vt 0.661694 0.263261
vt 0.711902 0.287678
vt 0.663165 0.287678
vt 0.663165 0.154150
vt 0.711902 0.154150
vt 0.443644 0.023541
vt 0.532285 0.109071
vt 0.532285 0.312975
vt 0.443644 0.227445
vt 0.711902 0.027525
vt 0.664636 0.027525
vt 0.711902 0.023541
vt 0.661694 0.161053
vt 0.614428 0.161053
vt 0.614428 0.287677
vt 0.664636 0.150166
vt 0.711902 0.150166
vt 0.661397 0.169795
vt 0.661397 0.262458
vt 0.614428 0.262458
vt 0.614428 0.169795
vt 0.532285 0.244302
vt 0.532285 0.102801
vt 0.614428 0.023541
vt 0.614428 0.165042
vt 0.711902 0.047957
vt 0.664636 0.047957
vt 0.711902 0.289256
vt 0.711902 0.166615
vt 0.733078 0.187047
vt 0.733078 0.309688
vt 0.568982 0.244302
vt 0.568982 0.296936
vt 0.550634 0.296936
vt 0.550634 0.244302
vt 0.711902 0.146182
vt 0.711902 0.023541
vt 0.733078 0.043974
vt 0.733078 0.166615
vt 0.550634 0.244302
vt 0.550634 0.296936
vt 0.532285 0.296936
vt 0.532285 0.244302
vt 0.711902 0.048761
vt 0.664933 0.048761
vt 0.661397 0.141424
vt 0.614428 0.141424
vt 0.614428 0.140620
vt 0.661694 0.140620
vt 0.664933 0.169795
vt 0.711902 0.169795
vt 0.711902 0.170598
vt 0.664636 0.170598
vt 0.711902 0.141424
vt 0.664933 0.141424
vt 0.024649 0.014022
vt 0.022683 0.013669
vt 0.022629 0.031248
vt 0.024620 0.030901
vt 0.341440 0.326856
vt 0.341439 0.063769
vt 0.182196 0.063769
vt 0.182199 0.326856
vt 0.356277 0.014128
vt 0.356241 0.014363
vt 0.356258 0.030805
vt 0.356277 0.031045
vt 0.530941 0.858572
vt 0.530941 0.858572
vt 0.530941 0.891428
vt 0.530941 0.891428
vt 0.093657 0.596098
vt 0.281303 0.363483
vt 0.302024 0.977746
vt 0.094005 0.748513
vt 0.033992 0.748510
vt 0.013178 0.977608
vt 0.019348 0.363663
vt 0.035081 0.596113
vt 0.038665 0.051639
vt 0.038667 0.311643
vt 0.152749 0.311643
vt 0.152749 0.051639
vt 0.469059 0.858572
vt 0.469059 0.858572
vt 0.469059 0.891428
vt 0.469059 0.891428
vn -0.9993 0.0000 -0.0380
vn 0.0381 0.0000 -0.9993
vn 0.9993 0.0000 0.0380
vn 0.0000 1.0000 0.0000
vn 0.0000 -1.0000 -0.0000
vn -0.0381 -0.0000 0.9993
vn -0.0380 0.0000 0.9993
vn 0.9993 0.0000 0.0381
vn -0.9993 0.0000 -0.0381
vn -1.0000 0.0000 0.0000
vn 1.0000 0.0000 0.0000
vn 0.0000 0.0000 1.0000
vn 0.0000 0.0000 -1.0000
vn 0.0001 0.0000 -1.0000
vn -0.0001 0.0000 -1.0000
vn 0.9816 0.0000 -0.1909
vn -0.1910 0.0000 -0.9816
vn -0.9816 0.0000 0.1910
vn 0.1910 0.0000 0.9816
vn 0.1909 -0.0000 0.9816
vn -0.9816 0.0000 0.1911
vn 0.9817 0.0000 -0.1906
usemtl None
s 1
f 1/1/1 2/2/1 3/3/1 4/4/1
f 4/5/2 3/6/2 5/7/2 6/8/2
f 6/9/3 5/10/3 7/11/3 8/12/3
f 9/13/4 10/14/4 11/15/4 12/16/4
f 4/4/5 6/9/5 8/12/5 1/1/5
f 5/10/4 3/3/4 2/2/4 7/11/4
f 13/17/6 10/18/6 2/19/6 1/20/6
f 9/21/7 14/22/7 8/23/6 7/24/6
f 14/22/7 13/17/6 1/20/6 8/23/6
f 10/18/6 9/21/7 7/24/6 2/19/6
f 15/25/6 12/26/6 11/27/6 16/28/6
f 14/29/8 9/13/8 12/16/8 15/30/8
f 13/31/5 14/29/5 15/30/5 16/32/5
f 10/14/9 13/31/9 16/32/9 11/15/9
f 17/33/10 18/34/10 19/35/10 20/36/10
f 21/37/10 22/38/10 23/39/10 24/40/10
f 25/41/11 26/42/11 27/43/11 28/44/11
f 26/45/4 19/46/4 18/47/4 27/48/4
f 29/49/12 30/50/12 18/34/12 17/51/12
f 31/52/13 32/53/14 20/36/14 19/35/13
f 21/37/13 31/52/13 19/35/13 26/42/13
f 22/38/15 21/37/13 26/42/13 25/54/15
f 33/55/12 34/56/12 28/44/12 27/43/12
f 30/50/12 33/55/12 27/43/12 18/34/12
f 35/57/10 36/58/10 37/59/10 38/60/10
f 39/61/5 40/62/5 36/63/5 35/64/5
f 30/50/11 29/49/11 41/65/11 42/66/11
f 33/67/5 30/68/5 42/69/5 43/70/5
f 34/71/10 33/72/10 43/73/10 44/74/10
f 31/75/5 21/76/5 24/77/5 45/78/5
f 32/79/11 31/80/11 45/81/11 46/82/11
f 47/83/12 39/84/12 42/66/12 41/65/12
f 40/85/13 48/86/13 46/87/13 45/88/13
f 36/58/13 40/85/13 45/88/13 24/40/13
f 37/59/13 36/58/13 24/40/13 23/39/13
f 35/89/12 38/90/12 44/91/12 43/92/12
f 39/84/12 35/89/12 43/92/12 42/66/12
f 47/83/11 48/93/11 40/94/11 39/84/11
f 49/95/16 50/96/16 51/97/16 52/98/16
f 50/99/17 53/100/17 54/101/17 51/102/17
f 53/103/18 55/104/18 56/105/18 54/106/18
f 57/107/4 58/108/4 59/109/4 60/110/4
f 50/96/5 49/95/5 55/104/5 53/103/5
f 54/106/4 56/105/4 52/98/4 51/97/4
f 61/111/19 49/112/19 52/113/19 60/114/19
f 57/115/20 56/116/19 55/117/19 62/118/20
f 62/118/20 55/117/19 49/112/19 61/111/19
f 60/114/19 52/113/19 56/116/19 57/115/20
f 63/119/19 64/120/19 59/121/19 58/122/19
f 62/123/21 63/124/21 58/108/21 57/107/21
f 61/125/5 64/126/5 63/124/5 62/123/5
f 60/110/22 59/109/22 64/126/22 61/125/22
