# Blender v2.80 (sub 75) OBJ File: 'TutorialMap.blend'
# www.blender.org
mtllib TutorialMap.mtl
o TutorialMap_Plane.001
v -1.405194 -0.829010 10.015327
v 2.594806 -0.829010 10.015327
v -1.405194 -0.829010 0.015328
v 2.594806 -0.829010 0.015328
v -1.405194 -0.829010 -3.984672
v 2.594806 -0.829010 -3.984672
v -1.405194 -0.829010 -4.984672
v 2.594806 -0.829010 -4.984672
v -4.405193 -0.829010 0.015328
v -4.405193 -0.829010 -3.984672
v 16.594807 -0.829010 0.015328
v 16.594807 -0.829010 -3.984672
v 16.594807 0.170990 0.015328
v 16.594807 0.170990 -3.984672
v 22.594807 -0.829010 0.015328
v 22.594807 -0.829010 -3.984672
v 22.594807 6.158902 0.015328
v 22.594807 6.158902 -3.984672
v 2.594806 6.158902 -3.984672
v 16.594807 6.158902 -3.984672
v 2.594806 6.158902 0.015328
v 16.594807 6.158902 0.015328
v -1.405194 6.158902 -3.984672
v -1.405194 6.158902 -4.984672
v 2.594806 6.158902 -4.984672
v 2.594806 6.158902 10.015327
v -1.443237 6.159225 10.015327
v -1.443237 6.159225 0.015328
v -4.405193 6.158902 0.015328
v -4.405193 6.158902 -3.984672
v -1.405194 -0.829010 11.015327
v 2.594806 -0.829010 11.015327
v -1.405194 -0.829010 15.015327
v 2.594806 -0.829010 15.015327
v -1.405194 -0.829010 16.015327
v 2.594806 -0.829010 16.015327
v -1.405194 14.170990 16.015327
v 2.594806 14.170990 16.015327
v 16.594807 -0.829010 10.015327
v 16.594807 -0.829010 11.015327
v 16.594807 -0.829010 15.015327
v 16.594807 -0.829010 16.015327
v -16.405193 -0.829010 10.015327
v -16.405193 -0.829010 11.015327
v -16.405193 -0.829010 15.015327
v -16.405193 -0.829010 16.015327
v -16.405193 14.170990 16.015327
v 16.594807 14.170990 16.015327
v 2.482878 6.158911 10.015327
v 2.482878 6.158911 0.015328
v -1.331308 6.159215 10.015327
v -1.405194 6.158908 -3.827040
v -4.288042 6.158908 -3.827040
v -1.443237 6.159238 -0.148809
v -4.276199 6.158953 -0.148809
v -1.243254 6.158902 -3.984672
v 2.454958 6.158902 -3.984672
v -1.243254 6.158902 -4.859330
v 2.454958 6.158902 -4.859330
v 22.398834 6.158902 -3.827040
v 22.398834 6.158902 -0.148809
v 2.594806 6.158902 -3.827040
v 16.563280 6.158902 -3.827040
v 2.594806 6.158902 -0.148809
v 16.563280 6.158902 -0.148809
v 2.482878 6.158911 -0.148809
v 2.454958 6.158902 -3.827040
v -1.243254 6.158908 -3.827040
v -1.331308 6.159215 0.015328
v -1.331308 6.159238 -0.148809
v 2.482878 6.227987 10.015327
v 2.482878 6.227987 0.015328
v -1.331308 6.228292 10.015327
v -1.405194 6.227984 -3.827040
v -4.288042 6.227984 -3.827040
v -1.443237 6.228314 -0.148809
v -4.276199 6.228029 -0.148809
v -1.243254 6.227978 -3.984672
v 2.454958 6.227978 -3.984672
v -1.243254 6.227978 -4.859330
v 2.454958 6.227978 -4.859330
v 2.594806 6.227978 -3.827040
v 2.594806 6.227978 -0.148809
v 16.563280 6.227978 -0.148809
v 2.482878 6.227987 -0.148809
v 2.454958 6.227978 -3.827040
v -1.243254 6.227984 -3.827040
v -1.331308 6.228292 0.015328
v -1.331308 6.228314 -0.148809
v 2.955151 6.227950 10.015327
v 2.955151 6.227950 0.672241
v -3.158971 6.228437 10.015327
v -3.277409 6.227945 -5.487056
v -7.898600 6.227945 -5.487056
v -3.338392 6.228473 0.409131
v -7.879617 6.228017 0.409131
v -3.017821 6.227935 -5.739739
v 2.910395 6.227935 -5.739739
v -3.017821 6.227935 -7.141811
v 2.910395 6.227935 -7.141811
v 3.134571 6.227935 -5.487056
v 3.134571 6.227935 0.409131
v 12.760365 6.227978 2.248221
v 2.955151 6.227950 0.409131
v 2.910395 6.227935 -5.487056
v -3.017821 6.227945 -5.487056
v -3.158971 6.228437 0.672241
v -3.158971 6.228473 0.409131
v 22.398834 6.227978 -3.827040
v 22.398834 6.227978 -0.148809
v 16.563280 6.227978 -3.827040
v 26.201748 6.227978 -6.224071
v 26.201748 6.227978 2.248221
v 12.760365 6.227978 -6.224071
vt 0.000000 0.000000
vt 1.000000 0.000000
vt 1.000000 1.000000
vt 0.000000 1.000000
vt 1.000000 1.000000
vt 0.000000 1.000000
vt 1.000000 1.000000
vt 0.000000 1.000000
vt 0.000000 1.000000
vt 0.000000 1.000000
vt 1.000000 1.000000
vt 1.000000 1.000000
vt 1.000000 1.000000
vt 1.000000 1.000000
vt 1.000000 1.000000
vt 1.000000 1.000000
vt 1.000000 1.000000
vt 1.000000 1.000000
vt 1.000000 1.000000
vt 1.000000 1.000000
vt 1.000000 1.000000
vt 1.000000 1.000000
vt 1.000000 1.000000
vt 0.000000 1.000000
vt 0.000000 1.000000
vt 0.000000 1.000000
vt 1.000000 0.000000
vt 0.000000 1.000000
vt 0.000000 0.000000
vt 0.000000 1.000000
vt 0.000000 0.000000
vt 1.000000 0.000000
vt 0.000000 0.000000
vt 1.000000 0.000000
vt 0.000000 0.000000
vt 1.000000 0.000000
vt 0.000000 0.000000
vt 1.000000 0.000000
vt 1.000000 0.000000
vt 1.000000 0.000000
vt 1.000000 0.000000
vt 1.000000 0.000000
vt 0.000000 0.000000
vt 0.000000 0.000000
vt 0.000000 0.000000
vt 0.000000 0.000000
vt 0.000000 0.000000
vt 1.000000 0.000000
vt 0.000000 1.000000
vt 0.000000 0.000000
vt 1.000000 0.000000
vt 1.000000 1.000000
vt 0.000000 1.000000
vt 0.000000 1.000000
vt 0.000000 1.000000
vt 0.000000 1.000000
vt 1.000000 1.000000
vt 1.000000 1.000000
vt 0.000000 1.000000
vt 0.000000 1.000000
vt 1.000000 1.000000
vt 1.000000 1.000000
vt 1.000000 1.000000
vt 1.000000 1.000000
vt 1.000000 1.000000
vt 1.000000 1.000000
vt 1.000000 1.000000
vt 1.000000 1.000000
vt 0.000000 1.000000
vt 0.000000 1.000000
vt 0.000000 1.000000
vt 0.000000 1.000000
vt 0.000000 1.000000
vt 0.000000 1.000000
vt 1.000000 1.000000
vt 1.000000 1.000000
vt 0.000000 1.000000
vt 0.000000 1.000000
vt 0.000000 1.000000
vt 0.000000 1.000000
vt 1.000000 1.000000
vt 0.000000 1.000000
vt 1.000000 1.000000
vt 1.000000 1.000000
vt 1.000000 1.000000
vt 1.000000 0.000000
vt 1.000000 1.000000
vt 0.000000 0.000000
vt 1.000000 1.000000
vt 1.000000 1.000000
vt 0.000000 1.000000
vt 0.000000 1.000000
vt 0.000000 1.000000
vt 1.000000 0.000000
vt 1.000000 1.000000
vt 0.000000 1.000000
vt 0.000000 0.000000
vt 0.000000 1.000000
vt 0.000000 1.000000
vt 1.000000 1.000000
vt 1.000000 1.000000
vt 1.000000 1.000000
vt 1.000000 1.000000
vt 1.000000 1.000000
vt 0.000000 1.000000
vt 0.000000 1.000000
vt 0.000000 1.000000
vt 1.000000 1.000000
vt 1.000000 1.000000
vt 1.000000 1.000000
vt 1.000000 1.000000
vt 1.000000 1.000000
vt 1.000000 1.000000
vt 1.000000 1.000000
vn 0.0000 1.0000 0.0000
vn -1.0000 0.0000 0.0000
vn 0.0000 0.0000 1.0000
vn 0.0000 0.0000 -1.0000
vn 1.0000 0.0000 0.0000
vn 1.0000 0.0054 0.0000
vn -0.0001 -1.0000 0.0000
vn 0.0002 -1.0000 0.0000
vn 0.0001 -1.0000 -0.0002
vn 0.0000 -1.0000 0.0000
vn -0.0000 -1.0000 -0.0001
vn 1.0000 0.0000 -0.0032
vn 0.0000 1.0000 -0.0003
vn -0.0001 1.0000 -0.0006
vn 0.0001 1.0000 0.0000
vn 0.0001 1.0000 0.0001
usemtl None
s off
f 1/1/1 2/2/1 4/3/1 3/4/1
f 3/4/1 4/3/1 6/5/1 5/6/1
f 5/6/1 6/5/1 8/7/1 7/8/1
f 3/4/1 5/6/1 10/9/1 9/10/1
f 6/5/1 4/3/1 11/11/1 12/12/1
f 12/12/2 11/11/2 13/13/2 14/14/2
f 11/11/1 15/15/1 16/16/1 12/12/1
f 16/16/3 18/17/3 20/18/3 12/12/3
f 15/15/2 17/19/2 18/17/2 16/16/2
f 11/11/4 22/20/4 17/19/4 15/15/4
f 6/5/3 12/12/3 20/18/3 19/21/3
f 11/11/4 4/3/4 21/22/4 22/20/4
f 8/7/2 6/5/2 19/21/2 25/23/2
f 5/6/5 7/8/5 24/24/5 23/25/5
f 7/8/3 8/7/3 25/23/3 24/24/3
f 10/9/3 5/6/3 23/25/3 30/26/3
f 4/3/2 2/2/2 26/27/2 21/22/2
f 1/1/6 3/4/6 28/28/6 27/29/6
f 3/4/4 9/10/4 29/30/4 28/28/4
f 9/10/5 10/9/5 30/26/5 29/30/5
f 2/2/1 1/1/1 31/31/1 32/32/1
f 32/32/1 31/31/1 33/33/1 34/34/1
f 34/34/1 33/33/1 35/35/1 36/36/1
f 36/36/4 35/35/4 37/37/4 38/38/4
f 34/34/1 36/36/1 42/39/1 41/40/1
f 32/32/1 34/34/1 41/40/1 40/41/1
f 2/2/1 32/32/1 40/41/1 39/42/1
f 35/35/1 33/33/1 45/43/1 46/44/1
f 33/33/1 31/31/1 44/45/1 45/43/1
f 31/31/1 1/1/1 43/46/1 44/45/1
f 37/37/4 35/35/4 46/44/4 47/47/4
f 36/36/4 38/38/4 48/48/4 42/39/4
f 27/29/7 28/28/7 69/49/7 51/50/7
f 21/22/7 26/27/7 49/51/7 50/52/7
f 29/30/8 30/26/8 53/53/8 55/54/8
f 28/28/9 29/30/9 55/54/9 54/55/9
f 30/26/10 23/25/10 52/56/10 53/53/10
f 25/23/10 19/21/10 57/57/10 59/58/10
f 23/25/10 24/24/10 58/59/10 56/60/10
f 24/24/10 25/23/10 59/58/10 58/59/10
f 22/20/10 65/61/10 61/62/10 17/19/10
f 18/17/10 60/63/10 63/64/10 20/18/10
f 19/21/10 20/18/10 63/64/10 62/65/10
f 17/19/10 61/62/10 60/63/10 18/17/10
f 22/20/10 21/22/10 64/66/10 65/61/10
f 21/22/7 50/52/7 66/67/7 64/66/7
f 57/57/10 19/21/10 62/65/10 67/68/10
f 52/56/10 23/25/10 56/60/10 68/69/10
f 28/28/11 54/55/11 70/70/11 69/49/11
f 68/69/5 56/60/5 78/71/5 87/72/5
f 53/53/3 52/56/3 74/73/3 75/74/3
f 65/61/4 64/66/4 83/75/4 84/76/4
f 52/56/3 68/69/3 87/72/3 74/73/3
f 54/55/4 55/54/4 77/77/4 76/78/4
f 69/49/5 70/70/5 89/79/5 88/80/5
f 58/59/3 59/58/3 81/81/3 80/82/3
f 57/57/2 67/68/2 86/83/2 79/84/2
f 55/54/12 53/53/12 75/74/12 77/77/12
f 56/60/5 58/59/5 80/82/5 78/71/5
f 67/68/3 62/65/3 82/85/3 86/83/3
f 70/70/4 54/55/4 76/78/4 89/79/4
f 59/58/2 57/57/2 79/84/2 81/81/2
f 50/52/2 49/51/2 71/86/2 72/87/2
f 51/50/5 69/49/5 88/80/5 73/88/5
f 64/66/4 66/67/4 85/89/4 83/75/4
f 66/67/2 50/52/2 72/87/2 85/89/2
f 62/65/3 63/64/3 111/90/3 82/85/3
f 89/79/13 76/78/13 95/91/13 108/92/13
f 76/78/14 77/77/14 96/93/14 95/91/14
f 72/87/15 71/86/15 90/94/15 91/95/15
f 73/88/15 88/80/15 107/96/15 92/97/15
f 77/77/1 75/74/1 94/98/1 96/93/1
f 75/74/1 74/73/1 93/99/1 94/98/1
f 82/85/1 111/90/1 114/100/1 101/101/1
f 79/84/15 86/83/15 105/102/15 98/103/15
f 80/82/1 81/81/1 100/104/1 99/105/1
f 87/72/1 78/71/1 97/106/1 106/107/1
f 86/83/1 82/85/1 101/101/1 105/102/1
f 78/71/1 80/82/1 99/105/1 97/106/1
f 83/75/15 85/89/15 104/108/15 102/109/15
f 81/81/15 79/84/15 98/103/15 100/104/15
f 74/73/1 87/72/1 106/107/1 93/99/1
f 84/76/1 83/75/1 102/109/1 103/110/1
f 88/80/16 89/79/16 108/92/16 107/96/16
f 85/89/15 72/87/15 91/95/15 104/108/15
f 65/61/4 84/76/4 110/111/4 61/62/4
f 61/62/2 110/111/2 109/112/2 60/63/2
f 60/63/3 109/112/3 111/90/3 63/64/3
f 84/76/1 103/110/1 113/113/1 110/111/1
f 110/111/1 113/113/1 112/114/1 109/112/1
f 109/112/1 112/114/1 114/100/1 111/90/1
